
<svg width="26" height="22" viewBox="0 0 26 22" fill="none" xmlns="http://www.w3.org/2000/svg">
<g clip-path="url(#clip0_13547_2237)">
<path d="M0 11C0 10.3096 0.559644 9.75 1.25 9.75H21.7868L14.3547 2.12233C13.8729 1.62788 13.8832 0.836488 14.3777 0.354715C14.8721 -0.127062 15.6635 -0.116783 16.1453 0.37767L25.6424 10.1247C25.8804 10.3672 26 10.6834 26 11C26 11.3166 25.8804 11.6329 25.6422 11.8755L16.1453 21.6223C15.6635 22.1168 14.8721 22.1271 14.3777 21.6453C13.8832 21.1635 13.8729 20.3721 14.3547 19.8777L21.7868 12.25H1.25C0.559644 12.25 0 11.6904 0 11Z" fill="#54257F"/>
</g>
<defs>
<clipPath id="clip0_13547_2237">
<rect width="26" height="22" fill="white"/>
</clipPath>
</defs>
</svg>
