<?xml version="1.0" encoding="UTF-8" standalone="no"?>
<!-- Created with Inkscape (http://www.inkscape.org/) -->

<svg
   width="58.872467mm"
   height="60.596889mm"
   viewBox="0 0 58.872467 60.596889"
   version="1.1"
   id="svg1304"
   xmlns="http://www.w3.org/2000/svg"
   xmlns:svg="http://www.w3.org/2000/svg">
  <defs
     id="defs1301" />
  <g
     id="layer1"
     transform="translate(-61.893976,-118.02449)">
    <path
       d="m 91.298095,168.91866 c -11.761611,-0.0283 -21.353638,-9.58854 -21.339527,-21.41001 0.01411,-11.92043 9.743722,-21.39957 21.44536,-21.37135 11.747502,0.0282 21.357162,9.60614 21.343052,21.40303 0.004,11.7439 -9.5638,21.40659 -21.448885,21.37833 z m 0.05997,-43.19058 c -12.0015,-0.007 -21.787555,9.76136 -21.808722,21.75231 -0.02469,12.05438 9.789584,21.84396 21.798139,21.84756 11.909778,0.007 21.808728,-9.66269 21.808728,-21.80181 0,-12.07551 -9.81781,-21.79454 -21.798145,-21.79806"
       style="fill:#f9f8f8;fill-opacity:1;fill-rule:nonzero;stroke:none;stroke-width:0.0352778"
       id="path18" />
    <path
       d="m 81.749106,174.24243 c 0.06033,-0.0339 0.09384,-0.0843 0.133703,-0.12802 0.785636,-0.8647 1.570567,-1.73041 2.356203,-2.59539 0.123472,-0.13589 0.08608,-0.13339 0.275166,-0.0664 0.256823,0.0911 0.512939,0.18383 0.768703,0.27838 0.06738,0.0248 0.08608,0.0766 0.05151,0.1203 -0.0254,0.0321 -0.05715,0.0226 -0.08925,0.0191 -0.299156,-0.0339 -0.456847,0.0553 -0.579967,0.33154 -0.07161,0.16013 -0.10548,0.33225 -0.150989,0.50095 -0.2286,0.84733 -0.456141,1.69509 -0.682272,2.54356 -0.02364,0.0892 -0.03951,0.18136 -0.04939,0.2734 -0.02046,0.19678 0.05115,0.35236 0.224367,0.45614 0.02787,0.0165 0.05609,0.0339 0.08431,0.0497 0.04974,0.0283 0.02187,0.0656 0.01094,0.0995 -0.01341,0.0412 -0.04269,0.0392 -0.07796,0.0261 -0.179564,-0.0652 -0.35948,-0.12873 -0.539044,-0.19364 -0.287161,-0.10333 -0.573617,-0.20849 -0.861836,-0.30935 -0.06315,-0.0223 -0.09278,-0.0473 -0.05997,-0.11617 0.01764,-0.0374 0.04304,-0.0394 0.07867,-0.0387 0.362303,0.008 0.477661,-0.0656 0.585611,-0.40925 0.09772,-0.31186 0.179564,-0.62897 0.267053,-0.94397 0.174978,-0.63045 0.348897,-1.26118 0.523522,-1.89205 0.0071,-0.0258 0.02187,-0.05 0.0085,-0.0857 -0.04904,0.0149 -0.07197,0.0593 -0.101953,0.0925 -0.846314,0.92812 -1.691217,1.85734 -2.538589,2.78405 -0.04269,0.047 -0.06985,0.13547 -0.164747,0.10308 -0.09666,-0.0328 -0.06138,-0.11754 -0.06421,-0.18203 -0.04904,-1.21102 -0.0956,-2.42217 -0.14358,-3.63319 -0.0032,-0.0816 -0.01164,-0.16277 -0.01799,-0.24984 -0.05503,0.0208 -0.06032,0.0667 -0.07691,0.10224 -0.371827,0.79597 -0.742597,1.59219 -1.113366,2.38841 -0.04127,0.0889 -0.07655,0.17985 -0.100895,0.27591 -0.06562,0.25534 0.01094,0.46136 0.207081,0.62932 0.02893,0.0247 0.05927,0.0489 0.09208,0.0681 0.05644,0.0328 0.05397,0.079 0.02893,0.12595 -0.02469,0.0466 -0.06491,0.0243 -0.100542,0.0116 -0.271639,-0.0977 -0.543631,-0.19544 -0.815622,-0.29312 -0.118181,-0.0423 -0.236361,-0.0844 -0.353836,-0.12732 -0.04198,-0.0156 -0.08255,-0.0318 -0.06315,-0.0925 0.01693,-0.0533 0.05221,-0.0649 0.100894,-0.0565 0.317147,0.0544 0.508705,-0.11327 0.639586,-0.37249 0.130175,-0.25824 0.251531,-0.52074 0.373592,-0.78285 0.338314,-0.72666 0.671689,-1.45616 1.016352,-2.18021 0.05539,-0.11631 0.04445,-0.20175 -0.0187,-0.30053 -0.06879,-0.10721 -0.151341,-0.1997 -0.25788,-0.27026 -0.02752,-0.0179 -0.05468,-0.0359 -0.0822,-0.0539 -0.04692,-0.0307 -0.01834,-0.0664 -0.0063,-0.10058 0.01517,-0.043 0.04516,-0.0371 0.07902,-0.0251 0.323144,0.11684 0.645936,0.23358 0.969786,0.34862 0.05927,0.0211 0.06315,0.0652 0.06491,0.11673 0.0074,0.2074 0.01799,0.41451 0.02575,0.62191 0.02646,0.69289 0.05221,1.38575 0.07832,2.07864 0.01164,0.31115 0.02364,0.6223 0.03669,0.93306 0.0018,0.0367 -0.0088,0.0769 0.02999,0.1203"
       style="fill:#f9f8f8;fill-opacity:1;fill-rule:nonzero;stroke:none;stroke-width:0.0352778"
       id="path20" />
    <path
       d="m 72.782907,124.86307 c -0.09419,-0.0893 -0.09596,-0.0914 -0.02081,-0.15664 0.363361,-0.31468 0.727427,-0.62794 1.091494,-0.94191 0.03704,-0.0318 0.07303,-0.0741 0.120297,-0.012 0.02081,0.0272 0.04022,0.0515 0.0074,0.084 -0.02752,0.0268 -0.05327,0.055 -0.07726,0.0847 -0.09772,0.12171 -0.117122,0.25506 -0.05609,0.39934 0.04692,0.11183 0.114652,0.21132 0.192969,0.30233 0.663222,0.76977 1.32715,1.53847 1.991431,2.30717 0.06421,0.0744 0.13723,0.14041 0.217311,0.19861 0.158397,0.11501 0.319616,0.12947 0.485422,0.0162 0.01799,-0.0123 0.03669,-0.024 0.05327,-0.0381 0.03916,-0.0328 0.06773,-0.018 0.09596,0.0166 0.0314,0.0378 0.02434,0.0646 -0.01199,0.0956 -0.2159,0.18485 -0.430036,0.37112 -0.644877,0.55703 -0.156986,0.13547 -0.314325,0.27129 -0.471664,0.4064 -0.03246,0.0279 -0.06244,0.0646 -0.11042,0.0183 -0.05115,-0.0494 -0.02469,-0.0836 0.01446,-0.12171 0.194381,-0.19015 0.168981,-0.35701 0.04269,-0.55951 -0.05715,-0.0924 -0.125941,-0.1785 -0.196497,-0.26141 -0.262467,-0.30727 -0.52705,-0.61277 -0.792339,-0.91792 -0.07549,-0.0868 -0.07938,-0.0871 -0.166158,-0.0123 -0.571147,0.49212 -1.141589,0.9846 -1.711678,1.47779 -0.08573,0.0741 -0.08537,0.0773 -0.01023,0.16439 0.274108,0.31856 0.549275,0.63676 0.824794,0.95426 0.06809,0.0787 0.141111,0.15276 0.22472,0.2152 0.188383,0.14076 0.329847,0.14605 0.526697,0.0215 0.01376,-0.009 0.02787,-0.0176 0.03951,-0.0289 0.03775,-0.0353 0.06491,-0.0212 0.09525,0.0124 0.03316,0.0367 0.03104,0.0642 -0.006,0.0956 -0.129117,0.10971 -0.256823,0.22119 -0.384881,0.33161 -0.248003,0.21414 -0.496711,0.42757 -0.743303,0.64347 -0.04692,0.0409 -0.08678,0.0684 -0.131233,0 -0.01658,-0.0254 -0.02152,-0.0483 0.0021,-0.072 0.02328,-0.0233 0.04621,-0.0469 0.06773,-0.0716 0.112183,-0.12841 0.131939,-0.26882 0.06032,-0.4251 -0.06209,-0.13582 -0.152753,-0.25188 -0.248708,-0.36371 -0.502709,-0.5835 -1.006475,-1.16593 -1.509889,-1.74872 -0.131939,-0.15311 -0.263172,-0.30657 -0.397228,-0.45791 -0.05398,-0.0614 -0.111125,-0.121 -0.173214,-0.17392 -0.204964,-0.17639 -0.36583,-0.21096 -0.586669,-0.0434 -0.05962,0.0452 -0.09701,0.0356 -0.129117,-0.0222 -0.03175,-0.0579 0.02611,-0.0755 0.05539,-0.10089 0.342547,-0.29739 0.686153,-0.59302 1.029406,-0.889 0.03281,-0.0286 0.06597,-0.0568 0.09878,-0.0861 0.03175,-0.0289 0.0575,-0.0183 0.08255,0.0102 0.02223,0.0254 0.0448,0.0508 0.01623,0.0847 -0.02081,0.0251 -0.04551,0.0473 -0.06667,0.072 -0.114653,0.13335 -0.137583,0.27869 -0.06385,0.44097 0.05045,0.11042 0.117828,0.20955 0.195792,0.30092 0.273403,0.31961 0.549981,0.63641 0.82162,0.95744 0.05327,0.0628 0.08784,0.0755 0.15628,0.0159 0.576792,-0.50165 1.156053,-1.00083 1.737078,-1.49825 0.06385,-0.0547 0.05186,-0.0903 0.0035,-0.14534 -0.291395,-0.33267 -0.579261,-0.66887 -0.871009,-1.00118 -0.05715,-0.0653 -0.123472,-0.12453 -0.192969,-0.17639 -0.1778,-0.1337 -0.307622,-0.13441 -0.496006,-0.013 -0.02716,0.0176 -0.05362,0.0367 -0.07973,0.0547"
       style="fill:#f9f8f8;fill-opacity:1;fill-rule:nonzero;stroke:none;stroke-width:0.0352778"
       id="path22" />
    <path
       d="m 93.823984,122.18866 c -0.09842,0.0847 -0.185914,0.1658 -0.2794,0.23883 -0.538692,0.41875 -1.141942,0.50518 -1.779411,0.30092 -0.566914,-0.18168 -0.861484,-0.60749 -0.943681,-1.18534 -0.05045,-0.35383 0.0035,-0.70837 0.01799,-1.06256 0.02258,-0.55104 0.05327,-1.10173 0.07902,-1.65241 0.0053,-0.11466 -0.0014,-0.22896 -0.02857,-0.34185 -0.04127,-0.17286 -0.144992,-0.27481 -0.322086,-0.30409 -0.05715,-0.01 -0.149225,0.0123 -0.132292,-0.0956 0.01517,-0.097 0.09419,-0.0519 0.144992,-0.0497 0.381706,0.0159 0.763411,0.036 1.145117,0.0554 0.09807,0.005 0.196144,0.0127 0.294216,0.0194 0.04022,0.002 0.07444,0.009 0.07373,0.0639 -3.53e-4,0.0593 -0.03175,0.0755 -0.0829,0.0737 -0.01658,-7.1e-4 -0.03316,0 -0.04939,10e-4 -0.215194,0.0176 -0.32385,0.10759 -0.384528,0.31679 -0.04022,0.13758 -0.04868,0.27975 -0.05609,0.42122 -0.03951,0.75812 -0.07514,1.51624 -0.110067,2.27436 -0.006,0.12523 -0.0018,0.25012 0.02364,0.375 0.100895,0.49742 0.433564,0.81209 0.933097,0.87242 0.593725,0.072 1.068564,-0.14147 1.439334,-0.60325 0.03951,-0.049 0.06033,-0.0988 0.0635,-0.16263 0.04163,-0.87277 0.08678,-1.74519 0.128058,-2.61797 0.006,-0.12523 0.0078,-0.25188 -0.0042,-0.37641 -0.02046,-0.21484 -0.117475,-0.37359 -0.349603,-0.41381 -0.01587,-0.002 -0.0314,-0.009 -0.04727,-0.012 -0.04163,-0.008 -0.04868,-0.037 -0.04586,-0.0734 0.0032,-0.0374 0.01834,-0.0632 0.05927,-0.0628 0.05997,7.1e-4 0.119945,0.003 0.179917,0.006 0.414514,0.0205 0.828675,0.0416 1.243189,0.0624 0.02716,0.001 0.05468,0.002 0.08184,0.005 0.03916,0.003 0.05715,0.0261 0.05574,0.0649 -0.0011,0.0349 -0.0092,0.066 -0.04939,0.0734 -0.02117,0.004 -0.04339,0.004 -0.06491,0.006 -0.244475,0.0293 -0.342194,0.11747 -0.403225,0.35807 -0.04198,0.16545 -0.04445,0.33549 -0.05327,0.50376 -0.04092,0.77999 -0.0755,1.55999 -0.113242,2.33998 -0.0053,0.11465 -0.01623,0.22895 -0.02081,0.3436 -0.0046,0.10901 -0.0081,0.21802 0.0095,0.32667 0.04551,0.28399 0.113595,0.36019 0.3937,0.4251 0.04692,0.0109 0.08255,0.0155 0.07937,0.0769 -0.0035,0.0663 -0.04727,0.0635 -0.09137,0.0614 -0.316089,-0.0145 -0.632531,-0.0303 -0.948972,-0.0434 -0.07197,-0.003 -0.0889,-0.0339 -0.08643,-0.10336 0.006,-0.16264 0.0018,-0.32562 0.0018,-0.50518"
       style="fill:#f9f8f8;fill-opacity:1;fill-rule:nonzero;stroke:none;stroke-width:0.0352778"
       id="path24" />
    <path
       d="m 78.061873,168.50912 c 0.252236,0.17032 0.504825,0.34145 0.757414,0.5122 0.167217,0.11327 0.33408,0.22683 0.502003,0.33902 0.04022,0.0271 0.06809,0.0501 0.03175,0.10375 -0.03387,0.0505 -0.06456,0.0371 -0.109009,0.0165 -0.258233,-0.1192 -0.388761,-0.0934 -0.582083,0.11011 -0.07514,0.0796 -0.138642,0.16852 -0.200025,0.25893 -0.523522,0.77294 -1.047397,1.54588 -1.571272,2.31881 -0.07056,0.10404 -0.138995,0.20948 -0.188736,0.32523 -0.1016,0.23453 -0.07267,0.36615 0.1143,0.54003 0.0081,0.007 0.01623,0.0149 0.0254,0.0208 0.03951,0.0273 0.04163,0.0569 0.01305,0.095 -0.02752,0.037 -0.05398,0.0462 -0.09525,0.018 -0.270581,-0.18493 -0.541514,-0.36876 -0.813506,-0.55107 -0.0575,-0.0385 -0.04657,-0.0744 -0.01376,-0.1214 0.07232,-0.10265 0.142522,-0.20669 0.211314,-0.31185 0.02258,-0.0349 0.06138,-0.0631 0.05503,-0.12125 -0.113595,0.0183 -0.225072,0.0405 -0.337961,0.0543 -0.738364,0.0913 -1.331031,-0.17861 -1.776236,-0.75847 -0.303389,-0.39511 -0.320322,-0.846 -0.158397,-1.3075 0.05997,-0.17103 0.150988,-0.32632 0.252588,-0.47625 0.398639,-0.58692 0.796925,-1.17464 1.195211,-1.76209 0.07655,-0.11314 0.1524,-0.22684 0.207434,-0.35235 0.105128,-0.23993 0.07937,-0.36023 -0.113947,-0.53774 -0.01199,-0.0109 -0.0254,-0.0208 -0.0381,-0.031 -0.04375,-0.0356 -0.01587,-0.0656 0.0067,-0.0973 0.0254,-0.0357 0.05221,-0.0301 0.0829,-0.007 0.02646,0.019 0.05468,0.0362 0.08185,0.0547 0.366183,0.2479 0.732013,0.49593 1.098197,0.74397 0.02716,0.0183 0.05327,0.0384 0.08114,0.0554 0.03881,0.024 0.05327,0.0496 0.02187,0.092 -0.0254,0.0349 -0.04551,0.0486 -0.09349,0.0289 -0.335845,-0.13945 -0.443089,-0.11077 -0.671336,0.1724 -0.04127,0.0509 -0.08008,0.10379 -0.11677,0.15808 -0.432153,0.63719 -0.8636,1.27466 -1.2954,1.91216 -0.08643,0.1269 -0.159455,0.26099 -0.204611,0.40803 -0.123119,0.40047 -0.04727,0.75752 0.248003,1.05738 0.467783,0.47554 1.088672,0.55989 1.677811,0.33761 0.05362,-0.0201 0.09102,-0.0544 0.123119,-0.10171 0.516114,-0.76479 1.033639,-1.52852 1.550106,-2.29334 0.05186,-0.0769 0.09384,-0.15942 0.129822,-0.24553 0.07796,-0.18729 0.05609,-0.35557 -0.102658,-0.48853 -0.08079,-0.0678 -0.05856,-0.11232 0.01552,-0.16866"
       style="fill:#f9f8f8;fill-opacity:1;fill-rule:nonzero;stroke:none;stroke-width:0.0352778"
       id="path26" />
    <path
       d="m 96.059184,175.95658 c -0.105834,0.12622 -0.184856,0.23001 -0.273756,0.32452 -0.477308,0.5063 -1.071033,0.67881 -1.74378,0.56553 -0.468842,-0.0794 -0.792339,-0.36763 -0.993422,-0.79664 -0.132645,-0.28289 -0.157692,-0.58773 -0.195087,-0.89076 -0.08572,-0.69314 -0.172508,-1.38603 -0.259291,-2.07917 -0.01023,-0.0816 -0.03528,-0.15945 -0.0635,-0.23632 -0.06421,-0.17364 -0.187325,-0.26293 -0.372534,-0.26572 -0.02152,-3.9e-4 -0.04374,0 -0.06526,0.003 -0.05397,0.009 -0.08185,-0.012 -0.08643,-0.0681 -0.0056,-0.0642 0.03775,-0.0697 0.08255,-0.0751 0.06526,-0.007 0.130528,-0.0134 0.195439,-0.0211 0.406047,-0.0495 0.812094,-0.10033 1.218847,-0.14609 0.04974,-0.006 0.125589,-0.0502 0.147461,0.0444 0.02364,0.10336 -0.06526,0.078 -0.114653,0.092 -0.213077,0.0611 -0.305858,0.17501 -0.323497,0.39839 -0.01658,0.20878 0.01834,0.41413 0.04269,0.61987 0.08185,0.6882 0.167923,1.37583 0.252942,2.06333 0.02505,0.20284 0.08326,0.39479 0.192264,0.56899 0.180975,0.28857 0.444147,0.44884 0.781403,0.47279 0.668161,0.0476 1.156405,-0.24239 1.487663,-0.81537 0.03704,-0.0641 0.04833,-0.12665 0.03881,-0.20204 -0.08961,-0.71476 -0.175331,-1.42984 -0.262114,-2.14489 -0.02434,-0.20037 -0.04868,-0.40075 -0.07338,-0.60109 -0.01164,-0.0925 -0.03528,-0.18207 -0.06632,-0.26956 -0.06279,-0.17791 -0.184855,-0.27877 -0.375708,-0.29009 -0.01623,-9.5e-4 -0.03281,-0.002 -0.04904,-0.001 -0.04727,0.003 -0.06809,-0.019 -0.07161,-0.0667 -0.0035,-0.0498 0.0194,-0.0666 0.06491,-0.0719 0.119239,-0.0134 0.238125,-0.0303 0.357364,-0.0452 0.362655,-0.0444 0.725664,-0.0878 1.088319,-0.13324 0.04868,-0.006 0.08643,-0.007 0.09454,0.0554 0.0064,0.0466 -0.0099,0.0744 -0.05574,0.0825 -0.127706,0.0226 -0.244475,0.0659 -0.312914,0.18521 -0.07373,0.12845 -0.07937,0.27122 -0.06738,0.41384 0.01552,0.18479 0.03598,0.36929 0.05821,0.55341 0.08396,0.69896 0.167922,1.39774 0.255764,2.09627 0.02575,0.20532 0.03916,0.41272 0.08996,0.61489 0.01764,0.0692 0.03845,0.13656 0.07055,0.19996 0.06773,0.13268 0.173214,0.20778 0.324909,0.21167 0.0381,6.7e-4 0.0762,0 0.1143,0.001 0.04339,6.7e-4 0.05186,0.0303 0.05468,0.0656 0.0028,0.0375 -0.0063,0.0631 -0.04904,0.0685 -0.103011,0.0122 -0.205669,0.026 -0.308328,0.0391 -0.216605,0.0272 -0.433211,0.0533 -0.649463,0.0825 -0.07161,0.009 -0.109362,-0.003 -0.116064,-0.0886 -0.01341,-0.16221 -0.04022,-0.32343 -0.06526,-0.51428"
       style="fill:#f9f8f8;fill-opacity:1;fill-rule:nonzero;stroke:none;stroke-width:0.0352778"
       id="path28" />
    <path
       d="m 71.568998,167.93406 c 0.06526,-0.005 0.08714,-0.0477 0.117475,-0.0751 0.618772,-0.56942 1.236839,-1.13993 1.855259,-1.71002 0.09243,-0.085 0.18168,-0.17388 0.254,-0.27725 0.143933,-0.20493 0.142875,-0.35211 -0.0014,-0.55495 -0.0127,-0.0176 -0.02716,-0.0342 -0.04092,-0.0511 -0.03634,-0.043 -0.0042,-0.068 0.02469,-0.0941 0.03104,-0.0283 0.05786,-0.0205 0.08361,0.008 0.03281,0.0362 0.06703,0.0719 0.100189,0.10788 0.229658,0.24902 0.459316,0.49777 0.688622,0.74676 0.02222,0.024 0.0441,0.0484 0.06667,0.0724 0.02752,0.0293 0.02575,0.0572 -0.0032,0.0847 -0.02928,0.0272 -0.05644,0.0507 -0.09631,0.012 -0.03916,-0.0377 -0.08079,-0.0737 -0.124531,-0.10583 -0.140758,-0.10375 -0.28963,-0.11465 -0.446264,-0.036 -0.128764,0.0645 -0.235655,0.15724 -0.34043,0.25354 -0.799042,0.73657 -1.597731,1.47327 -2.396772,2.20984 -0.08043,0.0741 -0.159456,0.14951 -0.242359,0.22091 -0.02928,0.0249 -0.0515,0.0828 -0.104775,0.0507 -0.04974,-0.0296 -0.07373,-0.0765 -0.06315,-0.13931 0.01517,-0.0914 0.02611,-0.18341 0.03951,-0.2752 0.151342,-1.04207 0.302683,-2.08414 0.454731,-3.12621 0.07091,-0.48592 0.143933,-0.97123 0.215194,-1.45701 0.0063,-0.0427 0.0071,-0.0861 0.01023,-0.13092 -0.06315,-6.7e-4 -0.08749,0.0486 -0.121709,0.0798 -0.739775,0.68005 -1.478491,1.36095 -2.216855,2.04252 -0.05221,0.048 -0.103011,0.0981 -0.148167,0.15268 -0.182033,0.22024 -0.185914,0.40474 -0.02223,0.63997 0.03105,0.0445 0.119239,0.0893 0.0254,0.1553 -0.08114,0.0571 -0.103011,-0.0314 -0.136878,-0.0674 -0.254705,-0.27065 -0.505177,-0.54472 -0.756708,-0.8177 -0.02223,-0.024 -0.04515,-0.0481 -0.0635,-0.0749 -0.0194,-0.0289 0.0014,-0.0504 0.02117,-0.0694 0.01976,-0.0191 0.04127,-0.0384 0.07126,-0.0208 0.01376,0.008 0.02575,0.0197 0.03739,0.0313 0.248356,0.24762 0.454025,0.16909 0.658636,0.0251 0.09349,-0.0656 0.181328,-0.14044 0.265642,-0.21759 0.643467,-0.59132 1.285875,-1.18403 1.928283,-1.77588 0.08008,-0.0742 0.158398,-0.15036 0.225073,-0.23746 0.194027,-0.25301 0.206022,-0.46605 0.04127,-0.74122 -0.01693,-0.0279 -0.03528,-0.055 -0.05327,-0.0825 -0.03104,-0.0477 0.01058,-0.0674 0.03563,-0.0934 0.03316,-0.035 0.05786,-0.0117 0.08079,0.0129 0.237419,0.25661 0.47378,0.51403 0.712258,0.76951 0.03881,0.0416 0.03916,0.0864 0.0314,0.13642 -0.09031,0.59337 -0.180269,1.18678 -0.269875,1.78015 -0.104422,0.69039 -0.208491,1.38081 -0.312561,2.07162 -0.02787,0.18687 -0.05433,0.37384 -0.08255,0.5672"
       style="fill:#f9f8f8;fill-opacity:1;fill-rule:nonzero;stroke:none;stroke-width:0.0352778"
       id="path30" />
    <path
       d="m 108.57221,128.16648 c 0.0667,-0.0296 0.0882,-0.0759 0.11712,-0.11289 0.5133,-0.65229 1.02553,-1.30528 1.53811,-1.95792 0.0808,-0.10336 0.15875,-0.20884 0.21555,-0.32773 0.10513,-0.21907 0.0815,-0.36054 -0.0854,-0.53587 -0.0226,-0.0233 -0.049,-0.0437 -0.0681,-0.0698 -0.0201,-0.0268 -3.5e-4,-0.0504 0.0169,-0.0723 0.018,-0.0233 0.0392,-0.0392 0.0688,-0.0215 0.0233,0.0138 0.0452,0.03 0.0667,0.0466 0.30092,0.23601 0.60149,0.47202 0.9017,0.70802 0.0173,0.0134 0.0342,0.0272 0.0512,0.0413 0.0335,0.0279 0.0243,0.0554 -0.001,0.0825 -0.0222,0.024 -0.042,0.0533 -0.0811,0.0272 -0.0363,-0.0243 -0.0723,-0.049 -0.11007,-0.0709 -0.18133,-0.10583 -0.35278,-0.0899 -0.51611,0.0406 -0.10337,0.0825 -0.18662,0.18345 -0.26776,0.28646 -0.70132,0.89323 -1.40264,1.78647 -2.10432,2.6797 -0.0568,0.0727 -0.1143,0.14464 -0.16863,0.21343 -0.11183,-0.03 -0.11994,-0.10477 -0.121,-0.19367 -0.0102,-0.83538 -0.0236,-1.67111 -0.0363,-2.50649 -0.012,-0.78634 -0.0243,-1.57268 -0.0377,-2.35903 -3.6e-4,-0.0367 0.009,-0.0755 -0.012,-0.11324 -0.0508,-0.012 -0.0617,0.0353 -0.0825,0.061 -0.63817,0.81104 -1.27529,1.62278 -1.91205,2.43488 -0.0335,0.043 -0.0649,0.0882 -0.0928,0.13476 -0.14711,0.24518 -0.12489,0.43356 0.0737,0.6357 0.0229,0.0233 0.0473,0.0452 0.0713,0.0674 0.0265,0.025 0.0141,0.0487 -0.004,0.0706 -0.0205,0.0243 -0.0392,0.0568 -0.0794,0.0349 -0.0191,-0.0106 -0.0356,-0.025 -0.0529,-0.0388 -0.31327,-0.24589 -0.62689,-0.49177 -0.9398,-0.73872 -0.0265,-0.0212 -0.0751,-0.0353 -0.0448,-0.0871 0.0275,-0.0469 0.0533,-0.0705 0.11607,-0.0356 0.31044,0.17181 0.44167,0.1524 0.68897,-0.0988 0.0727,-0.0737 0.1397,-0.15346 0.20355,-0.23495 0.53729,-0.68192 1.07315,-1.36525 1.60902,-2.04823 0.0776,-0.0988 0.15135,-0.20003 0.2092,-0.31221 0.12771,-0.24589 0.0984,-0.47307 -0.0776,-0.68404 -0.0208,-0.025 -0.0413,-0.0515 -0.0656,-0.073 -0.0423,-0.0367 -0.0399,-0.0695 -0.004,-0.11007 0.0346,-0.0399 0.0642,-0.03 0.0977,-0.002 0.0251,0.0208 0.0519,0.0402 0.0776,0.0603 0.22331,0.17533 0.44309,0.35525 0.67134,0.52388 0.0885,0.0656 0.11924,0.13652 0.12029,0.24518 0.0106,1.35995 0.0265,2.71991 0.0413,4.07952 0.001,0.10689 0.006,0.21343 0.009,0.33126"
       style="fill:#f9f8f8;fill-opacity:1;fill-rule:nonzero;stroke:none;stroke-width:0.0352778"
       id="path32" />
    <path
       d="m 112.83624,160.09286 c 0.18309,0.12309 0.37218,0.25055 0.56162,0.37815 0.0226,0.0155 0.0466,0.0335 0.0353,0.0649 -0.0148,0.0406 -0.0487,0.0375 -0.0815,0.0269 -0.0519,-0.0163 -0.10265,-0.0371 -0.15557,-0.0505 -0.18486,-0.0463 -0.34678,-0.0117 -0.47166,0.14207 -0.0413,0.0509 -0.084,0.10061 -0.12065,0.1549 -0.25153,0.37014 -0.50024,0.74235 -0.75354,1.11097 -0.0466,0.0681 -0.0487,0.10403 0.0261,0.15339 0.48648,0.32314 0.97049,0.64988 1.45344,0.97797 0.0621,0.0423 0.097,0.0448 0.14252,-0.0244 0.22508,-0.34188 0.45791,-0.67867 0.68263,-1.02059 0.15028,-0.22902 0.13864,-0.33443 -0.0388,-0.54183 -0.0109,-0.0124 -0.0215,-0.0247 -0.0339,-0.0357 -0.0441,-0.0384 -0.0289,-0.0748 7e-4,-0.11356 0.0346,-0.0455 0.0656,-0.0205 0.0977,0.001 0.20391,0.13684 0.40746,0.27369 0.61137,0.41092 0.0635,0.0427 0.12664,0.0853 0.18979,0.12802 0.0286,0.0194 0.0526,0.0409 0.0254,0.0787 -0.0212,0.03 -0.0349,0.0717 -0.0857,0.0568 -0.0314,-0.009 -0.0628,-0.0179 -0.0938,-0.0285 -0.18944,-0.066 -0.34255,-0.018 -0.45861,0.14636 -0.0632,0.0889 -0.127,0.17749 -0.18839,0.26776 -0.1718,0.25259 -0.3429,0.50585 -0.51258,0.75999 -0.0635,0.0948 -0.0628,0.098 0.0335,0.16327 0.42051,0.28402 0.84067,0.56875 1.26365,0.84945 0.19121,0.12661 0.29563,0.10802 0.42686,-0.0825 0.21378,-0.30967 0.41981,-0.62509 0.62795,-0.93874 0.0272,-0.0409 0.0476,-0.086 0.0716,-0.12869 0.11148,-0.20148 0.11501,-0.4057 0.0148,-0.61172 -0.0332,-0.0685 -0.0667,-0.13794 -0.1076,-0.2019 -0.0427,-0.067 -0.0413,-0.11987 0.0339,-0.17321 0.0384,0.011 0.0607,0.0502 0.0882,0.0802 0.14464,0.15625 0.2861,0.3157 0.43251,0.47018 0.0522,0.0554 0.0653,0.0959 0.0169,0.16687 -0.57891,0.85344 -1.15429,1.70988 -1.73108,2.56469 -0.0279,0.0416 -0.0494,0.10898 -0.12171,0.0522 -0.0272,-0.0215 -0.0497,-0.0434 -0.0251,-0.0814 0.0148,-0.023 0.0286,-0.047 0.0406,-0.0712 0.0868,-0.18108 0.0677,-0.31475 -0.0688,-0.46538 -0.096,-0.10622 -0.21202,-0.18768 -0.3302,-0.26706 -0.49777,-0.33556 -0.99554,-0.67094 -1.49331,-1.00651 -0.28504,-0.19184 -0.57044,-0.38378 -0.85584,-0.57573 -0.0995,-0.067 -0.20108,-0.1312 -0.31185,-0.17847 -0.22649,-0.0966 -0.36301,-0.066 -0.52564,0.11575 -0.0145,0.0161 -0.0261,0.0349 -0.0409,0.0507 -0.0325,0.0359 -0.0589,0.006 -0.0843,-0.0105 -0.0222,-0.0145 -0.0455,-0.0325 -0.0265,-0.0651 0.0138,-0.0236 0.0286,-0.0464 0.0438,-0.069 0.57326,-0.85136 1.14653,-1.70215 1.72014,-2.55267 0.018,-0.0269 0.031,-0.0586 0.0766,-0.0773"
       style="fill:#f9f8f8;fill-opacity:1;fill-rule:nonzero;stroke:none;stroke-width:0.0352778"
       id="path34" />
    <path
       d="m 97.707009,119.27224 c 0.0035,-0.24024 -0.05997,-0.33796 -0.271992,-0.43074 -0.0099,-0.004 -0.02046,-0.007 -0.03069,-0.0106 -0.04798,-0.0148 -0.07444,-0.0406 -0.0575,-0.096 0.01834,-0.0607 0.05539,-0.0508 0.102305,-0.0381 0.310445,0.0847 0.621595,0.16651 0.932039,0.25083 0.673453,0.18238 1.346906,0.36548 2.020359,0.54857 0.0314,0.008 0.0624,0.0197 0.0942,0.0268 0.0497,0.0113 0.0557,0.0392 0.043,0.0847 -0.0557,0.19931 -0.1076,0.40005 -0.16334,0.59972 -0.008,0.0279 -0.0141,0.0702 -0.061,0.0582 -0.037,-0.01 -0.0452,-0.0399 -0.0444,-0.0762 7e-4,-0.06 -0.002,-0.11995 -0.005,-0.17992 -0.01,-0.17568 -0.0977,-0.29775 -0.25824,-0.36583 -0.07514,-0.0314 -0.152392,-0.06 -0.231061,-0.0819 -0.420159,-0.11606 -0.841375,-0.23001 -1.262239,-0.34395 -0.115358,-0.0311 -0.118533,-0.0296 -0.148167,0.0797 -0.152047,0.55775 -0.301272,1.11619 -0.454377,1.67358 -0.02222,0.0808 -0.006,0.11501 0.07973,0.13723 0.390525,0.10125 0.778228,0.21343 1.168753,0.31433 0.272697,0.0709 0.365478,0.0261 0.510469,-0.22049 0.0085,-0.0138 0.01693,-0.0279 0.02328,-0.043 0.02046,-0.049 0.05539,-0.0392 0.09525,-0.0289 0.05362,0.0134 0.05115,0.0498 0.04092,0.0882 -0.08431,0.3108 -0.169333,0.62089 -0.254,0.93133 -0.0088,0.0328 -0.01729,0.0677 -0.06174,0.0579 -0.03598,-0.008 -0.07761,-0.0152 -0.0829,-0.0646 -0.0056,-0.0596 -0.01094,-0.11924 -0.01517,-0.17921 -0.0095,-0.13406 -0.08043,-0.22437 -0.202142,-0.27305 -0.08572,-0.0346 -0.173214,-0.0663 -0.262467,-0.0907 -0.341488,-0.0942 -0.684741,-0.18238 -1.025877,-0.27834 -0.07479,-0.0212 -0.105481,-0.0113 -0.126295,0.0677 -0.133703,0.50623 -0.274461,1.01035 -0.407811,1.51659 -0.04833,0.18344 0.0028,0.28575 0.18662,0.33866 0.42933,0.12383 0.856897,0.25647 1.297869,0.33479 0.188736,0.0335 0.358775,-0.0169 0.503061,-0.14111 0.07832,-0.0674 0.148519,-0.14429 0.219428,-0.21978 0.03175,-0.0335 0.06033,-0.0617 0.11183,-0.0473 0.04375,0.0123 0.06915,0.0303 0.04127,0.0801 -0.121355,0.21978 -0.242711,0.43956 -0.362655,0.66004 -0.03281,0.0607 -0.07937,0.0416 -0.127,0.0289 -0.26282,-0.0716 -0.525992,-0.14323 -0.788811,-0.21449 -0.721078,-0.19579 -1.441803,-0.39123 -2.162528,-0.58667 -0.03175,-0.008 -0.06315,-0.0173 -0.09454,-0.0265 -0.04127,-0.0127 -0.0441,-0.0395 -0.03069,-0.0762 0.01164,-0.0317 0.02011,-0.0642 0.06456,-0.0561 0.02646,0.005 0.05256,0.0145 0.07973,0.018 0.199672,0.0265 0.319264,-0.0332 0.420511,-0.21026 0.0575,-0.10019 0.09596,-0.20849 0.125942,-0.31891 0.262114,-0.96273 0.522816,-1.92617 0.782108,-2.88996 0.02822,-0.10477 0.05327,-0.21202 0.04974,-0.30727"
       style="fill:#f9f8f8;fill-opacity:1;fill-rule:nonzero;stroke:none;stroke-width:0.0352778"
       id="path36" />
    <path
       d="m 102.63002,122.97324 c -0.0384,0.0755 -0.0691,0.13264 -0.0977,0.1912 -0.19614,0.40217 -0.39229,0.80398 -0.58843,1.20615 -0.024,0.049 -0.0501,0.0974 -0.0677,0.14887 -0.0448,0.13053 -0.0148,0.21766 0.0981,0.29845 0.0176,0.0127 0.036,0.0251 0.0554,0.0346 0.36725,0.17992 0.73131,0.36654 1.10632,0.53129 0.26599,0.11677 0.50976,0.0815 0.73871,-0.0896 0.0441,-0.0325 0.0903,-0.0621 0.13088,-0.0984 0.0646,-0.0568 0.11571,-0.0395 0.17251,0.0247 -0.16792,0.20285 -0.3369,0.40252 -0.50024,0.60678 -0.0554,0.0695 -0.10124,0.0332 -0.15451,0.007 -0.55387,-0.27058 -1.10808,-0.54045 -1.66194,-0.81068 -0.35313,-0.1718 -0.70591,-0.34431 -1.05869,-0.51647 -0.0342,-0.0169 -0.0674,-0.0363 -0.10195,-0.0522 -0.0448,-0.0205 -0.0275,-0.0511 -0.0148,-0.0808 0.0138,-0.0314 0.031,-0.0586 0.0734,-0.0416 0.0303,0.0123 0.0607,0.025 0.0917,0.0349 0.16828,0.0536 0.31115,0.0176 0.42687,-0.11924 0.0783,-0.0924 0.14111,-0.19473 0.19367,-0.30268 0.4385,-0.89676 0.8763,-1.79387 1.31374,-2.69134 0.043,-0.0885 0.079,-0.17956 0.10337,-0.27517 0.0596,-0.23424 0.0155,-0.35454 -0.1838,-0.49001 -0.018,-0.0123 -0.037,-0.0229 -0.0557,-0.0342 -0.0399,-0.024 -0.0236,-0.0533 -0.009,-0.0836 0.0159,-0.0318 0.0332,-0.0568 0.0744,-0.0356 0.0339,0.0173 0.0691,0.0324 0.10336,0.0494 0.88724,0.43322 1.77412,0.86643 2.66136,1.29999 0.0342,0.0166 0.0688,0.0332 0.10336,0.0494 0.043,0.0205 0.0497,0.0469 0.0275,0.0914 -0.0931,0.18521 -0.18239,0.37253 -0.27376,0.55845 -0.0138,0.0282 -0.0264,0.066 -0.0699,0.048 -0.0388,-0.0162 -0.0324,-0.0522 -0.0268,-0.0847 0.007,-0.043 0.0176,-0.0854 0.0243,-0.12877 0.0317,-0.20355 -0.0318,-0.36583 -0.21166,-0.47519 -0.0653,-0.0395 -0.13088,-0.0794 -0.19932,-0.11324 -0.38665,-0.19015 -0.774,-0.37853 -1.16135,-0.56727 -0.0335,-0.0162 -0.0649,-0.0406 -0.11465,-0.0321 -0.0416,0.0829 -0.0861,0.17004 -0.12912,0.25788 -0.2226,0.45579 -0.4452,0.91158 -0.66675,1.36807 -0.0547,0.11289 -0.054,0.11536 0.0557,0.16898 0.35278,0.17287 0.70591,0.34467 1.05939,0.51612 0.0438,0.0212 0.09,0.0384 0.13582,0.0557 0.13265,0.0494 0.2466,0.0152 0.34432,-0.0819 0.0384,-0.0381 0.0734,-0.0804 0.10795,-0.12276 0.031,-0.0381 0.0642,-0.0311 0.10124,-0.0113 0.0455,0.024 0.0413,0.0575 0.0215,0.0956 -0.005,0.01 -0.0102,0.0194 -0.0148,0.0289 -0.13194,0.26987 -0.26353,0.53939 -0.39582,0.80856 -0.018,0.0363 -0.0258,0.0893 -0.0896,0.0699 -0.0667,-0.0205 -0.0783,-0.061 -0.0607,-0.12594 0.0141,-0.0519 0.013,-0.10795 0.0162,-0.16228 0.007,-0.10759 -0.0395,-0.19085 -0.12276,-0.254 -0.0388,-0.0296 -0.0794,-0.0589 -0.12277,-0.0808 -0.39053,-0.19473 -0.78176,-0.3877 -1.1871,-0.58843"
       style="fill:#f9f8f8;fill-opacity:1;fill-rule:nonzero;stroke:none;stroke-width:0.0352778"
       id="path38" />
    <path
       d="m 77.947573,124.08519 c 0.04657,0.0868 0.09525,0.17745 0.144639,0.26811 0.197556,0.36442 0.395111,0.72884 0.593372,1.09326 0.02611,0.0476 0.05151,0.0967 0.08396,0.14005 0.08008,0.10725 0.159809,0.12983 0.286456,0.0871 0.0053,-0.001 0.01023,-0.004 0.01517,-0.006 0.411339,-0.21343 0.82797,-0.41769 1.213556,-0.67733 0.199319,-0.13441 0.263525,-0.33938 0.268816,-0.56798 0.0018,-0.0709 -0.0035,-0.14181 -0.0067,-0.21272 -0.0025,-0.055 0.03528,-0.0797 0.07832,-0.0903 0.05644,-0.0138 0.0568,0.0384 0.06562,0.072 0.05786,0.2159 0.109008,0.43392 0.172861,0.6477 0.02646,0.0879 -0.0018,0.12524 -0.07444,0.16405 -0.380294,0.20284 -0.758119,0.40992 -1.137003,0.61524 -0.508353,0.27552 -1.016705,0.55104 -1.525411,0.82656 -0.02858,0.0155 -0.05856,0.0293 -0.08608,0.0466 -0.03351,0.0212 -0.06103,0.0208 -0.08184,-0.0152 -0.0194,-0.0335 -0.04022,-0.0684 0.0053,-0.0991 0.02716,-0.0183 0.05433,-0.0367 0.08114,-0.0554 0.147461,-0.10407 0.190147,-0.24624 0.147461,-0.41698 -0.02928,-0.11748 -0.07761,-0.22719 -0.135114,-0.33303 -0.473075,-0.87277 -0.946856,-1.74554 -1.420636,-2.61831 -0.05186,-0.096 -0.110067,-0.18874 -0.182386,-0.27094 -0.145345,-0.16615 -0.275167,-0.19932 -0.480837,-0.12488 -0.02046,0.007 -0.04163,0.0152 -0.06033,0.0258 -0.04798,0.0279 -0.06773,-0.004 -0.08819,-0.0384 -0.02752,-0.0459 -0.0032,-0.0702 0.03457,-0.09 0.02434,-0.0127 0.04798,-0.0261 0.07197,-0.0392 0.877711,-0.47554 1.755069,-0.95144 2.63278,-1.42734 0.02857,-0.0155 0.0575,-0.031 0.08678,-0.0459 0.03563,-0.0187 0.06174,-0.008 0.08043,0.0265 0.104422,0.19191 0.208845,0.38347 0.312914,0.57538 0.01129,0.0205 0.01199,0.0399 -0.0074,0.0582 -0.0254,0.0236 -0.04939,0.0191 -0.07161,-0.002 -0.05503,-0.0529 -0.106539,-0.11007 -0.164747,-0.15911 -0.121709,-0.10301 -0.259998,-0.13511 -0.412045,-0.0755 -0.07585,0.0296 -0.1524,0.0596 -0.224367,0.0981 -0.389466,0.20849 -0.778227,0.41875 -1.166283,0.62971 -0.09984,0.0543 -0.100189,0.0571 -0.04586,0.15769 0.272697,0.50377 0.545747,1.00718 0.819503,1.5106 0.05891,0.10795 0.06138,0.1083 0.169333,0.0501 0.340783,-0.1838 0.681214,-0.36865 1.021645,-0.55315 0.01905,-0.0106 0.03775,-0.0215 0.05644,-0.0328 0.207433,-0.12665 0.249414,-0.22649 0.200025,-0.46461 -0.01199,-0.0568 -0.07267,-0.1263 0.02611,-0.16545 0.104775,-0.0409 0.09984,0.0631 0.125589,0.1083 0.140406,0.24624 0.273403,0.49671 0.407106,0.74718 0.01834,0.0342 0.06279,0.0706 0.01023,0.11395 -0.05362,0.0441 -0.09772,0.0324 -0.139347,-0.0187 -0.02081,-0.0251 -0.04657,-0.0459 -0.0702,-0.0684 -0.1143,-0.11042 -0.24518,-0.13582 -0.390877,-0.0716 -0.07479,0.0328 -0.149225,0.0677 -0.221192,0.10619 -0.302683,0.16263 -0.604661,0.32702 -0.906286,0.49141 -0.03775,0.0205 -0.08079,0.0335 -0.112889,0.0808"
       style="fill:#f9f8f8;fill-opacity:1;fill-rule:nonzero;stroke:none;stroke-width:0.0352778"
       id="path40" />
    <path
       d="m 110.36362,167.02565 c 0.18344,0.19128 0.35489,0.37469 0.53163,0.55245 0.20426,0.20532 0.41099,0.4075 0.62019,0.60745 0.1725,0.1644 0.27763,0.1644 0.44767,-0.005 0.25118,-0.25079 0.49707,-0.50684 0.74401,-0.76165 0.0455,-0.0468 0.0864,-0.0984 0.12806,-0.1488 0.15063,-0.18274 0.18626,-0.38986 0.12665,-0.61532 -0.018,-0.0683 -0.0413,-0.13546 -0.0625,-0.20313 -0.0286,-0.0911 -0.0286,-0.0911 0.0695,-0.17321 0.14217,0.22726 0.28293,0.45367 0.42475,0.67952 0.024,0.038 0.0247,0.069 -0.0102,0.10019 -0.0201,0.0179 -0.0381,0.0387 -0.0572,0.0581 -0.70379,0.71684 -1.40758,1.43372 -2.11172,2.15014 -0.0229,0.0233 -0.0459,0.047 -0.0695,0.0695 -0.0325,0.0307 -0.0586,0.0131 -0.0833,-0.012 -0.024,-0.0239 -0.0462,-0.0482 -0.0155,-0.0828 0.0145,-0.0163 0.0293,-0.0325 0.0423,-0.0498 0.14146,-0.18698 0.14569,-0.31158 0.0169,-0.50836 -0.0571,-0.0871 -0.12559,-0.16506 -0.19967,-0.23784 -0.70909,-0.69631 -1.41782,-1.39238 -2.12725,-2.08841 -0.078,-0.0765 -0.16122,-0.14746 -0.25436,-0.20531 -0.18697,-0.11674 -0.32173,-0.11109 -0.49706,0.0198 -0.0219,0.0161 -0.0416,0.0356 -0.0631,0.0523 -0.0356,0.0278 -0.0596,0.002 -0.0836,-0.0205 -0.0272,-0.0265 -0.0335,-0.0543 -0.005,-0.0844 0.0226,-0.0233 0.0455,-0.0469 0.0684,-0.0701 0.69991,-0.71299 1.39982,-1.42599 2.09973,-2.13857 0.0155,-0.0156 0.0325,-0.0299 0.0459,-0.0469 0.0452,-0.0592 0.0836,-0.047 0.13123,0.001 0.13794,0.14044 0.27976,0.27619 0.4191,0.41452 0.0222,0.0219 0.0561,0.0434 0.0328,0.0819 -0.0293,0.0475 -0.0653,0.0222 -0.0974,0.002 -0.35948,-0.22338 -0.52176,-0.13297 -0.77753,0.12167 -0.31326,0.31228 -0.61912,0.63144 -0.93133,0.94481 -0.0575,0.0574 -0.0695,0.0938 -0.005,0.15695 0.41946,0.40636 0.83644,0.81594 1.25131,1.22685 0.0561,0.0554 0.0907,0.0558 0.14534,-9.5e-4 0.28469,-0.29422 0.57538,-0.58279 0.85831,-0.87877 0.18944,-0.19829 0.19544,-0.30028 0.0568,-0.53911 -0.008,-0.014 -0.0162,-0.0285 -0.0265,-0.0412 -0.0381,-0.0459 -0.0134,-0.0773 0.0215,-0.10982 0.0416,-0.0387 0.0674,-0.0105 0.0956,0.0174 0.17886,0.176 0.35842,0.35168 0.53763,0.52779 0.0504,0.0494 0.10196,0.0987 0.15205,0.14884 0.0236,0.0237 0.0473,0.0491 0.012,0.0818 -0.0265,0.0251 -0.0469,0.0656 -0.0945,0.0416 -0.0441,-0.0219 -0.0878,-0.0441 -0.13123,-0.067 -0.14288,-0.0762 -0.27305,-0.052 -0.3937,0.0489 -0.0374,0.0314 -0.0762,0.0626 -0.11077,0.097 -0.2914,0.29506 -0.58244,0.59062 -0.87242,0.88554"
       style="fill:#f9f8f8;fill-opacity:1;fill-rule:nonzero;stroke:none;stroke-width:0.0352778"
       id="path42" />
    <path
       d="m 89.952248,172.3078 c 0.234244,0.0113 0.468841,0.0226 0.703086,0.0346 0.03281,0.002 0.06562,0.005 0.09737,0.0109 0.04163,0.009 0.0448,0.0413 0.04198,0.0762 -0.0021,0.0285 -0.0099,0.0536 -0.04269,0.0597 -0.01623,0.003 -0.03281,10e-4 -0.04904,0.003 -0.263172,0.0285 -0.365478,0.11494 -0.424392,0.37247 -0.02187,0.0952 -0.03528,0.19378 -0.04092,0.29146 -0.03775,0.68157 -0.07161,1.36317 -0.108656,2.0446 -0.04127,0.76344 -0.08396,1.52661 -0.128058,2.28988 -0.0088,0.15352 -0.04445,0.30208 -0.100542,0.44524 -0.252941,0.64741 -0.934861,0.77819 -1.376186,0.63074 -0.178505,-0.0595 -0.312913,-0.1739 -0.416277,-0.32799 -0.02081,-0.0314 -0.04798,-0.0649 7.05e-4,-0.0963 0.03634,-0.0237 0.06315,-0.0456 0.111831,-0.002 0.315383,0.27767 0.70485,0.22818 0.953911,-0.11754 0.162278,-0.22575 0.215547,-0.48825 0.231422,-0.75738 0.04057,-0.68654 0.07232,-1.37404 0.109714,-2.06086 0.03704,-0.68157 0.07655,-1.36289 0.115005,-2.04445 0.0063,-0.11465 0.0081,-0.22864 -0.01058,-0.34287 -0.04233,-0.26098 -0.121003,-0.34918 -0.37465,-0.40749 -0.01588,-0.004 -0.0321,-0.006 -0.04868,-0.007 -0.0575,-0.005 -0.04939,-0.047 -0.04833,-0.0848 0.0011,-0.0455 0.03351,-0.0515 0.06773,-0.0497 0.163688,0.009 0.327025,0.0201 0.490713,0.0276 0.08149,0.003 0.163689,2.8e-4 0.245534,2.8e-4 0,0.004 0,0.008 0,0.0117"
       style="fill:#f9f8f8;fill-opacity:1;fill-rule:nonzero;stroke:none;stroke-width:0.0352778"
       id="path44" />
    <path
       d="m 68.36754,157.51194 c -0.118886,0.0491 -0.224014,0.0921 -0.328789,0.13617 -0.965553,0.4057 -1.930753,0.81178 -2.896305,1.21776 -0.11042,0.047 -0.220487,0.0952 -0.322087,0.15984 -0.209902,0.13342 -0.253647,0.24405 -0.191205,0.48218 0.0056,0.0212 0.0127,0.042 0.01693,0.0633 0.0095,0.0455 -0.02893,0.0518 -0.05609,0.0663 -0.02893,0.0156 -0.05292,0.007 -0.06915,-0.0201 -0.0081,-0.0141 -0.0127,-0.0301 -0.01905,-0.0452 -0.186267,-0.44235 -0.372886,-0.88473 -0.559505,-1.32708 -0.01693,-0.0402 -0.04198,-0.0762 0.0194,-0.1076 0.06526,-0.0339 0.0829,0.005 0.110067,0.05 0.140758,0.23396 0.249767,0.27834 0.517172,0.222 0.112889,-0.0237 0.220134,-0.0635 0.325614,-0.10806 1.025878,-0.43106 2.051403,-0.86321 3.076928,-1.29536 0.02505,-0.0106 0.04939,-0.023 0.07514,-0.0317 0.04692,-0.0167 0.05539,-0.0474 0.03634,-0.09 -0.13335,-0.29256 -0.228248,-0.6029 -0.402167,-0.87669 -0.166511,-0.26169 -0.394758,-0.38559 -0.709436,-0.30265 -0.01587,0.004 -0.0321,0.007 -0.04833,0.01 -0.04233,0.006 -0.05644,-0.0265 -0.06879,-0.0565 -0.01446,-0.0346 -0.0081,-0.0635 0.0321,-0.078 0.01517,-0.005 0.02928,-0.0145 0.04445,-0.0208 0.25647,-0.10791 0.512587,-0.21621 0.769409,-0.32275 0.0949,-0.0391 0.130175,-0.0174 0.138994,0.0794 0.0018,0.0158 0,0.0328 -0.0028,0.0487 -0.03598,0.19057 0.01058,0.36946 0.08326,0.54225 0.345722,0.82519 0.69215,1.65033 1.042105,2.47372 0.07267,0.17169 0.167569,0.33196 0.331258,0.43779 0.01764,0.0113 0.03351,0.0275 0.04551,0.0448 0.05256,0.0755 0.0441,0.1108 -0.04127,0.14746 -0.260703,0.11176 -0.522464,0.22115 -0.783872,0.33126 -0.01517,0.006 -0.03069,0.0113 -0.04621,0.017 -0.02258,0.009 -0.04233,0.006 -0.05715,-0.0142 -0.01905,-0.0265 -0.01482,-0.05 0.01023,-0.0701 0.0254,-0.0208 0.05115,-0.0413 0.07655,-0.0617 0.2286,-0.18426 0.298097,-0.42305 0.234244,-0.70309 -0.07973,-0.34794 -0.253647,-0.65895 -0.383469,-0.99769"
       style="fill:#f9f8f8;fill-opacity:1;fill-rule:nonzero;stroke:none;stroke-width:0.0352778"
       id="path46" />
    <path
       d="m 67.714196,130.37381 c -0.171098,0.23495 -0.33267,0.45473 -0.491067,0.67663 -0.06985,0.0981 -0.122061,0.20602 -0.159456,0.32138 -0.06632,0.20425 -0.02716,0.38735 0.107598,0.55174 0.02399,0.0296 0.05009,0.0579 0.07655,0.0854 0.04304,0.0441 0.01482,0.078 -0.01411,0.11289 -0.0321,0.0377 -0.05891,0.0102 -0.08361,-0.008 -0.118886,-0.0871 -0.236714,-0.17533 -0.354895,-0.26353 -0.122766,-0.0914 -0.243416,-0.18485 -0.3683,-0.27269 -0.05997,-0.0423 -0.04127,-0.0769 -0.006,-0.11959 0.02187,-0.0268 0.04974,-0.0427 0.08114,-0.0526 0.146756,-0.0462 0.254353,-0.1464 0.348897,-0.26105 0.09031,-0.10936 0.176742,-0.2219 0.261409,-0.33585 0.433916,-0.58208 0.867127,-1.16452 1.29928,-1.74766 0.153106,-0.20637 0.309034,-0.41204 0.320675,-0.68545 7.06e-4,-0.0201 0.01376,-0.0413 0.02575,-0.0586 0.01517,-0.0222 0.03493,-0.0413 0.06032,-0.0706 0.26423,0.19685 0.526344,0.39193 0.788105,0.58773 0.02258,0.0166 0.04127,0.0363 0.02081,0.0674 -0.01799,0.0272 -0.04127,0.03 -0.07055,0.0194 -0.05644,-0.0201 -0.113242,-0.0392 -0.170392,-0.0568 -0.184855,-0.0572 -0.3556,-0.0219 -0.515055,0.0822 -0.110773,0.0723 -0.205317,0.16369 -0.28575,0.26776 -0.166511,0.2159 -0.328789,0.43497 -0.490009,0.64876 0.01482,0.0554 0.05786,0.0727 0.09208,0.0981 0.902053,0.67098 1.804106,1.34196 2.706511,2.01259 0.09208,0.0684 0.185209,0.13477 0.287161,0.18803 0.200378,0.10513 0.357364,0.1203 0.53587,-0.0921 0.03069,-0.0363 0.05644,-0.0653 0.105833,-0.0243 0.03422,0.0286 0.05151,0.0522 0.0194,0.0938 -0.0568,0.073 -0.111125,0.14852 -0.166511,0.22295 -0.225072,0.30198 -0.449792,0.60396 -0.674511,0.90629 -0.02293,0.0307 -0.04586,0.0614 -0.0702,0.0903 -0.02399,0.0286 -0.04974,0.0124 -0.07091,-0.004 -0.02011,-0.0152 -0.05115,-0.0265 -0.04092,-0.0617 0.0046,-0.0152 0.01411,-0.0293 0.02152,-0.0441 0.137583,-0.272 0.119239,-0.393 -0.100189,-0.60749 -0.06597,-0.0646 -0.138289,-0.12418 -0.212372,-0.17921 -0.905934,-0.67486 -1.812925,-1.34867 -2.719917,-2.02247 -0.0254,-0.0191 -0.05221,-0.0367 -0.09419,-0.066"
       style="fill:#f9f8f8;fill-opacity:1;fill-rule:nonzero;stroke:none;stroke-width:0.0352778"
       id="path48" />
    <path
       d="m 110.82188,132.12323 c 0.31467,-0.22401 0.63006,-0.44838 0.94473,-0.6738 0.0402,-0.0286 0.0663,-0.0236 0.0952,0.0148 0.0282,0.0378 0.03,0.067 -0.0102,0.096 -0.0219,0.0159 -0.0416,0.0353 -0.0624,0.0529 -0.57397,0.49882 -0.42898,1.33067 0.0748,1.71661 0.44309,0.33902 1.04281,0.17075 1.23613,-0.35278 0.10972,-0.29809 0.10407,-0.60995 0.0882,-0.92251 -0.018,-0.35384 -0.0649,-0.70661 -0.0205,-1.06257 0.0804,-0.64487 0.67063,-1.16275 1.30951,-1.13947 0.28645,0.0102 0.52599,0.13159 0.73201,0.3235 0.23354,0.21766 0.38277,0.48754 0.47872,0.78916 0.0247,0.078 0.0483,0.15664 0.0801,0.23178 0.0265,0.0628 0.0674,0.11747 0.15029,0.0889 0.0586,-0.0201 0.0808,0.0194 0.0984,0.0589 0.0233,0.0512 -0.0265,0.0656 -0.0543,0.0861 -0.23918,0.17216 -0.47942,0.3429 -0.72002,0.51364 -0.0339,0.024 -0.066,0.0593 -0.10936,0.004 -0.042,-0.0533 -0.0201,-0.0843 0.018,-0.12453 0.0561,-0.0593 0.11078,-0.12101 0.15664,-0.18839 0.40957,-0.60148 -0.0155,-1.29257 -0.45367,-1.47355 -0.2981,-0.12312 -0.63148,-0.009 -0.82797,0.28293 -0.11607,0.17286 -0.15946,0.36865 -0.16969,0.57326 -0.018,0.3616 0.0296,0.72002 0.0511,1.0795 0.0141,0.23601 0.002,0.46884 -0.0427,0.70062 -0.0988,0.51364 -0.41346,0.8389 -0.90523,0.97508 -0.50518,0.14005 -0.95038,0.004 -1.31304,-0.37783 -0.16828,-0.17745 -0.26988,-0.39546 -0.34608,-0.62547 -0.0427,-0.12947 -0.0783,-0.26141 -0.12276,-0.38982 -0.0483,-0.1397 -0.079,-0.15699 -0.22825,-0.15381 -0.0653,0.001 -0.0653,0.001 -0.1277,-0.10337"
       style="fill:#f9f8f8;fill-opacity:1;fill-rule:nonzero;stroke:none;stroke-width:0.0352778"
       id="path50" />
    <path
       d="m 66.511929,147.77651 c 0.0095,0.2128 0.0187,0.42556 0.02752,0.63818 0.0014,0.0328 0.0014,0.0656 0.0025,0.0984 0.0011,0.0385 -0.01411,0.0608 -0.05574,0.0626 -0.04163,0.002 -0.07726,-0.002 -0.08008,-0.0556 -7.06e-4,-0.0163 -0.0039,-0.0325 -0.0071,-0.0485 -0.03881,-0.19346 -0.160514,-0.3029 -0.348897,-0.34586 -0.09137,-0.021 -0.184503,-0.0265 -0.276578,-0.0229 -1.063625,0.0423 -2.12725,0.0836 -3.190522,0.13201 -0.307622,0.0141 -0.405695,0.12199 -0.396522,0.43699 0.01164,0.39825 0.02117,0.79664 0.05468,1.19408 0.02293,0.27298 0.15487,0.45998 0.410281,0.55795 0.08608,0.0332 0.174978,0.0604 0.262819,0.0897 0.03104,0.0105 0.06456,0.0155 0.09313,0.031 0.04163,0.0222 0.03493,0.066 0.02646,0.10157 -0.0085,0.036 -0.04304,0.0264 -0.06809,0.0208 -0.286809,-0.0663 -0.573264,-0.13476 -0.860425,-0.19967 -0.08114,-0.0183 -0.07867,-0.0769 -0.08114,-0.13794 -0.01023,-0.26211 -0.02187,-0.5238 -0.03246,-0.78563 -0.02646,-0.67649 -0.05221,-1.35308 -0.07937,-2.02957 -0.0039,-0.10365 -0.01164,-0.20712 -0.01799,-0.31062 -0.0028,-0.0434 0.0071,-0.0743 0.05962,-0.0766 0.04339,-0.002 0.0755,0.007 0.0829,0.0562 0.0021,0.0161 0.0056,0.0322 0.0081,0.0484 0.03069,0.20768 0.165805,0.31115 0.358069,0.35264 0.16122,0.0349 0.324909,0.0339 0.48895,0.0263 0.638175,-0.0296 1.275997,-0.0573 1.914172,-0.0847 0.316442,-0.0138 0.632531,-0.0257 0.948973,-0.0382 0.09878,-0.004 0.195438,-0.0214 0.289983,-0.0478 0.177447,-0.0496 0.275167,-0.16795 0.293511,-0.3514 0.0028,-0.027 0.0039,-0.0544 0.0039,-0.0817 -3.53e-4,-0.0474 0.02187,-0.0675 0.0695,-0.0695 0.05256,-0.002 0.06421,0.0269 0.06632,0.0703 0.0074,0.15268 0.01799,0.30536 0.02328,0.45804 0.0035,0.10361 7.06e-4,0.2074 7.06e-4,0.31115 0.0032,0 0.0063,-1.4e-4 0.0095,-1.4e-4"
       style="fill:#f9f8f8;fill-opacity:1;fill-rule:nonzero;stroke:none;stroke-width:0.0352778"
       id="path52" />
    <path
       d="m 105.94437,167.76606 c -0.0346,0.0343 -0.0723,0.0664 -0.10372,0.10379 -0.0903,0.10622 -0.12488,0.22476 -0.0875,0.36474 0.0416,0.15698 0.12665,0.28928 0.21943,0.41769 0.49177,0.68199 0.98531,1.36246 1.47814,2.04364 0.0991,0.13698 0.19756,0.27492 0.29845,0.41067 0.0388,0.0522 0.0808,0.10333 0.127,0.14922 0.0949,0.0941 0.20496,0.11674 0.3302,0.0631 0.0759,-0.0328 0.1457,-0.0751 0.21202,-0.12305 0.27023,-0.19473 0.53975,-0.38985 0.80892,-0.58596 0.0797,-0.0579 0.15452,-0.12139 0.21978,-0.19554 0.11501,-0.13117 0.1584,-0.28223 0.13441,-0.45502 -0.019,-0.13589 -0.0547,-0.26705 -0.0974,-0.39687 -0.0123,-0.0377 -0.025,-0.0726 0.0134,-0.10337 0.0374,-0.0296 0.0723,-0.0558 0.0974,0.0127 0.10337,0.28194 0.20462,0.56417 0.31221,0.84417 0.0293,0.0762 -0.0212,0.0963 -0.0639,0.12735 -0.28716,0.20821 -0.57468,0.41603 -0.86219,0.6241 -0.53516,0.38738 -1.06997,0.77473 -1.60514,1.1617 -0.031,0.0226 -0.0621,0.0448 -0.0935,0.0663 -0.0349,0.0244 -0.06,0.009 -0.0825,-0.0204 -0.0219,-0.0283 -0.0356,-0.0554 -0.004,-0.0851 0.012,-0.0113 0.024,-0.0226 0.036,-0.0335 0.16651,-0.14894 0.1771,-0.32812 0.0981,-0.52254 -0.0497,-0.12195 -0.121,-0.23205 -0.1979,-0.33831 -0.56339,-0.77858 -1.12678,-1.55677 -1.69052,-2.33496 -0.0639,-0.0882 -0.13052,-0.17541 -0.21343,-0.24734 -0.16439,-0.14291 -0.2995,-0.15808 -0.49459,-0.0561 -0.0194,0.0102 -0.0381,0.0212 -0.0561,0.0335 -0.0434,0.0296 -0.0674,0.007 -0.0931,-0.0274 -0.0307,-0.0418 -0.0162,-0.0664 0.0205,-0.0925 0.23036,-0.16581 0.46037,-0.33239 0.69003,-0.49887 0.16369,-0.1185 0.32667,-0.2377 0.49107,-0.35486 0.0928,-0.0664 0.0938,-0.0649 0.15804,0.0489"
       style="fill:#f9f8f8;fill-opacity:1;fill-rule:nonzero;stroke:none;stroke-width:0.0352778"
       id="path54" />
    <path
       d="m 120.43472,148.55139 c 0,-0.55852 -3.6e-4,-1.0874 0,-1.61629 3.5e-4,-0.16383 0.001,-0.32752 0.004,-0.49121 0.002,-0.11924 0.004,-0.11924 0.11571,-0.12135 0.21308,-0.004 0.21378,-0.004 0.21166,0.20919 -0.007,0.75326 -0.013,1.50633 -0.0226,2.25958 -7.1e-4,0.0537 0.0335,0.12982 -0.0399,0.15723 -0.072,0.0269 -0.13335,-0.0101 -0.18873,-0.0649 -0.36442,-0.36103 -0.73978,-0.71106 -1.13665,-1.03685 -0.2914,-0.23907 -0.59267,-0.46425 -0.92851,-0.63898 -0.3048,-0.15861 -0.62654,-0.25301 -0.97367,-0.2388 -0.17533,0.007 -0.34713,0.0362 -0.50835,0.10982 -0.30904,0.14097 -0.4692,0.38407 -0.46955,0.72277 -3.5e-4,0.34823 0.15381,0.60717 0.47449,0.75657 0.0892,0.0416 0.18379,0.0694 0.28222,0.0794 0.0568,0.006 0.0741,0.0361 0.0684,0.0881 -0.006,0.0555 -0.0448,0.0529 -0.0843,0.0487 -0.0377,-0.004 -0.0762,-0.007 -0.11324,-0.0161 -0.26423,-0.0657 -0.50024,-0.18545 -0.70097,-0.3708 -0.52317,-0.48317 -0.48613,-1.28489 0.0833,-1.71316 0.37641,-0.28293 0.80045,-0.32068 1.24601,-0.2152 0.26282,0.0621 0.502,0.17992 0.7299,0.32279 0.32032,0.20052 0.60783,0.44345 0.88335,0.70087 0.31926,0.2982 0.61913,0.6157 0.91228,0.93927 0.0353,0.0389 0.0642,0.0859 0.15523,0.1294"
       style="fill:#f9f8f8;fill-opacity:1;fill-rule:nonzero;stroke:none;stroke-width:0.0352778"
       id="path56" />
    <path
       d="m 120.21599,143.89296 c -0.0476,-0.30692 -0.0945,-0.61384 -0.14322,-0.9204 -0.0593,-0.37183 -0.1203,-0.74295 -0.17921,-1.11478 -0.0226,-0.14287 -0.0183,-0.14675 0.12029,-0.16721 0.0325,-0.005 0.0663,-0.004 0.0974,-0.0127 0.0759,-0.0222 0.0931,0.0166 0.10336,0.0815 0.10795,0.69532 0.21837,1.39029 0.32809,2.08491 0.0173,0.10795 0.0307,0.21626 0.0533,0.3228 0.0159,0.0748 -0.0159,0.096 -0.0815,0.10689 -0.0688,0.0116 -0.11359,-0.0265 -0.16227,-0.0603 -0.31362,-0.21872 -0.63006,-0.4325 -0.95497,-0.63323 -0.36724,-0.22684 -0.74119,-0.44062 -1.14336,-0.60008 -0.30727,-0.12135 -0.623,-0.20108 -0.95708,-0.17815 -0.22543,0.0159 -0.44238,0.0656 -0.64276,0.17392 -0.34996,0.18909 -0.50201,0.51717 -0.41557,0.89041 0.0889,0.38453 0.37041,0.62159 0.76411,0.64382 0.0438,0.002 0.0875,0.001 0.13088,0.005 0.0501,0.004 0.0564,0.0441 0.0603,0.0829 0.005,0.0451 -0.0286,0.0533 -0.0621,0.0579 -0.0822,0.0113 -0.16334,-0.005 -0.24448,-0.0155 -0.25364,-0.0335 -0.48542,-0.12453 -0.69109,-0.27658 -0.5842,-0.4318 -0.61207,-1.26929 -0.0554,-1.7466 0.34537,-0.29633 0.75423,-0.37712 1.19556,-0.32385 0.37359,0.0452 0.71579,0.18697 1.04493,0.36195 0.5468,0.29104 1.04246,0.65758 1.52929,1.03681 0.0938,0.073 0.18697,0.14676 0.28046,0.22049 0.008,-0.007 0.0169,-0.013 0.025,-0.0194"
       style="fill:#f9f8f8;fill-opacity:1;fill-rule:nonzero;stroke:none;stroke-width:0.0352778"
       id="path58" />
    <path
       d="m 118.62391,157.67027 c 0.11924,-0.35415 0.23177,-0.68816 0.34396,-1.02263 0.10936,-0.32523 0.21731,-0.65127 0.32737,-0.97649 0.0367,-0.10873 0.0392,-0.10788 0.14923,-0.0735 0.0102,0.003 0.0198,0.009 0.0303,0.012 0.16863,0.0561 0.16863,0.0561 0.11359,0.22021 -0.24024,0.71868 -0.48048,1.43718 -0.72072,2.1554 -0.005,0.0156 -0.0102,0.0314 -0.0176,0.0459 -0.0194,0.0406 -0.008,0.1108 -0.0769,0.10735 -0.0593,-0.003 -0.11394,-0.0269 -0.14569,-0.089 -0.0716,-0.14112 -0.1457,-0.28071 -0.2219,-0.41932 -0.29916,-0.54585 -0.60607,-1.08659 -0.99695,-1.57413 -0.12312,-0.15381 -0.25753,-0.29672 -0.4064,-0.42583 -0.27129,-0.23467 -0.58455,-0.381 -0.9398,-0.4269 -0.46496,-0.0599 -0.89147,0.14922 -0.97437,0.71162 -0.0487,0.33017 0.0917,0.58346 0.35666,0.77322 0.0487,0.0346 0.1023,0.0624 0.15486,0.0918 0.0444,0.0251 0.037,0.0606 0.0236,0.0988 -0.0138,0.0391 -0.0374,0.0423 -0.0759,0.0299 -0.52105,-0.16581 -0.92674,-0.91296 -0.78704,-1.45165 0.14957,-0.57573 0.73166,-0.94008 1.33879,-0.84169 0.3616,0.0588 0.66922,0.22366 0.93874,0.46634 0.23283,0.20958 0.42333,0.45473 0.59549,0.71547 0.34643,0.52528 0.61736,1.09071 0.87489,1.66299 0.0247,0.0546 0.0487,0.10971 0.0741,0.16443 0.004,0.009 0.0138,0.0154 0.0416,0.0457"
       style="fill:#f9f8f8;fill-opacity:1;fill-rule:nonzero;stroke:none;stroke-width:0.0352778"
       id="path60" />
    <path
       d="m 102.29488,170.02356 c -0.0667,0.004 -0.14181,0.0194 -0.2106,0.0547 -0.0494,0.0254 -0.0766,0.017 -0.10302,-0.0332 -0.0321,-0.0614 0.0102,-0.0773 0.0487,-0.097 0.13546,-0.0702 0.27164,-0.13906 0.40746,-0.20877 0.28116,-0.14471 0.56232,-0.28966 0.84349,-0.43437 0.0342,-0.0172 0.0677,-0.036 0.10301,-0.0498 0.0314,-0.0123 0.0497,0.008 0.0639,0.0339 0.0134,0.0244 0.03,0.0484 0.007,0.0741 -0.0102,0.012 -0.0247,0.0211 -0.0384,0.0289 -0.23001,0.12897 -0.27446,0.32233 -0.17498,0.59365 0.0356,0.0966 0.0801,0.19128 0.12735,0.28293 0.42545,0.8297 0.85231,1.65873 1.27882,2.48818 0.0575,0.11147 0.11712,0.22186 0.19615,0.32067 0.15451,0.1929 0.28292,0.23178 0.51505,0.15515 0.0208,-0.007 0.0409,-0.0152 0.0614,-0.0226 0.0459,-0.0154 0.055,0.0237 0.0702,0.0495 0.0152,0.0251 0.0176,0.0522 -0.0123,0.0701 -0.0279,0.017 -0.0568,0.0325 -0.0857,0.0473 -0.40252,0.20712 -0.80469,0.41423 -1.20721,0.62121 -0.0293,0.0149 -0.0586,0.0296 -0.0885,0.0427 -0.0384,0.0167 -0.0593,-0.005 -0.0769,-0.0367 -0.018,-0.0332 -0.0226,-0.0604 0.0134,-0.0836 0.0363,-0.0236 0.0741,-0.0462 0.10795,-0.0733 0.12242,-0.0981 0.16757,-0.22475 0.13441,-0.37828 -0.0275,-0.12912 -0.0769,-0.2497 -0.13688,-0.3664 -0.45155,-0.8781 -0.90276,-1.75591 -1.35466,-2.63316 -0.0579,-0.11191 -0.12277,-0.21954 -0.20814,-0.31228 -0.073,-0.0794 -0.15981,-0.13187 -0.28117,-0.13367"
       style="fill:#f9f8f8;fill-opacity:1;fill-rule:nonzero;stroke:none;stroke-width:0.0352778"
       id="path62" />
    <path
       d="m 69.902123,160.44247 c -0.0095,-0.0882 -0.03316,-0.16644 -0.07655,-0.237 -0.02752,-0.0449 -0.02681,-0.0762 0.02223,-0.10805 0.05715,-0.0367 0.07655,7e-4 0.100542,0.0385 0.262114,0.41522 0.524228,0.83012 0.786342,1.24534 0.02258,0.0364 0.05327,0.0699 -0.0021,0.11038 -0.05927,0.0434 -0.08608,0.01 -0.116769,-0.0335 -0.128764,-0.18136 -0.300214,-0.23209 -0.551392,-0.13162 -0.111831,0.0445 -0.214842,0.10654 -0.316442,0.17047 -0.788458,0.49801 -1.576916,0.99592 -2.365375,1.49394 -0.110772,0.0699 -0.220133,0.1422 -0.313972,0.23467 -0.169333,0.16714 -0.19438,0.29668 -0.100189,0.51565 0.0085,0.0199 0.02117,0.0382 0.02822,0.0586 0.01446,0.041 -0.01658,0.0576 -0.04304,0.0766 -0.03493,0.0251 -0.05962,0.0131 -0.08079,-0.0187 -0.0088,-0.0134 -0.01764,-0.0274 -0.02646,-0.0412 -0.253294,-0.40114 -0.506589,-0.80229 -0.759883,-1.20371 -0.01164,-0.0183 -0.02258,-0.0374 -0.03387,-0.0561 -0.02293,-0.0384 0.0011,-0.0604 0.02928,-0.08 0.02893,-0.0205 0.05786,-0.0319 0.08467,0.003 0.01976,0.0262 0.03845,0.0529 0.05962,0.078 0.114653,0.13656 0.257175,0.17321 0.426508,0.12072 0.121003,-0.0378 0.231775,-0.0956 0.337961,-0.16259 0.835025,-0.52642 1.669698,-1.05354 2.504017,-1.58091 0.106186,-0.0669 0.207786,-0.14068 0.293158,-0.23452 0.06844,-0.0748 0.111125,-0.16098 0.1143,-0.25827"
       style="fill:#f9f8f8;fill-opacity:1;fill-rule:nonzero;stroke:none;stroke-width:0.0352778"
       id="path64" />
    <path
       d="m 66.242759,136.9002 c 0.223309,0 0.446264,0.004 0.669573,-0.002 0.0889,-0.002 0.137936,0.0191 0.164394,0.11219 0.05962,0.20919 0.129822,0.41521 0.200025,0.62088 0.02187,0.0642 0.0092,0.10055 -0.05186,0.13124 -0.204259,0.10195 -0.407106,0.20708 -0.609247,0.31362 -0.05574,0.0293 -0.100895,0.031 -0.142523,-0.0215 -0.01693,-0.0212 -0.0381,-0.0388 -0.05715,-0.0586 -0.296686,-0.30375 -0.593019,-0.60749 -0.889705,-0.91158 -0.02681,-0.0272 -0.05433,-0.0536 -0.07867,-0.0829 -0.03422,-0.0409 -0.0187,-0.0727 0.02822,-0.0836 0.03634,-0.008 0.07585,-0.006 0.113594,-0.006 0.218017,-3.5e-4 0.653344,-0.008 0.653344,-0.012"
       style="fill:#f9f8f8;fill-opacity:1;fill-rule:nonzero;stroke:none;stroke-width:0.0352778"
       id="path66" />
    <path
       d="m 117.13871,136.97992 c 0.0381,3.6e-4 0.0769,3.6e-4 0.1136,0.009 0.0399,0.01 0.0512,0.0392 0.0251,0.0734 -0.0198,0.0261 -0.0438,0.0487 -0.0667,0.072 -0.31009,0.31574 -0.62018,0.63112 -0.93027,0.9465 -0.10302,0.10478 -0.0917,0.10301 -0.21978,0.0367 -0.17922,-0.0928 -0.35807,-0.18662 -0.53905,-0.27587 -0.0744,-0.0367 -0.1076,-0.0755 -0.0755,-0.16475 0.0741,-0.20531 0.1404,-0.4131 0.2039,-0.62194 0.0215,-0.0709 0.0582,-0.0931 0.12912,-0.0917 0.23495,0.003 0.46955,0.001 0.7045,0.001 0,0.005 0.43673,0.0148 0.6551,0.0155"
       style="fill:#f9f8f8;fill-opacity:1;fill-rule:nonzero;stroke:none;stroke-width:0.0352778"
       id="path68" />
    <path
       d="m 111.70523,128.23209 c 0.0473,-0.10089 0.11818,-0.0832 0.19791,-0.0656 0.28963,0.0642 0.55139,0.005 0.78105,-0.18733 0.13652,-0.11465 0.1457,-0.14746 0.0723,-0.30656 -0.007,-0.0148 -0.0145,-0.0293 -0.0212,-0.0441 -0.0783,-0.17392 -0.0437,-0.30268 0.11007,-0.41063 0.13088,-0.0914 0.29915,-0.0773 0.42051,0.0349 0.133,0.12312 0.17992,0.31891 0.11289,0.49601 -0.0208,0.0554 -0.0483,0.11077 -0.0843,0.15769 -0.34925,0.45579 -1.04563,0.66181 -1.58926,0.32561"
       style="fill:#f9f8f8;fill-opacity:1;fill-rule:nonzero;stroke:none;stroke-width:0.0352778"
       id="path70" />
    <path
       d="m 91.298095,168.91866 c -11.761611,-0.0283 -21.353638,-9.58854 -21.339527,-21.41001 0.01411,-11.92043 9.743722,-21.39957 21.44536,-21.37135 11.747502,0.0282 21.357162,9.60614 21.343052,21.40303 0.004,11.7439 -9.5638,21.40659 -21.448885,21.37833 z m 0.05997,-43.19058 c -12.0015,-0.007 -21.787555,9.76136 -21.808722,21.75231 -0.02469,12.05438 9.789584,21.84396 21.798139,21.84756 11.909778,0.007 21.808728,-9.66269 21.808728,-21.80181 0,-12.07551 -9.81781,-21.79454 -21.798145,-21.79806"
       style="fill:#f9f8f8;fill-opacity:1;fill-rule:nonzero;stroke:none;stroke-width:0.0352778"
       id="path72" />
    <path
       d="m 85.52277,122.48675 c -0.300214,-0.34007 -0.478014,-0.73942 -0.577497,-1.17686 -0.113947,-0.502 -0.142875,-1.00436 0.0056,-1.5046 0.216253,-0.72707 0.777523,-1.17722 1.531409,-1.21426 0.402872,-0.0198 0.762352,0.11077 1.072797,0.37042 0.287514,0.2413 0.478719,0.54962 0.610658,0.8964 0.15487,0.40605 0.239184,0.82656 0.238125,1.31869 0.0049,0.25894 -0.04974,0.56162 -0.166864,0.85478 -0.414514,1.03575 -1.872191,1.40899 -2.714272,0.45543 z m 4.272844,1.46227 c -0.02223,-0.0413 -0.04657,-0.0748 -0.1016,-0.043 -0.02822,0.0159 -0.05962,0.0265 -0.08996,0.0392 -0.293864,0.12171 -0.5842,0.11006 -0.873125,-0.019 -0.170744,-0.0762 -0.329494,-0.1718 -0.474486,-0.28822 -0.237772,-0.19156 -0.471311,-0.38876 -0.72143,-0.59584 0.0695,-0.0332 0.11818,-0.0557 0.166863,-0.0794 1.268589,-0.61313 1.751895,-2.153 1.056217,-3.3662 -0.4953,-0.8636 -1.481667,-1.31304 -2.516364,-1.15535 -1.481314,0.22542 -2.206272,1.56563 -2.047169,2.70404 0.161925,1.15817 1.124655,1.92299 2.072216,2.04858 0.251531,0.0335 0.45967,0.11818 0.650523,0.27235 0.178505,0.14393 0.355952,0.28963 0.540808,0.42509 0.480131,0.35243 1.014236,0.49319 1.60655,0.39159 0.244122,-0.042 0.476955,-0.1143 0.68968,-0.24377 0.03387,-0.0205 0.06738,-0.0416 0.04127,-0.09"
       style="fill:#f9f8f8;fill-opacity:1;fill-rule:nonzero;stroke:none;stroke-width:0.0352778"
       id="path74" />
    <path
       d="m 101.62178,174.4668 c -0.0596,0.27379 -0.21801,0.47374 -0.4699,0.59266 -0.18697,0.0885 -0.38523,0.14954 -0.58525,0.20398 -0.15029,0.0409 -0.26741,-0.0106 -0.36019,-0.12817 -0.0787,-0.0995 -0.13053,-0.21441 -0.17216,-0.33267 -0.15416,-0.43628 -0.304796,-0.87407 -0.45508,-1.31187 -0.01411,-0.041 -0.05045,-0.0939 0.02611,-0.11963 0.29845,-0.10086 0.59055,-0.22902 0.90064,-0.21981 0.72531,0.003 1.26224,0.6441 1.11583,1.31551 z m -2.132891,-1.24108 c -0.185561,-0.53869 -0.363008,-1.05311 -0.540102,-1.56781 -0.02293,-0.067 -0.04445,-0.13476 -0.06879,-0.20105 -0.01482,-0.0405 -0.01729,-0.0744 0.0321,-0.0902 0.288925,-0.0936 0.567972,-0.22588 0.883002,-0.21664 0.320321,0.01 0.563391,0.14855 0.732371,0.41878 0.079,0.12594 0.13335,0.2624 0.15698,0.40915 0.0607,0.37606 -0.0691,0.67522 -0.37394,0.89821 -0.0698,0.0511 -0.14605,0.0984 -0.22578,0.13049 -0.191558,0.0766 -0.386997,0.14291 -0.595842,0.21911 z m 2.711801,0.358 c -0.15381,-0.33761 -0.4258,-0.54391 -0.77223,-0.66061 -0.22154,-0.0748 -0.44979,-0.0791 -0.69321,-0.0907 0.0392,-0.0353 0.0783,-0.0705 0.11783,-0.10555 0.13088,-0.1167 0.24906,-0.24472 0.33232,-0.40114 0.0868,-0.16288 0.12982,-0.33472 0.10442,-0.52035 -0.072,-0.52807 -0.4385,-0.8727 -0.9712,-0.91818 -0.31538,-0.0269 -0.619475,0.0226 -0.916867,0.12443 -0.417689,0.14291 -0.835025,0.28649 -1.252361,0.43011 -0.118533,0.0405 -0.237067,0.0807 -0.3556,0.12167 -0.04092,0.0145 -0.06562,0.0359 -0.04339,0.085 0.01729,0.0385 0.03528,0.0688 0.08467,0.0477 0.0099,-0.004 0.02046,-0.008 0.03105,-0.01 0.261761,-0.0469 0.380647,0.0106 0.508352,0.24489 0.05786,0.10541 0.09984,0.21799 0.138995,0.33154 0.305505,0.88622 0.610305,1.77271 0.914047,2.65921 0.03351,0.0981 0.06491,0.1965 0.0822,0.29958 0.04974,0.29739 0.0025,0.40142 -0.262114,0.54363 -0.04516,0.024 -0.0702,0.0395 -0.04727,0.0966 0.0247,0.061 0.06244,0.0472 0.105128,0.0325 0.113594,-0.0395 0.226836,-0.0782 0.340078,-0.11754 0.535872,-0.18479 1.072092,-0.36753 1.606912,-0.55478 0.3249,-0.11328 0.61559,-0.28265 0.82902,-0.56032 0.25647,-0.33334 0.29281,-0.6974 0.11924,-1.07777"
       style="fill:#f9f8f8;fill-opacity:1;fill-rule:nonzero;stroke:none;stroke-width:0.0352778"
       id="path76" />
    <path
       d="m 119.95529,152.70782 c -0.18909,0.12939 -0.40569,0.18549 -0.6283,0.21554 -0.15628,0.0212 -0.31397,0.0391 -0.47307,0.0342 -0.66746,-0.0261 -1.32292,-0.12058 -1.95439,-0.35102 -0.18979,-0.0692 -0.37218,-0.15487 -0.53975,-0.26952 -0.10407,-0.0708 -0.19932,-0.15243 -0.27622,-0.25329 -0.25436,-0.33292 -0.18133,-0.76797 0.16862,-0.99868 0.1577,-0.10375 0.33479,-0.1553 0.51859,-0.18835 0.31432,-0.0568 0.63112,-0.0518 0.94615,-0.0254 0.50059,0.0416 0.99377,0.12831 1.47214,0.28745 0.20214,0.0677 0.39793,0.14954 0.57961,0.26211 0.13018,0.0812 0.25012,0.17501 0.34396,0.29849 0.25118,0.32907 0.1838,0.7542 -0.15734,0.98845 z m 0.37112,-1.19377 c -0.18591,-0.36297 -0.47625,-0.62551 -0.83326,-0.80645 -0.76764,-0.38957 -1.57938,-0.52215 -2.42887,-0.36131 -0.37042,0.0703 -0.70485,0.2275 -0.97508,0.50062 -0.37924,0.3827 -0.4699,0.89645 -0.24659,1.38716 0.0801,0.17568 0.1905,0.33016 0.32526,0.46771 0.22472,0.2297 0.49142,0.39727 0.78564,0.52102 0.48895,0.20616 1.00118,0.29602 1.52999,0.29573 0.0871,0 0.17498,0.005 0.26176,-0.001 0.33479,-0.0247 0.65688,-0.0991 0.95568,-0.25785 0.1457,-0.0773 0.27869,-0.17141 0.39511,-0.28829 0.4064,-0.40664 0.49248,-0.94547 0.23036,-1.45725"
       style="fill:#f9f8f8;fill-opacity:1;fill-rule:nonzero;stroke:none;stroke-width:0.0352778"
       id="path78" />
    <path
       d="m 66.638576,143.67635 c -0.03104,0.18803 -0.04657,0.37959 -0.08467,0.56621 -0.1524,0.74083 -0.79128,0.90946 -1.261886,0.83891 -0.555625,-0.0829 -0.853016,-0.44839 -0.849136,-1.06751 0.01199,-0.1845 0.03881,-0.41099 0.127353,-0.62618 0.02999,-0.073 0.06985,-0.0928 0.149225,-0.0815 0.604661,0.0864 1.210028,0.16933 1.815394,0.24906 0.08079,0.0106 0.118534,0.0317 0.103717,0.121 z m 0.270581,-1.20473 c -0.03492,-0.002 -0.06562,7e-4 -0.07338,0.0441 -0.0028,0.0159 -0.0049,0.0325 -0.0099,0.048 -0.07408,0.23813 -0.189089,0.32385 -0.441325,0.33514 -0.170392,0.008 -0.337255,-0.0226 -0.504472,-0.0452 -0.686153,-0.0921 -1.371953,-0.18591 -2.057753,-0.28257 -0.28575,-0.0402 -0.575028,-0.061 -0.856191,-0.13159 -0.298803,-0.0748 -0.381,-0.17956 -0.40005,-0.48718 -7.06e-4,-0.0109 0.0014,-0.0219 3.52e-4,-0.0328 -0.0032,-0.043 -0.03881,-0.0462 -0.0695,-0.0547 -0.04304,-0.0123 -0.05927,0.0152 -0.06773,0.0494 -0.0067,0.0264 -0.01058,0.0536 -0.01446,0.0804 -0.0321,0.23213 -0.06421,0.46461 -0.09596,0.69674 -0.03281,0.23777 -0.06526,0.47554 -0.09737,0.71331 -0.0049,0.0374 -0.01376,0.0773 0.04127,0.0893 0.05045,0.0113 0.08573,0.002 0.09596,-0.055 0.0042,-0.0215 0.01164,-0.042 0.01693,-0.0632 0.04445,-0.17286 0.156633,-0.26775 0.331258,-0.29562 0.103717,-0.0162 0.206728,-0.0152 0.309739,-0.002 0.227189,0.0289 0.454378,0.0579 0.681214,0.0893 0.231422,0.0317 0.462844,0.066 0.705202,0.10089 -0.05362,0.24306 -0.115358,0.47449 -0.141111,0.71191 -0.0388,0.36018 -0.05221,0.71896 0.08114,1.06609 0.125942,0.32808 0.35807,0.54257 0.696736,0.63606 0.492478,0.13652 0.973667,-0.0289 1.2954,-0.44274 0.191206,-0.24624 0.308328,-0.52811 0.366536,-0.83114 0.115711,-0.59972 0.171803,-1.20897 0.262467,-1.81257 0.0032,-0.0215 0.0042,-0.0434 0.0053,-0.0653 0.0018,-0.042 -0.02258,-0.0568 -0.06033,-0.0593"
       style="fill:#f9f8f8;fill-opacity:1;fill-rule:nonzero;stroke:none;stroke-width:0.0352778"
       id="path80" />
    <path
       d="m 64.822476,153.90617 c -0.0956,-0.42965 -0.18415,-0.82833 -0.279047,-1.25416 0.679097,0.0667 1.342319,0.13162 2.005542,0.19653 0.0021,0.0113 0.0042,0.0223 0.0064,0.0335 -0.569737,0.33665 -1.139825,0.67359 -1.732845,1.02415 z m 2.352322,-0.92315 c -0.01446,-0.0639 -0.03351,-0.12732 -0.04163,-0.19195 -0.0081,-0.0656 -0.03704,-0.0941 -0.10407,-0.0988 -0.113947,-0.007 -0.227894,-0.0226 -0.341842,-0.0349 -0.683683,-0.0719 -1.367366,-0.14471 -2.05105,-0.21636 -0.548216,-0.0575 -1.096786,-0.11105 -1.644649,-0.17169 -0.28187,-0.0314 -0.535517,-0.11854 -0.659342,-0.4093 -0.02081,-0.0486 -0.04339,-0.0878 -0.108303,-0.0638 -0.06985,0.0253 -0.04621,0.078 -0.03669,0.12277 0.04092,0.19223 0.08467,0.38336 0.128059,0.57506 0.02999,0.13296 0.06174,0.26554 0.09102,0.39892 0.0088,0.0416 0.02081,0.0737 0.07338,0.062 0.04233,-0.009 0.06985,-0.0285 0.06421,-0.0776 -0.0028,-0.0271 -0.0039,-0.0547 -0.0032,-0.0818 0.0046,-0.15836 0.0702,-0.24063 0.223661,-0.27933 0.08043,-0.0201 0.162983,-0.0142 0.24518,-0.0219 0.379942,0.0395 0.759884,0.0794 1.139825,0.11755 0.06879,0.007 0.106892,0.0344 0.122061,0.10583 0.09207,0.42651 0.185914,0.8526 0.283634,1.27769 0.01446,0.0629 -0.0078,0.0889 -0.05539,0.11674 -0.371475,0.21869 -0.739774,0.44319 -1.114424,0.65648 -0.219075,0.1246 -0.35172,0.0692 -0.450498,-0.16506 -0.0042,-0.01 -0.0067,-0.0208 -0.0099,-0.031 -0.01446,-0.0469 -0.03634,-0.0776 -0.09419,-0.0593 -0.05786,0.0187 -0.05292,0.054 -0.04127,0.10227 0.04057,0.17004 0.07585,0.34079 0.113947,0.51125 0.06597,0.29806 0.131586,0.59654 0.19932,0.89418 0.01764,0.0784 0.07373,0.10019 0.125588,0.0554 0.04022,-0.0346 0.01058,-0.0715 0.0049,-0.10516 -0.03986,-0.23841 0.04939,-0.41617 0.24765,-0.545 0.06844,-0.0444 0.137584,-0.0885 0.207434,-0.13092 1.125361,-0.68114 2.250722,-1.36165 3.376083,-2.04251 0.151342,-0.0918 0.150989,-0.0918 0.110419,-0.26984"
       style="fill:#f9f8f8;fill-opacity:1;fill-rule:nonzero;stroke:none;stroke-width:0.0352778"
       id="path82" />
    <path
       d="m 87.017842,132.77446 c -0.553508,-0.0116 -1.100314,0.0444 -1.636536,0.18697 -0.242711,0.0646 -0.48013,0.13653 -0.667808,0.3242 -0.103011,0.10337 -0.267406,0.0836 -0.371475,-0.0162 -0.09984,-0.0963 -0.116064,-0.25647 -0.0321,-0.37395 0.08149,-0.11394 0.19685,-0.18838 0.317853,-0.25294 0.271639,-0.1457 0.564797,-0.23213 0.864658,-0.29422 0.742245,-0.15451 1.491897,-0.20143 2.246842,-0.12805 0.310092,0.0303 0.61595,0.0864 0.910872,0.19155 0.1651,0.0589 0.322439,0.13335 0.464256,0.23778 0.365125,0.26952 0.484011,0.65793 0.331611,1.08655 -0.07373,0.20885 -0.193675,0.39053 -0.331611,0.56127 -0.102659,0.12771 -0.217664,0.24448 -0.33267,0.36125 -0.747183,0.7567 -1.157464,1.66652 -1.243894,2.72556 -0.06914,0.84772 0.06456,1.66405 0.357716,2.45815 0.01905,0.0508 0.04304,0.0998 0.04586,0.15628 0.0071,0.13441 -0.06491,0.24659 -0.191206,0.29246 -0.122061,0.0441 -0.256822,3.5e-4 -0.328789,-0.11395 -0.0314,-0.0501 -0.05221,-0.10795 -0.07232,-0.1644 -0.208492,-0.58384 -0.328084,-1.18568 -0.372534,-1.80481 -0.05186,-0.72249 0.02575,-1.42804 0.254706,-2.11525 0.233892,-0.70062 0.619478,-1.30951 1.138767,-1.83374 0.146402,-0.14746 0.2921,-0.29528 0.407811,-0.46884 0.06068,-0.0914 0.114652,-0.18592 0.143227,-0.29281 0.03951,-0.14781 -3.52e-4,-0.26917 -0.119944,-0.36407 -0.0949,-0.0758 -0.202142,-0.12841 -0.315383,-0.17074 -0.310092,-0.11501 -0.633589,-0.16263 -0.960614,-0.18591 -0.168275,-0.012 -0.338314,-0.002 -0.507295,-0.002"
       style="fill:#f9f8f8;fill-opacity:1;fill-rule:nonzero;stroke:none;stroke-width:0.0352778"
       id="path84" />
    <path
       d="m 91.877003,141.29722 c -0.06597,0.0332 -0.117475,0.0342 -0.181327,-0.005 -0.679803,-0.41028 -1.283759,-0.90558 -1.736373,-1.56704 -0.385939,-0.56374 -0.601133,-1.18286 -0.591608,-1.87254 0.006,-0.49707 0.09172,-0.97861 0.316442,-1.42522 0.41663,-0.82691 1.105252,-1.25801 2.017183,-1.32892 0.756003,-0.0589 1.437922,0.15064 2.020006,0.64347 0.507294,0.42933 0.780697,0.98531 0.839963,1.64606 0.08008,0.89606 -0.215547,1.67534 -0.752827,2.37419 -0.515761,0.67064 -1.181453,1.15606 -1.931459,1.53459 z m -9.794874,9.47737 c -0.117123,-0.92177 -0.05574,-1.82989 0.281869,-2.70661 0.130175,-0.33874 0.309739,-0.64919 0.542925,-0.92799 0.08608,-0.10318 0.08819,-0.10431 0.180269,5.7e-4 0.366889,0.41783 0.606073,0.90371 0.752828,1.43676 0.188384,0.6828 0.210609,1.37706 0.138642,2.07765 -0.08714,0.84984 -0.31997,1.65738 -0.699558,2.42259 -0.0695,0.14041 -0.136878,0.2836 -0.235303,0.40817 -0.03457,-0.0212 -0.04692,-0.0519 -0.0628,-0.0805 -0.459316,-0.82229 -0.780344,-1.69443 -0.898877,-2.63067 z m -1.159581,-0.12171 c -0.103717,-0.0113 -0.206728,-0.019 -0.309739,-0.005 -0.447322,0.0613 -0.730955,0.3532 -0.802217,0.8202 -0.0321,0.21167 -0.03986,0.42291 -0.0099,0.63543 0.0099,0.0697 0.01235,0.14069 0.01799,0.21082 -0.01094,0.004 -0.02187,0.009 -0.03281,0.0128 -0.230717,-0.22613 -0.414867,-0.48023 -0.481894,-0.80821 -0.07691,-0.37758 -0.04868,-0.74083 0.159102,-1.07209 0.209903,-0.33489 0.508,-0.53457 0.91687,-0.53277 0.173919,7.1e-4 0.332669,0.0568 0.477661,0.14898 0.261408,0.16644 0.432153,0.40774 0.572205,0.70224 -0.18415,-0.032 -0.341136,-0.0945 -0.507294,-0.11247 z m 3.75038,0.0896 c 0.108656,-0.19113 0.240595,-0.3634 0.417337,-0.49819 0.533752,-0.40679 1.226255,-0.2395 1.501422,0.37444 0.213078,0.47473 0.157691,0.9478 -0.06632,1.40462 -0.09913,0.20189 -0.245887,0.37084 -0.439914,0.54225 0.02469,-0.2709 0.05715,-0.51181 0.02681,-0.75942 -0.07267,-0.59062 -0.480131,-0.98821 -1.184275,-0.9572 -0.09701,0.004 -0.194028,0.0163 -0.287867,0.0247 -0.02293,-0.0609 0.01235,-0.0955 0.03281,-0.13116 z m 5.123745,-2.60036 c -0.235656,-0.12612 -0.475192,-0.2438 -0.717197,-0.35708 -0.03845,-0.018 -0.08326,-0.0266 -0.121356,-0.0747 0.09701,-0.0536 0.202495,-0.0672 0.303389,-0.089 0.502355,-0.10806 1.012825,-0.15723 1.524,-0.19251 0.719314,-0.0497 1.439686,-0.0515 2.160058,-0.0336 0.386997,0.009 0.773289,0.0387 1.152525,0.12594 0.07303,0.0168 0.149931,0.0265 0.21837,0.0801 -0.107598,0.10224 -0.238125,0.15833 -0.363009,0.22267 -0.748947,0.38612 -1.354666,0.9306 -1.812572,1.63823 -0.157692,0.24321 -0.290689,0.49925 -0.4064,0.76493 -0.01834,0.0423 -0.01834,0.0988 -0.0769,0.12594 -0.04939,-0.11532 -0.09772,-0.2293 -0.146756,-0.34325 -0.353483,-0.82229 -0.923925,-1.44544 -1.714147,-1.86764 z m -0.168628,3.86359 c -0.212372,0.16055 -0.422275,0.32466 -0.634647,0.48838 -0.06491,-0.1881 -0.06385,-1.01286 0.01623,-1.87371 0.345016,0.44165 0.770466,0.76521 1.3335,0.93486 -0.265995,0.14715 -0.498475,0.28688 -0.715081,0.45047 z m 4.60375,-1.22344 c 0.05397,0.19199 -0.103011,1.55942 -0.209197,1.81656 -0.362656,-0.3944 -0.758472,-0.74058 -1.229431,-1.00679 0.564092,-0.12954 1.056922,-0.36728 1.438628,-0.80977 z m 5.37845,1.07777 c -0.381353,-1.63501 -0.137936,-3.17415 0.733075,-4.61133 0.0303,-0.05 0.0554,-0.10597 0.11677,-0.14496 0.0522,0.0481 0.0836,0.11106 0.11853,0.17047 0.2607,0.44358 0.41839,0.92523 0.49389,1.43055 0.22225,1.48318 -0.0688,2.86494 -0.84138,4.1476 -0.0279,0.047 -0.0582,0.0925 -0.0885,0.13766 -0.006,0.009 -0.0159,0.0145 -0.0381,0.0339 -0.229662,-0.36834 -0.398642,-0.75364 -0.494245,-1.16389 z m -1.109839,-1.76526 c -0.180975,-0.0275 -0.360186,-0.014 -0.535869,0.0317 -0.335492,0.0879 -0.562328,0.30025 -0.689328,0.62163 -0.08996,0.22793 -0.10795,0.46606 -0.103011,0.70803 0.0018,0.09 3.52e-4,0.17999 3.52e-4,0.29739 -0.105127,-0.10791 -0.176036,-0.20849 -0.237419,-0.31573 -0.236008,-0.40954 -0.316442,-0.84914 -0.20955,-1.3098 0.178153,-0.76923 1.063978,-1.09872 1.674283,-0.62935 0.209198,0.16079 0.33902,0.37606 0.420511,0.64269 -0.117475,-0.0169 -0.218722,-0.031 -0.319969,-0.0466 z m 3.526014,-0.13434 c 0.21837,-0.22313 0.47131,-0.38449 0.78246,-0.44679 0.65052,-0.13021 1.19945,0.29848 1.21391,0.96146 0.01,0.44912 -0.127,0.84765 -0.45473,1.16942 -0.11254,0.11078 -0.22966,0.21523 -0.39335,0.32107 0.0448,-0.1958 0.0938,-0.35705 0.11536,-0.52391 0.0233,-0.17957 0.0314,-0.35843 -0.004,-0.53732 -0.0956,-0.47939 -0.43639,-0.7838 -0.92534,-0.82681 -0.1337,-0.0121 -0.26811,-0.009 -0.40534,6.7e-4 7e-4,-0.066 0.0427,-0.0889 0.0713,-0.11779 z m -3.093508,10.05265 c -0.05715,0.0402 -0.101248,0.0484 -0.160162,0.002 -0.536575,-0.42016 -0.916163,-0.93761 -0.982486,-1.63544 -0.04551,-0.47696 0.176036,-0.78109 0.552803,-0.94192 0.235303,-0.10057 0.484364,-0.12552 0.735542,-0.1422 0.169333,0.009 0.336902,0.0255 0.498475,0.0825 0.443086,0.15667 0.612066,0.53661 0.570796,0.9405 -0.0282,0.27725 -0.13547,0.52709 -0.284694,0.75957 -0.242711,0.37856 -0.566561,0.6762 -0.930274,0.93447 z m -6.820253,0.3066 c -0.123825,-0.0706 -0.228953,-0.16619 -0.338667,-0.25534 -0.228247,-0.18634 -0.455083,-0.37444 -0.638528,-0.60826 -0.166863,-0.21237 -0.294922,-0.44305 -0.349955,-0.71148 -0.05398,-0.26183 -0.01905,-0.51266 0.09701,-0.74828 0.219075,-0.44524 0.56515,-0.73836 1.056216,-0.85026 0.132645,-0.0299 0.262467,-0.0138 0.388762,0.017 0.396875,0.0959 0.719313,0.30617 0.947208,0.64946 0.128411,0.19374 0.184503,0.40252 0.179917,0.68404 -7.06e-4,0.22683 -0.09701,0.47335 -0.235656,0.70626 -0.198261,0.33154 -0.462492,0.60607 -0.75565,0.8534 -0.111831,0.0941 -0.216253,0.199 -0.350661,0.26349 z m -6.621992,-0.0473 c -0.05786,0.0314 -0.103716,0.0412 -0.16263,-0.005 -0.281517,-0.22077 -0.536928,-0.46496 -0.715081,-0.7789 -0.156633,-0.27654 -0.245886,-0.56843 -0.189441,-0.89295 0.05115,-0.2945 0.19685,-0.52945 0.430741,-0.70968 0.263525,-0.2037 0.567267,-0.29644 0.833967,-0.30484 0.678392,2.8e-4 1.219553,0.53263 1.198386,1.11788 -0.0071,0.20148 -0.07655,0.3839 -0.180269,0.55397 -0.105834,0.17417 -0.240948,0.32382 -0.392289,0.45861 -0.249767,0.22282 -0.530225,0.40101 -0.823384,0.56085 z M 108.47767,140.2276 c -0.39794,-1.46897 -1.32327,-2.43276 -2.79294,-2.8501 -0.85161,-0.24165 -1.7145,-0.22754 -2.57952,-0.0653 -0.76517,0.14323 -1.47178,0.43709 -2.14594,0.8188 -0.65652,0.37218 -1.273884,0.80398 -1.883836,1.24671 -0.715786,0.51965 -1.417814,1.05869 -2.163234,1.53635 -0.497416,0.31856 -1.00965,0.60854 -1.563863,0.81845 -0.627592,0.23812 -1.270706,0.35383 -1.942042,0.25082 -0.336197,-0.0515 -0.657931,-0.14922 -0.964142,-0.30409 0.03704,-0.054 0.09102,-0.0706 0.137231,-0.0977 0.597605,-0.35208 1.137355,-0.77506 1.578328,-1.3141 0.733777,-0.89747 1.105252,-1.9117 0.957438,-3.08257 -0.09313,-0.73907 -0.416277,-1.36631 -0.983191,-1.85173 -0.743303,-0.63641 -1.612547,-0.90311 -2.583745,-0.79411 -1.145822,0.12877 -1.981905,0.71614 -2.439458,1.78047 -0.408869,0.95109 -0.436386,1.92829 -0.06279,2.90372 0.282222,0.73695 0.762352,1.33068 1.351139,1.84432 0.22225,0.19403 0.460375,0.36654 0.707672,0.53728 -0.05292,0.0497 -0.113595,0.0596 -0.168981,0.0776 -0.264583,0.0871 -0.5334,0.15769 -0.804333,0.22049 -0.5207,0.121 -1.04775,0.15804 -1.578328,0.10195 -0.633941,-0.0674 -1.240366,-0.24518 -1.824566,-0.49812 -1.093612,-0.47378 -2.069395,-1.12642 -2.92982,-1.94945 -0.619125,-0.59232 -1.288697,-1.11302 -2.048228,-1.51412 -0.990952,-0.52317 -2.035175,-0.77612 -3.158772,-0.61807 -0.865364,0.12206 -1.646766,0.44591 -2.290233,1.0414 -1.209322,1.1183 -1.623131,2.53647 -1.486606,4.14126 0.05539,0.65193 0.253648,1.27141 0.490009,1.87854 0.269522,0.6925 0.5969,1.3589 0.906286,2.03341 0.182739,0.39853 0.321028,0.81111 0.421922,1.23723 0.197203,0.83216 0.264936,1.68105 0.320322,2.53075 0.04868,0.74648 0.07796,1.49434 0.172509,2.23697 0.06738,0.52599 0.167569,1.04538 0.359127,1.54273 0.238478,0.61874 0.594784,1.15217 1.192037,1.46939 0.859013,0.45639 1.761419,0.55563 2.689224,0.22077 0.604309,-0.21802 1.093612,-0.6065 1.523648,-1.07597 0.0381,-0.0421 0.06773,-0.0964 0.130527,-0.12485 0.05045,0.0677 0.09525,0.12869 0.140759,0.18948 0.575028,0.76439 1.320094,1.26502 2.267655,1.43757 1.071386,0.19498 2.131836,0.14566 3.170061,-0.19237 0.921809,-0.30015 1.664053,-0.85302 2.232025,-1.63933 0.335139,-0.46425 0.583142,-0.97261 0.776817,-1.5095 0.01482,-0.0416 0.03175,-0.083 0.04833,-0.12636 0.04269,0.0289 0.04269,0.0635 0.05151,0.0945 0.113947,0.39549 0.271286,0.77268 0.485069,1.12437 0.877359,1.44004 2.15512,2.18376 3.845631,2.20691 0.427567,0.006 0.847725,-0.0584 1.267883,-0.13187 0.907697,-0.15875 1.658409,-0.58664 2.257425,-1.28584 0.167217,-0.19516 0.327025,-0.3955 0.480134,-0.60195 0.0794,-0.1065 0.0811,-0.10611 0.17745,-0.008 0.41592,0.42086 0.8703,0.79555 1.35008,1.14088 0.48754,0.3507 0.9906,0.67977 1.46685,1.04592 0.33408,0.25728 0.65405,0.52959 0.9144,0.8643 0.32208,0.41423 0.47872,0.87397 0.40887,1.40547 -0.0914,0.69688 -0.37113,1.30044 -0.87913,1.78579 -0.64099,0.61281 -1.42169,0.77156 -2.27577,0.65307 -0.59055,-0.0819 -1.13982,-0.29076 -1.670048,-0.55468 -0.04198,-0.0211 -0.09031,-0.0344 -0.127705,-0.0873 0.05927,-0.0484 0.117827,-0.0956 0.175683,-0.14362 0.279047,-0.23082 0.53199,-0.48687 0.7359,-0.7874 0.26035,-0.38393 0.42086,-0.79911 0.40463,-1.27289 -0.0222,-0.64453 -0.381,-1.14184 -0.997302,-1.33354 -0.599722,-0.18658 -1.189214,-0.12869 -1.750131,0.14856 -0.383116,0.1899 -0.621241,0.50877 -0.723194,0.92396 -0.06668,0.27026 -0.05539,0.54253 0.006,0.81209 0.140406,0.61599 0.462845,1.12529 0.919339,1.5554 0.03775,0.0357 0.09384,0.0579 0.105833,0.12485 -0.272344,0.13973 -0.555272,0.25259 -0.845255,0.3496 -0.772936,0.25823 -1.553986,0.47417 -2.373842,0.52257 -0.823736,0.0482 -1.59385,-0.12527 -2.313164,-0.5267 -0.03598,-0.0201 -0.08255,-0.0304 -0.09948,-0.078 0.02258,-0.0551 0.07408,-0.0794 0.114653,-0.11327 0.206022,-0.17184 0.399344,-0.35638 0.576086,-0.55838 0.205669,-0.2358 0.383822,-0.49043 0.508705,-0.77858 0.167217,-0.38559 0.237773,-0.78426 0.124178,-1.19782 -0.192969,-0.70334 -0.673805,-1.12984 -1.344436,-1.36067 -0.469547,-0.16107 -0.92463,-0.11313 -1.358194,0.13025 -0.285398,0.16013 -0.528109,0.36929 -0.716492,0.63705 -0.430742,0.61214 -0.484364,1.25913 -0.163689,1.93505 0.125236,0.26388 0.303742,0.49181 0.507647,0.69963 0.18027,0.18341 0.378531,0.34629 0.576792,0.50973 0.03881,0.0321 0.09913,0.0505 0.100542,0.11603 -0.763764,0.4378 -2.130073,0.83647 -3.484739,0.67483 -0.748242,-0.0889 -1.45027,-0.31253 -2.130778,-0.68863 0.200378,-0.12414 0.373592,-0.23699 0.536222,-0.36501 0.334081,-0.26364 0.6223,-0.56695 0.800453,-0.95928 0.19932,-0.43984 0.218017,-0.88579 0.01693,-1.33173 -0.300213,-0.66464 -1.054452,-1.07954 -1.748013,-0.9941 -0.476603,0.0586 -0.898173,0.2268 -1.24072,0.56759 -0.50165,0.49886 -0.63253,1.24495 -0.343958,1.92694 0.155928,0.36862 0.396522,0.6762 0.685447,0.94933 0.04092,0.0387 0.09596,0.0677 0.116064,0.12978 -0.0254,0.0134 -0.04375,0.0258 -0.06421,0.0331 -1.166988,0.43036 -2.355497,0.76483 -3.609269,0.80755 -0.388761,0.0131 -0.775053,-0.0138 -1.152525,-0.11466 -0.867833,-0.23138 -1.396294,-0.79445 -1.60655,-1.66084 -0.06138,-0.25298 -0.06103,-0.51015 0.0028,-0.76313 0.195439,-0.77297 0.684742,-1.28545 1.432631,-1.52922 0.62865,-0.20507 1.196269,-0.0599 1.674636,0.4046 0.08643,0.0839 0.164747,0.17459 0.235303,0.27228 0.04974,0.0692 0.112183,0.12005 0.198614,0.13229 0.119238,0.017 0.216605,-0.0236 0.283986,-0.12305 0.07232,-0.1065 0.06844,-0.21689 -0.0039,-0.32177 -0.146755,-0.21304 -0.325261,-0.39687 -0.531989,-0.55203 -0.523169,-0.39345 -1.105253,-0.55989 -1.755775,-0.44167 -0.439914,0.0801 -0.826205,0.28042 -1.168047,0.56225 -0.564092,0.46578 -0.916164,1.05735 -0.970492,1.79324 -0.08572,1.16029 0.624064,2.24826 1.709914,2.66457 0.4445,0.17032 0.907345,0.23565 1.378656,0.24899 0.492478,0.0141 0.981075,-0.0367 1.466144,-0.12097 0.992717,-0.17184 1.957211,-0.44277 2.886075,-0.83358 0.117475,-0.0497 0.202142,-0.0515 0.314678,0.0161 0.847372,0.50835 1.766358,0.80077 2.752019,0.87065 0.729192,0.0515 1.450622,-0.0176 2.158647,-0.20535 0.571148,-0.15131 1.126773,-0.34491 1.633362,-0.65786 0.04727,-0.0292 0.08572,-0.0346 0.132997,-0.003 0.06315,0.0426 0.129469,0.0814 0.195439,0.11987 0.756708,0.44207 1.570566,0.66986 2.450394,0.65966 0.571147,-0.007 1.1303,-0.0945 1.682044,-0.23424 0.746831,-0.18934 1.485195,-0.40707 2.16147,-0.78769 0.132997,-0.0748 0.227542,-0.0649 0.353836,0.005 0.713317,0.39258 1.462268,0.68612 2.280358,0.76659 0.85902,0.0846 1.65312,-0.09 2.34315,-0.62936 0.63042,-0.49279 1.01318,-1.1461 1.2058,-1.91808 0.22295,-0.89105 0.0512,-1.68589 -0.56127,-2.38016 -0.25788,-0.29213 -0.54857,-0.5479 -0.85549,-0.7856 -0.514,-0.39797 -1.0601,-0.75188 -1.58538,-1.13429 -0.45579,-0.33154 -0.89041,-0.68749 -1.27812,-1.09812 -0.1277,-0.13547 -0.11042,-0.11646 -0.024,-0.24268 0.36337,-0.53096 0.63924,-1.10465 0.83503,-1.71665 0.0949,-0.29669 0.17215,-0.59764 0.22295,-0.90495 0.0247,-0.15088 0.0286,-0.1506 0.17992,-0.18549 0.16616,-0.0384 0.33443,-0.0508 0.50412,-0.0367 0.32844,0.0272 0.508,0.21167 0.52141,0.5376 0.005,0.11465 -0.003,0.22817 -0.0236,0.34216 -0.0603,0.33101 -0.18591,0.63789 -0.3235,0.9416 -0.0621,0.13684 -0.0497,0.23607 0.0356,0.3157 0.0917,0.0864 0.19544,0.0832 0.30375,0.0342 0.43673,-0.19815 0.83467,-0.45325 1.1631,-0.8067 0.44697,-0.48009 0.60466,-1.0542 0.51682,-1.69333 -0.0995,-0.72125 -0.70167,-1.23529 -1.4291,-1.23638 -0.40675,-6.7e-4 -0.77011,0.13561 -1.09714,0.37303 -0.0744,0.054 -0.14534,0.11275 -0.22295,0.17335 -0.0381,-0.08 -0.0275,-0.15776 -0.03,-0.23234 -0.0106,-0.35606 -0.0596,-0.70693 -0.14005,-1.05336 -0.14006,-0.60205 -0.36936,-1.16445 -0.75318,-1.65583 -0.19826,-0.25365 -0.46003,-0.26388 -0.68333,-0.0289 -0.10231,0.10689 -0.18698,0.22762 -0.266355,0.35222 -0.390878,0.61362 -0.666045,1.2755 -0.820561,1.98684 -0.02963,0.13642 -0.05786,0.27312 -0.08643,0.40831 -0.05715,-0.006 -0.07549,-0.0434 -0.100894,-0.0699 -0.770114,-0.80053 -2.132895,-0.5212 -2.544586,0.54183 -0.148873,0.38502 -0.153459,0.77942 -0.07444,1.17658 0.14217,0.71339 0.573617,1.22312 1.158523,1.62207 0.01764,0.012 0.03669,0.0237 0.0568,0.0318 0.186267,0.0751 0.363714,-0.0572 0.344664,-0.25685 -0.0032,-0.0321 -0.01411,-0.0635 -0.02117,-0.0956 -0.07338,-0.33126 -0.129117,-0.66421 -0.110419,-1.00609 0.0067,-0.121 0.02822,-0.23855 0.07267,-0.35101 0.06914,-0.17526 0.193675,-0.28289 0.381353,-0.32382 0.210255,-0.0459 0.412397,-0.008 0.614186,0.043 0.132997,0.0332 0.13335,0.0359 0.1397,0.1761 0.04304,0.95166 0.296333,1.83858 0.821266,2.64019 0.04163,0.0638 0.04798,0.10996 7.06e-4,0.17417 -0.226836,0.30801 -0.455083,0.61461 -0.722842,0.88896 -0.356305,0.36562 -0.763058,0.65486 -1.258005,0.79915 -0.632884,0.18479 -1.277409,0.28289 -1.939572,0.24268 -0.954617,-0.0575 -1.778706,-0.40958 -2.454981,-1.09072 -0.708378,-0.713 -1.080205,-1.58863 -1.224492,-2.57076 -0.0025,-0.0149 0.0049,-0.031 0.0092,-0.0515 0.02328,0.005 0.04551,0.006 0.06456,0.0138 0.40005,0.16937 0.771172,0.38488 1.093611,0.6791 0.198261,0.18065 0.380295,0.37634 0.553861,0.58028 0.198967,0.23357 0.45085,0.1983 0.587022,-0.0787 0.07761,-0.15808 0.119239,-0.32812 0.150989,-0.49981 0.15875,-0.8562 0.213078,-1.72202 0.226484,-2.59084 7.05e-4,-0.0437 0,-0.0871 -0.01517,-0.12929 -0.04621,-0.12676 -0.176742,-0.19788 -0.301625,-0.15985 -0.08431,0.0256 -0.132644,0.0897 -0.172155,0.16496 -0.109714,0.20849 -0.244123,0.40072 -0.390878,0.58456 -0.216958,0.27202 -0.491067,0.46316 -0.818092,0.5789 -0.190853,0.0677 -0.388055,0.11579 -0.589491,0.13342 -0.148167,0.0127 -0.297392,0.0525 -0.456848,0.0197 0.09631,-0.40541 0.248356,-0.77749 0.446617,-1.13094 0.427214,-0.76027 1.030817,-1.33462 1.814336,-1.7194 0.162278,-0.0795 0.316089,-0.17307 0.449439,-0.29669 0.08925,-0.0827 0.164394,-0.17691 0.197908,-0.29598 0.06491,-0.22849 -0.03457,-0.43617 -0.271639,-0.57273 -0.182386,-0.10513 -0.383822,-0.15406 -0.587727,-0.19403 -0.517173,-0.1017 -1.042106,-0.11328 -1.565628,-0.11783 -0.873831,-0.007 -1.747308,0.0174 -2.6162,0.12295 -0.400756,0.0486 -0.799747,0.11285 -1.181806,0.25149 -0.139347,0.0504 -0.274108,0.10968 -0.389466,0.2049 -0.22225,0.18383 -0.227895,0.43807 -0.01517,0.635 0.08996,0.0831 0.198967,0.13352 0.308328,0.18288 0.338667,0.15225 0.676628,0.30564 0.99695,0.4947 0.350661,0.20725 0.666397,0.45642 0.917575,0.78094 0.381,0.49265 0.600075,1.06066 0.767644,1.65227 0.0025,0.009 -0.0039,0.0208 -0.0074,0.0374 -0.129117,0.0271 -0.258586,-0.003 -0.386644,-0.0165 -0.5969,-0.0624 -1.099609,-0.30194 -1.466498,-0.79332 -0.140405,-0.18881 -0.269874,-0.38421 -0.382411,-0.5908 -0.05539,-0.10209 -0.141816,-0.14866 -0.257527,-0.13367 -0.110773,0.0144 -0.174625,0.0851 -0.204259,0.18715 -0.01975,0.0681 -0.03563,0.13794 -0.04445,0.20782 -0.09984,0.7764 -0.125236,1.55635 -0.09243,2.33783 0.0039,0.0923 0.01729,0.1852 0.03422,0.27615 0.02046,0.11261 0.04198,0.22617 0.09842,0.32812 0.0949,0.17212 0.279753,0.22119 0.446617,0.11712 0.04127,-0.0257 0.07796,-0.0592 0.115005,-0.0913 0.257881,-0.21982 0.520347,-0.43329 0.795161,-0.63186 0.374297,-0.2709 0.773995,-0.49072 1.225903,-0.60424 0.04022,-0.0103 0.08043,-0.0346 0.128058,-0.006 -0.0011,0.0219 0.0011,0.0434 -0.0035,0.0635 -0.148167,0.61285 -0.350309,1.2047 -0.662517,1.75535 -0.52952,0.93419 -1.294695,1.58366 -2.325864,1.89841 -0.881944,0.26952 -1.783292,0.3073 -2.68993,0.1615 -0.583495,-0.0934 -1.105959,-0.33017 -1.547989,-0.73092 -0.244475,-0.22158 -0.447322,-0.47735 -0.635,-0.74757 -0.05433,-0.0779 -0.05856,-0.13258 -0.0042,-0.21513 0.267759,-0.40749 0.479073,-0.84501 0.649817,-1.30115 0.132644,-0.35278 0.242711,-0.71286 0.314678,-1.08327 0.01905,-0.0995 0.06773,-0.14743 0.1651,-0.16757 0.198966,-0.0409 0.398286,-0.0689 0.601133,-0.0395 0.201436,0.0292 0.342195,0.13589 0.4064,0.33267 0.05327,0.1633 0.06526,0.33087 0.05045,0.50161 -0.02469,0.27877 -0.08431,0.54995 -0.160866,0.81813 -0.01482,0.0522 -0.03387,0.10541 -0.03598,0.15918 -0.0067,0.17349 0.161573,0.29379 0.324556,0.23385 0.04551,-0.0165 0.08819,-0.043 0.129822,-0.0685 0.210961,-0.12841 0.403931,-0.27933 0.583142,-0.44908 0.447322,-0.42404 0.713316,-0.93268 0.728839,-1.55858 0.01058,-0.41271 -0.05927,-0.80892 -0.298803,-1.15354 -0.342195,-0.49252 -0.818797,-0.70143 -1.41605,-0.62357 -0.296333,0.0386 -0.547511,0.17543 -0.773995,0.36463 -0.03351,0.0283 -0.0568,0.0794 -0.118886,0.0733 -0.01235,-0.47554 -0.0508,-0.94272 -0.16263,-1.40105 -0.188384,-0.77446 -0.537633,-1.45934 -1.103489,-2.0314 -0.204258,-0.20673 -0.507647,-0.1898 -0.700617,0.0247 -0.600427,0.66809 -0.93345,1.45316 -1.079852,2.3289 -0.05397,0.32357 -0.07303,0.65003 -0.09631,1.00513 -0.05151,-0.0455 -0.07937,-0.0703 -0.107244,-0.0949 -0.660047,-0.58127 -1.565628,-0.51248 -2.141361,0.15282 -0.560211,0.64739 -0.560211,1.70822 -0.04128,2.3869 0.245533,0.32039 0.544336,0.58113 0.88018,0.80077 0.02716,0.0181 0.05609,0.0346 0.08643,0.0466 0.174272,0.068 0.353483,-0.069 0.333728,-0.25576 -0.0042,-0.0374 -0.01693,-0.0744 -0.02646,-0.11109 -0.0702,-0.26981 -0.122766,-0.54293 -0.149225,-0.82063 -0.0194,-0.20243 -0.01834,-0.40418 0.04692,-0.59973 0.06315,-0.18905 0.177094,-0.27587 0.375002,-0.28536 0.05927,-0.003 0.119945,0.002 0.178859,0.0117 0.223661,0.0342 0.430036,0.11893 0.633941,0.21276 0.06632,0.0303 0.09913,0.0754 0.115006,0.14496 0.02963,0.13257 0.0635,0.26487 0.100542,0.39621 0.200025,0.71395 0.50165,1.38422 0.881239,2.01965 0.04833,0.081 0.05609,0.13684 -0.01094,0.21484 -0.185561,0.21618 -0.379941,0.4222 -0.600075,0.60314 -0.643466,0.52808 -1.367366,0.73657 -2.198863,0.59655 -0.862189,-0.14496 -1.456267,-0.59997 -1.772709,-1.41771 -0.140405,-0.36339 -0.224719,-0.74055 -0.287514,-1.12338 -0.107597,-0.65857 -0.147461,-1.32359 -0.188736,-1.98822 -0.04763,-0.76828 -0.08925,-1.53695 -0.20073,-2.29983 -0.08643,-0.58978 -0.213078,-1.16953 -0.419806,-1.73027 -0.137936,-0.37465 -0.316441,-0.73096 -0.482953,-1.09291 -0.31503,-0.68403 -0.634294,-1.36595 -0.85478,-2.08879 -0.2921,-0.9585 -0.337608,-1.91876 -0.0441,-2.88643 0.513644,-1.69545 1.932516,-2.75167 3.701697,-2.75308 0.5588,-7e-4 1.094316,0.11465 1.612194,0.31821 0.923572,0.36336 1.716264,0.92639 2.430286,1.60655 0.415925,0.39652 0.855134,0.76411 1.324328,1.09537 0.884414,0.62477 1.827389,1.13136 2.877608,1.41993 0.620889,0.17039 1.253067,0.25506 1.895475,0.20214 0.722136,-0.0593 1.4224,-0.23036 2.092678,-0.50165 0.214489,-0.0868 0.37465,-0.0705 0.574675,0.0367 0.882297,0.47343 1.8161,0.58702 2.792236,0.35384 0.611011,-0.14535 1.177572,-0.39617 1.722967,-0.70062 0.764469,-0.42686 1.471083,-0.94121 2.17558,-1.45768 0.682625,-0.50059 1.361021,-1.00718 2.081041,-1.45379 0.80398,-0.49918 1.64888,-0.89465 2.59609,-1.03611 0.69885,-0.10407 1.39418,-0.10372 2.07821,0.0878 1.14759,0.32103 1.94134,1.02941 2.33292,2.16747 0.15029,0.43709 0.22084,0.889 0.24413,1.34867 0.0169,0.33302 0.0102,0.66498 -0.0476,0.99589 -0.084,0.48048 -0.22789,0.94333 -0.39299,1.40053 -0.36372,1.00612 -0.7807,1.99143 -1.17369,2.98605 -0.33197,0.84017 -0.59655,1.69774 -0.76024,2.58628 -0.14535,0.78962 -0.24871,1.58447 -0.3168,2.38457 -0.0737,0.86046 -0.11959,1.72159 -0.12241,2.5848 0,0.0384 -0.002,0.0773 0.005,0.11465 0.0233,0.14083 0.14816,0.24335 0.28857,0.24018 0.13758,-0.003 0.24906,-0.0984 0.27023,-0.23841 0.01,-0.0642 0.0113,-0.13049 0.012,-0.19579 0.0148,-1.27911 0.0981,-2.55313 0.27376,-3.82062 0.0931,-0.6707 0.21696,-1.33505 0.3877,-1.99087 0.1711,-0.65705 0.43286,-1.28129 0.67733,-1.91188 0.34961,-0.90029 0.73308,-1.78717 1.05199,-2.69945 0.18556,-0.53164 0.34748,-1.07033 0.40393,-1.63266 0.0681,-0.68015 0.0134,-1.35467 -0.1651,-2.01365"
       style="fill:#f9f8f8;fill-opacity:1;fill-rule:nonzero;stroke:none;stroke-width:0.0352778"
       id="path86" />
  </g>
</svg>
