<?xml version="1.0" encoding="UTF-8" standalone="no"?>
<!-- Created with Inkscape (http://www.inkscape.org/) -->

<svg
   width="58.25053mm"
   height="28.066605mm"
   viewBox="0 0 58.25053 28.066605"
   version="1.1"
   id="svg5"
   xml:space="preserve"
   xmlns="http://www.w3.org/2000/svg"
   xmlns:svg="http://www.w3.org/2000/svg"><defs
     id="defs2" /><g
     id="layer2"
     transform="translate(-57.737471,-110.16202)" /><g
     id="layer1"
     transform="translate(-57.737471,-110.16202)"><g
       aria-label="Nextdoor
Nature"
       id="text236"
       style="font-style:italic;font-weight:bold;font-size:16.9333px;line-height:0.8;font-family:'DejaVu Serif';-inkscape-font-specification:'DejaVu Serif Bold Italic';fill:#ffffff;stroke-width:0.352777;stroke-linecap:round"><path
         d="m 63.494793,112.43108 c 0,0.62654 -0.220133,6.02826 -0.220133,6.57012 -0.03387,0.52494 -0.06773,0.77894 -0.152399,0.77894 -0.08467,0 -0.220133,-0.22014 -0.491066,-0.64347 -0.626532,-1.10066 -0.863598,-1.71026 -1.49013,-3.69146 -0.3048,-1.03293 -0.389466,-1.65946 -0.389466,-1.89653 -0.06773,-0.94826 -0.254,-1.28693 -0.880532,-1.35466 -0.118533,-0.0339 -0.237066,-0.0339 -0.355599,-0.0339 -0.643466,0 -1.151465,0.37253 -1.286931,0.98213 -0.169333,0.54187 -0.491066,4.58893 -0.491066,6.40079 0,1.4224 0.254,2.98026 0.491066,3.38666 0.1016,0.1524 0.643465,0.42333 1.269997,0.42333 0.3556,0 0.728132,-0.0847 1.083732,-0.32173 0.186266,-0.18627 0.270932,-0.23707 0.270932,-0.67733 0,-0.28787 -0.03387,-0.72813 -0.101599,-1.4732 -0.06773,-0.4064 -0.08467,-0.99906 -0.08467,-1.40546 -0.01693,-0.254 -0.03387,-0.42334 -0.03387,-0.52494 0,-0.0677 0,-0.10159 0.01693,-0.10159 0.03387,0 0.118533,0.13546 0.253999,0.38946 0.237067,0.23707 1.507064,2.11666 1.811863,2.52306 0.474133,0.54187 1.269998,0.93133 1.89653,0.93133 0.541866,0 0.965198,-0.13546 1.032931,-0.37253 0,-0.0677 0,-0.64346 -0.169333,-1.27 -0.06773,-0.94826 -0.135466,-1.65946 -0.135466,-5.45252 -0.0508,-4.23332 -0.03387,-4.70746 -0.524932,-4.70746 -0.1016,0 -0.220133,0.0169 -0.3556,0.0339 h -0.558799 c -0.237066,0.0677 -0.338666,0.4064 -0.406399,1.50706 z"
         style="font-style:normal;font-weight:normal;font-family:Ludicrous;-inkscape-font-specification:'Ludicrous, Normal';baseline-shift:baseline;stroke-width:0.352778"
         id="path3971" /><path
         d="m 67.35557,115.95321 c -0.287866,0.254 -0.880531,1.76106 -0.880531,3.35279 0,0.99907 0.237066,2.032 0.965198,2.794 0.541865,0.64346 1.185331,0.82973 2.370662,0.82973 0.914398,0 1.845729,-0.59267 1.845729,-1.25306 0,-0.3048 -0.08467,-0.4064 -0.220132,-0.4064 -0.186267,0 -0.4572,0.18626 -0.711199,0.32173 -0.135466,0.0169 -0.254,0.0169 -0.355599,0.0169 -0.287866,0 -0.507999,-0.0677 -0.711199,-0.4064 -0.355599,-0.54186 -0.558799,-1.21919 -0.643465,-2.13359 0,-0.74507 0.220133,-0.7112 0.677332,-0.89747 1.032931,-0.32173 1.625596,-0.9144 1.625596,-1.55786 0,-0.27093 -0.101599,-0.54187 -0.321732,-0.8128 -0.237066,-0.3048 -0.626532,-0.72813 -1.388531,-0.72813 -0.389466,0 -0.897465,0.11853 -1.523997,0.44027 -0.287866,0.0847 -0.643465,0.35559 -0.728132,0.44026 z m 2.692395,0.67733 c 0,0.4572 -0.169333,0.7112 -0.711199,0.99907 -0.08467,0.0339 -0.186266,0.0508 -0.270932,0.0508 -0.1016,0 -0.186267,-0.0169 -0.237067,-0.0677 -0.01693,-0.0847 -0.03387,-0.22013 -0.03387,-0.38946 0,-0.4064 0.0508,-0.93133 0.118533,-1.0668 0.1016,-0.27093 0.355599,-0.4064 0.592665,-0.4064 0.169333,0 0.338666,0.0677 0.457199,0.22013 0.08467,0.0847 0.08467,0.37254 0.08467,0.6604 z"
         style="font-style:normal;font-weight:normal;font-family:Ludicrous;-inkscape-font-specification:'Ludicrous, Normal';baseline-shift:baseline;stroke-width:0.352778"
         id="path3973" /><path
         d="m 71.707427,115.30975 c 0.08467,0.25399 0.778932,1.64253 1.303864,2.69239 0.169333,0.254 1.032932,1.91346 1.117598,1.99813 0,0 -0.169333,0.44027 -0.338666,0.77893 -0.321733,0.69427 -0.541865,1.27 -0.541865,1.6764 0,0.3556 0.169333,0.57573 0.626532,0.57573 0.440265,0 0.863598,-0.6096 1.117597,-0.94826 0.1524,-0.28787 0.186267,-0.44027 0.220133,-0.44027 0.0508,0 0.118533,0.2032 0.389466,0.6096 0.507999,0.59266 0.846665,0.79586 1.456264,0.79586 0.118533,0 0.237066,0 0.372533,-0.0169 0.440265,0 0.694265,0 0.778931,-0.16933 0.0508,-0.0508 0.08467,-0.0847 0.08467,-0.1524 0,-0.11854 -0.169333,-0.3556 -0.694265,-1.0668 -0.254,-0.33867 -0.694266,-0.94827 -0.948265,-1.38853 -0.321733,-0.54187 -0.457199,-0.67733 -0.457199,-0.82973 0,-0.1524 0.169333,-0.33867 0.457199,-1.15147 0.304799,-0.8636 0.829732,-2.25213 0.829732,-2.84479 0,-0.0508 0,-0.1016 -0.01693,-0.1524 0,0 -0.253999,-0.22013 -0.423332,-0.22013 -0.06773,-0.0169 -0.118533,-0.0339 -0.169333,-0.0339 -0.541866,0 -1.049865,0.99906 -1.439331,1.94733 -0.152399,0.47413 -0.186266,0.72813 -0.237066,0.72813 -0.0508,0 -0.1016,-0.1016 -0.2032,-0.3048 -0.355599,-0.69426 -1.303864,-2.08279 -1.64253,-2.33679 -0.169333,-0.1016 -0.491065,-0.28787 -0.863598,-0.28787 -0.2032,0 -0.406399,0.0508 -0.609599,0.2032 -0.118533,0.0677 -0.203199,0.11853 -0.203199,0.22013 0,0.0339 0.01693,0.0677 0.03387,0.11854 z"
         style="font-style:normal;font-weight:normal;font-family:Ludicrous;-inkscape-font-specification:'Ludicrous, Normal';baseline-shift:baseline;stroke-width:0.352778"
         id="path3975" /><path
         d="m 81.393289,112.44802 c -0.118533,0.23706 -0.3556,1.82879 -0.474133,2.79399 -0.118533,0.6096 -0.118533,0.6096 -0.491065,0.6096 -0.491066,0 -0.846665,0.254 -0.965198,0.49107 0,0.23706 0.474132,0.47413 0.846665,0.47413 0.372532,0 0.355599,0 0.474132,2.55693 0.237066,2.91253 0.372533,3.50519 0.863598,3.87772 0.423333,0.42334 1.219198,0.6604 1.964263,0.6604 0.338666,0 0.677332,-0.0508 0.948265,-0.16933 0.270933,-0.1016 0.406399,-0.22013 0.406399,-0.33867 0,-0.13546 -0.186266,-0.3048 -0.524932,-0.508 -0.237066,-0.11853 -0.491066,-0.37253 -0.609599,-0.49106 -0.118533,-0.37253 -0.254,-2.55693 -0.372533,-4.74133 -0.03387,-0.33866 -0.0508,-0.57573 -0.0508,-0.76199 0,-0.57574 0.2032,-0.6096 1.032932,-0.69427 0.728132,0 1.083731,-0.11853 1.202264,-0.23707 0.1016,-0.1016 0.135466,-0.16933 0.135466,-0.23706 0,-0.2032 -0.423332,-0.28787 -1.33773,-0.37253 -0.965198,0 -0.982132,0 -0.982132,-1.33774 0,-1.21919 0,-1.57479 -0.118533,-1.69333 -0.169333,-0.0847 -0.694265,-0.16933 -1.134531,-0.16933 -0.169333,0 -0.338666,0.0169 -0.440266,0.0508 -0.118533,0.11853 -0.372532,0.23707 -0.372532,0.23707 z"
         style="font-style:normal;font-weight:normal;font-family:Ludicrous;-inkscape-font-specification:'Ludicrous, Normal';baseline-shift:baseline;stroke-width:0.352778"
         id="path3977" /><path
         d="m 89.792195,114.17521 c 0,2.20133 0,2.20133 -0.3048,2.30293 -0.795865,0 -2.285995,0.9144 -2.793994,1.81187 -0.254,0.42333 -0.440266,1.23613 -0.440266,1.89653 0,0.1524 0.01693,0.28786 0.03387,0.4064 0.08467,0.35559 0.474132,1.81186 1.879596,1.81186 0.220133,0 0.457199,-0.0339 0.728132,-0.11853 0.389466,-0.0508 0.897465,-0.2032 1.202264,-0.89747 0.135467,-0.23707 0.220133,-0.3556 0.270933,-0.3556 0.0508,0 0.08467,0.18627 0.135466,0.5588 0.2032,0.99906 0.389466,1.30386 0.694266,1.50706 0.287866,0.16934 0.643465,0.254 0.999064,0.254 0.491066,0 0.965199,-0.16933 1.202265,-0.4572 0.01693,-0.0339 0.01693,-0.0677 0.01693,-0.1016 0,-0.18626 -0.2032,-0.54186 -0.541866,-2.47226 -0.406399,-2.09973 -0.389465,-5.24932 -0.694265,-9.16091 -0.1016,-0.89747 -0.203199,-0.99907 -1.202264,-0.99907 -0.609599,0 -0.795865,0.1016 -0.999065,0.2032 -0.169333,0.16933 -0.186266,1.15147 -0.186266,2.87866 z m -0.08467,4.318 c -0.101599,1.16839 -0.965198,2.89559 -1.202264,2.89559 h -0.01693 c -0.1016,0 -0.592666,-0.59267 -0.592666,-1.4224 v -0.0847 c 0.0508,-1.10067 0.491066,-2.09973 1.490131,-2.794 0.186266,-0.0847 0.304799,-0.13546 0.372532,-0.13546 0.0508,0 0.06773,0.0169 0.06773,0.0677 0,0.0508 -0.01693,0.1016 -0.03387,0.16933 v 0.23707 c 0,0.28786 0,0.762 -0.08467,1.0668 z"
         style="font-style:normal;font-weight:normal;font-family:Ludicrous;-inkscape-font-specification:'Ludicrous, Normal';baseline-shift:baseline;stroke-width:0.352778"
         id="path3979" /><path
         d="m 103.72831,115.30975 c -0.762,0.76199 -1.0668,1.04986 -2.37067,1.42239 -0.57573,0.18627 -0.81279,0.254 -0.96519,0.254 -0.2032,0 -0.27094,-0.0847 -0.694269,-0.13546 -0.474132,-0.0847 -1.032931,-0.11854 -1.320797,-0.11854 -0.169333,0.0339 -0.270933,0.0508 -0.321733,0.0508 -0.0508,0 -0.06773,-0.0169 -0.06773,-0.0339 0,-0.0339 0.08467,-0.11854 0.2032,-0.28787 0.220133,-0.42333 1.032931,-0.52493 1.032931,-0.79587 v -0.0508 c 0,-0.16933 -0.304799,-0.27093 -0.711199,-0.27093 -0.474132,0 -1.049864,0.11854 -1.456263,0.37253 -0.660399,0.28787 -1.608664,1.1176 -1.89653,1.778 -0.457199,0.79587 -0.694265,1.81186 -0.694265,2.6924 0,0.37253 0.0508,0.71119 0.135466,0.99906 0.372533,1.04987 1.219198,1.71026 2.455329,1.89653 0.220132,0.0169 0.423332,0.0339 0.626532,0.0339 1.69333,0 3.031061,-0.67734 3.623721,-1.9304 0.16934,-0.47413 0.23707,-0.9144 0.23707,-1.3208 0,-1.16839 -0.508,-1.98119 -0.508,-1.98119 0,0 0.22013,-0.16934 0.59267,-0.22014 0.54186,-0.32173 0.8128,-0.49106 0.93133,-0.49106 0.0677,0 0.1016,0.0508 0.1016,0.13546 0,0.23707 -0.16933,0.77894 -0.254,1.6764 -0.0339,0.3048 -0.0339,0.5588 -0.0339,0.762 0,0.54187 0.0847,0.762 0.22014,1.03293 0.37253,0.84667 1.13453,1.25307 2.18439,1.33773 0.13547,0.0169 0.28787,0.0169 0.42333,0.0169 1.54093,0 3.03106,-0.9144 3.64066,-2.20133 0.18627,-0.33867 0.28787,-0.762 0.28787,-1.18533 0,-0.42334 -0.1016,-0.84667 -0.28787,-1.1684 -0.37253,-0.762 -1.43933,-1.6256 -2.28599,-1.81187 -0.13547,0 -0.2032,-0.0508 -0.2032,-0.1524 0,-0.0339 0.0169,-0.0847 0.0339,-0.13546 0.0847,-0.18627 0.0847,-0.16933 0.0847,-0.4572 -0.0508,-0.254 -0.54186,-0.42333 -1.10066,-0.42333 -0.27094,0 -0.54187,0.0339 -0.79587,0.13546 -0.18626,0 -0.5588,0.28787 -0.84666,0.57574 z m 3.11572,3.30199 c 0,0.762 -0.2032,0.9652 -0.71119,1.7272 -0.23707,0.38946 -0.47414,0.55879 -0.74507,0.55879 -0.0508,0 -0.1016,0 -0.1524,-0.0169 -0.23707,-0.3048 -0.38947,-0.9652 -0.38947,-1.71026 0,-0.1524 0,-0.3048 0.0169,-0.47413 0,-1.04987 0.28786,-1.9812 0.47413,-1.9812 0,0 0.18627,0.0169 0.37253,0.1016 0.6604,0.37253 1.13453,1.13453 1.13453,1.79493 z m -7.907847,1.91346 c -0.186266,0.47413 -0.575732,1.13453 -0.948265,1.3208 -0.01693,0.0169 -0.0508,0.0169 -0.06773,0.0169 -0.2032,0 -0.524932,-0.28786 -0.778932,-0.77893 -0.1016,-0.22013 -0.135466,-0.54186 -0.135466,-0.89746 0,-0.762 0.169333,-1.7272 0.423332,-2.4892 0.08467,-0.16933 0.135467,-0.254 0.2032,-0.254 0.08467,0 0.203199,0.13547 0.457199,0.44027 0.287866,0.18626 0.575732,0.6604 0.761998,0.84666 0.1524,0.3048 0.220133,0.6096 0.220133,0.93133 0,0.27094 -0.0508,0.5588 -0.135466,0.8636 z"
         style="font-style:normal;font-weight:normal;font-family:Ludicrous;-inkscape-font-specification:'Ludicrous, Normal';baseline-shift:baseline;stroke-width:0.352778"
         id="path3981" /><path
         d="m 110.24761,115.12348 c -0.1016,0.0677 -0.16933,0.1016 -0.16933,0.254 0,0.1524 0.0677,0.44026 0.16933,0.99906 0.13547,0.59267 0.2032,3.18346 0.2032,4.87679 0,1.03294 0,1.03294 0.3048,1.25307 0.11853,0.0847 0.57573,0.1524 1.04987,0.1524 0.33866,0 0.69426,-0.0508 0.93133,-0.1524 0.2032,-0.1524 0.27093,-0.18627 0.27093,-0.508 0,-0.1524 -0.0169,-0.38947 -0.0508,-0.74507 0,-0.72813 0,-1.10066 0.0847,-1.32079 0.72813,-1.9812 0.77893,-2.86173 2.59079,-3.53906 0.254,-0.1524 0.3556,-0.22014 0.3556,-0.33867 0,-0.0339 -0.0169,-0.1016 -0.0677,-0.16933 -0.1524,-0.1524 -0.508,-0.3556 -0.99907,-0.3556 -0.23706,0 -0.508,0.0508 -0.79586,0.16933 -0.79587,0.3556 -0.93133,0.98213 -1.23613,1.35467 -0.0339,0.0847 -0.0508,0.13546 -0.0677,0.13546 -0.0169,0 -0.0339,-0.13546 -0.0847,-0.44026 -0.0847,-0.22014 -0.0677,-1.13454 -0.72813,-1.69333 -0.22014,-0.1016 -0.69427,-0.18627 -1.03294,-0.18627 -0.11853,0 -0.22013,0.0169 -0.30479,0.0339 -0.13547,0.0847 -0.33867,0.13546 -0.42334,0.22013 z"
         style="font-style:normal;font-weight:normal;font-family:Ludicrous;-inkscape-font-specification:'Ludicrous, Normal';baseline-shift:baseline;stroke-width:0.352778"
         id="path3983" /><path
         d="m 63.494793,126.74785 c 0,0.62653 -0.220133,6.02825 -0.220133,6.57012 -0.03387,0.52493 -0.06773,0.77893 -0.152399,0.77893 -0.08467,0 -0.220133,-0.22013 -0.491066,-0.64346 -0.626532,-1.10067 -0.863598,-1.71027 -1.49013,-3.69146 -0.3048,-1.03293 -0.389466,-1.65947 -0.389466,-1.89653 -0.06773,-0.94827 -0.254,-1.28693 -0.880532,-1.35467 -0.118533,-0.0339 -0.237066,-0.0339 -0.355599,-0.0339 -0.643466,0 -1.151465,0.37253 -1.286931,0.98213 -0.169333,0.54186 -0.491066,4.58892 -0.491066,6.40079 0,1.42239 0.254,2.98026 0.491066,3.38666 0.1016,0.1524 0.643465,0.42333 1.269997,0.42333 0.3556,0 0.728132,-0.0847 1.083732,-0.32173 0.186266,-0.18627 0.270932,-0.23707 0.270932,-0.67734 0,-0.28786 -0.03387,-0.72813 -0.101599,-1.47319 -0.06773,-0.4064 -0.08467,-0.99907 -0.08467,-1.40547 -0.01693,-0.254 -0.03387,-0.42333 -0.03387,-0.52493 0,-0.0677 0,-0.1016 0.01693,-0.1016 0.03387,0 0.118533,0.13547 0.253999,0.38947 0.237067,0.23706 1.507064,2.11666 1.811863,2.52306 0.474133,0.54186 1.269998,0.93133 1.89653,0.93133 0.541866,0 0.965198,-0.13547 1.032931,-0.37253 0,-0.0677 0,-0.64347 -0.169333,-1.27 -0.06773,-0.94827 -0.135466,-1.65946 -0.135466,-5.45252 -0.0508,-4.23333 -0.03387,-4.70746 -0.524932,-4.70746 -0.1016,0 -0.220133,0.0169 -0.3556,0.0339 h -0.558799 c -0.237066,0.0677 -0.338666,0.4064 -0.406399,1.50706 z"
         style="font-style:normal;font-weight:normal;font-family:Ludicrous;-inkscape-font-specification:'Ludicrous, Normal';baseline-shift:baseline;stroke-width:0.352778"
         id="path3985" /><path
         d="m 68.727168,130.93037 c -0.507999,0.42334 -2.09973,2.1844 -2.269063,4.6228 0,0.1016 -0.01693,0.22013 -0.01693,0.32173 0,0.67733 0.220133,1.38853 1.69333,1.69333 0.1524,0.0169 0.287866,0.0169 0.423333,0.0169 0.626532,0 0.948264,-0.18626 1.507063,-0.67733 0.3048,-0.27093 0.457199,-0.38947 0.524933,-0.38947 0.06773,0 0.06773,0.1016 0.06773,0.3048 0,0.0677 -0.01693,0.11854 -0.01693,0.16934 0,0.54186 0.338666,0.76199 1.066798,0.76199 0.118533,0 0.254,0 0.389466,-0.0169 0.541866,0 0.948265,-0.13547 0.948265,-0.6604 0,-0.0508 -0.01693,-0.11853 -0.01693,-0.16933 -0.08467,-0.84667 -0.135467,-2.52306 -0.135467,-3.62373 0,-0.69426 0.0508,-1.26999 0.0508,-1.69333 0,-0.42333 -0.0508,-0.7112 -0.253999,-0.82973 -0.1524,-0.11853 -0.389466,-0.18626 -0.626532,-0.18626 -0.270933,0 -0.541866,0.0847 -0.728132,0.27093 -0.338666,0.254 -0.338666,0.32173 -0.761999,1.50706 -0.169333,0.59267 -0.220133,1.89653 -1.845729,3.36973 -0.01693,0.0169 -0.01693,0.0169 -0.03387,0.0169 -0.06773,0 -0.118533,-0.1524 -0.118533,-0.44026 0,-0.52494 0.203199,-1.524 0.999065,-3.03106 0.761998,-1.50707 1.422397,-2.09973 2.269062,-2.1844 0.287866,-0.0508 0.440266,-0.1524 0.440266,-0.254 0,-0.0677 -0.08467,-0.13547 -0.270933,-0.16933 -0.2032,-0.0847 -0.372533,-0.13547 -0.575732,-0.13547 -0.186267,0 -0.389466,0.0508 -0.694266,0.13547 -0.507999,0.16933 -1.59173,0.84666 -2.015062,1.26999 z"
         style="font-style:normal;font-weight:normal;font-family:Ludicrous;-inkscape-font-specification:'Ludicrous, Normal';baseline-shift:baseline;stroke-width:0.352778"
         id="path3987" /><path
         d="m 75.26341,126.76478 c -0.118533,0.23707 -0.3556,1.8288 -0.474133,2.794 -0.118533,0.6096 -0.118533,0.6096 -0.491065,0.6096 -0.491066,0 -0.846665,0.254 -0.965198,0.49106 0,0.23707 0.474132,0.47413 0.846665,0.47413 0.372532,0 0.355599,0 0.474132,2.55693 0.237066,2.91253 0.372533,3.5052 0.863598,3.87773 0.423333,0.42333 1.219198,0.6604 1.964263,0.6604 0.338666,0 0.677332,-0.0508 0.948265,-0.16934 0.270933,-0.1016 0.406399,-0.22013 0.406399,-0.33866 0,-0.13547 -0.186266,-0.3048 -0.524932,-0.508 -0.237066,-0.11853 -0.491066,-0.37253 -0.609599,-0.49107 -0.118533,-0.37253 -0.254,-2.55692 -0.372533,-4.74132 -0.03387,-0.33867 -0.0508,-0.57573 -0.0508,-0.762 0,-0.57573 0.2032,-0.6096 1.032932,-0.69426 0.728132,0 1.083731,-0.11854 1.202264,-0.23707 0.1016,-0.1016 0.135466,-0.16933 0.135466,-0.23707 0,-0.2032 -0.423332,-0.28786 -1.33773,-0.37253 -0.965198,0 -0.982132,0 -0.982132,-1.33773 0,-1.2192 0,-1.5748 -0.118533,-1.69333 -0.169333,-0.0847 -0.694265,-0.16933 -1.134531,-0.16933 -0.169333,0 -0.338666,0.0169 -0.440266,0.0508 -0.118533,0.11853 -0.372532,0.23706 -0.372532,0.23706 z"
         style="font-style:normal;font-weight:normal;font-family:Ludicrous;-inkscape-font-specification:'Ludicrous, Normal';baseline-shift:baseline;stroke-width:0.352778"
         id="path3989" /><path
         d="m 83.035778,130.32078 c -0.08467,0.55879 -0.321733,1.82879 -0.558799,3.18346 -0.237066,0.94826 -0.524932,2.13359 -0.761999,2.45532 -0.03387,0 -0.06773,0.0169 -0.101599,0.0169 -0.338666,0 -0.507999,-0.38947 -0.592666,-0.67733 -0.0508,-0.4064 -0.08467,-0.5588 -0.08467,-0.9144 0,-0.23707 0.01693,-0.57573 0.0508,-1.15147 0.08467,-0.88053 0.304799,-2.30293 0.304799,-2.45532 -0.06773,-0.44027 -0.355599,-0.69427 -0.728132,-0.69427 -0.1524,0 -0.304799,0.0339 -0.474132,0.13547 -0.1524,0.1524 -0.643466,0.5588 -0.863599,3.52212 -0.01693,0.13547 -0.01693,0.3048 -0.01693,0.4572 0,1.25307 0.389466,2.9464 1.998129,2.9464 h 0.372533 c 1.083731,0 1.89653,-0.62654 2.235196,-1.524 0.186266,-0.64347 0.287866,-0.88053 0.355599,-0.88053 0.1016,0 0.03387,0.84666 0.135466,1.37159 0.1524,1.18534 0.237067,1.35467 0.474133,1.50707 0.186266,0.0847 0.355599,0.11853 0.524932,0.11853 0.338666,0 0.626532,-0.1524 0.677332,-0.42333 0,-0.0847 0,-0.49107 -0.08467,-0.88053 -0.237067,-1.2192 -0.3556,-3.42053 -0.3556,-4.85986 0,-0.4572 0.01693,-0.82973 0.03387,-1.08373 0.01693,-0.1016 0.03387,-0.2032 0.03387,-0.28787 0,-0.28786 -0.118533,-0.44026 -0.423332,-0.508 -0.186266,-0.0847 -0.524932,-0.11853 -0.863598,-0.11853 -0.321733,0 -0.643466,0.0339 -0.812799,0.11853 -0.389466,0.0847 -0.389466,0.1524 -0.474132,0.62654 z"
         style="font-style:normal;font-weight:normal;font-family:Ludicrous;-inkscape-font-specification:'Ludicrous, Normal';baseline-shift:baseline;stroke-width:0.352778"
         id="path3991" /><path
         d="m 87.13363,129.44024 c -0.1016,0.0677 -0.169333,0.1016 -0.169333,0.254 0,0.1524 0.06773,0.44027 0.169333,0.99907 0.135466,0.59266 0.203199,3.18346 0.203199,4.87679 0,1.03293 0,1.03293 0.3048,1.25306 0.118533,0.0847 0.575732,0.1524 1.049864,0.1524 0.338666,0 0.694266,-0.0508 0.931332,-0.1524 0.203199,-0.1524 0.270933,-0.18626 0.270933,-0.508 0,-0.1524 -0.01693,-0.38946 -0.0508,-0.74506 0,-0.72813 0,-1.10067 0.08467,-1.3208 0.728132,-1.98119 0.778932,-2.86173 2.590795,-3.53906 0.254,-0.1524 0.355599,-0.22013 0.355599,-0.33866 0,-0.0339 -0.01693,-0.1016 -0.06773,-0.16934 -0.152399,-0.1524 -0.507999,-0.3556 -0.999064,-0.3556 -0.237067,0 -0.507999,0.0508 -0.795866,0.16934 -0.795865,0.3556 -0.931331,0.98213 -1.236131,1.35466 -0.03387,0.0847 -0.0508,0.13547 -0.06773,0.13547 -0.01693,0 -0.03387,-0.13547 -0.08467,-0.44027 -0.08467,-0.22013 -0.06773,-1.13453 -0.728132,-1.69333 -0.220133,-0.1016 -0.694265,-0.18627 -1.032931,-0.18627 -0.118534,0 -0.220133,0.0169 -0.3048,0.0339 -0.135466,0.0847 -0.338666,0.13547 -0.423332,0.22013 z"
         style="font-style:normal;font-weight:normal;font-family:Ludicrous;-inkscape-font-specification:'Ludicrous, Normal';baseline-shift:baseline;stroke-width:0.352778"
         id="path3993" /><path
         d="m 93.923858,130.26998 c -0.287866,0.254 -0.880532,1.76106 -0.880532,3.35279 0,0.99906 0.237067,2.032 0.965199,2.79399 0.541865,0.64347 1.185331,0.82974 2.370662,0.82974 0.914398,0 1.845729,-0.59267 1.845729,-1.25307 0,-0.3048 -0.08467,-0.4064 -0.220133,-0.4064 -0.186266,0 -0.457199,0.18627 -0.711198,0.32173 -0.135467,0.0169 -0.254,0.0169 -0.3556,0.0169 -0.287866,0 -0.507999,-0.0677 -0.711198,-0.4064 -0.355599,-0.54187 -0.558799,-1.2192 -0.643466,-2.1336 0,-0.74506 0.220133,-0.7112 0.677332,-0.89746 1.032932,-0.32173 1.625597,-0.9144 1.625597,-1.55787 0,-0.27093 -0.1016,-0.54186 -0.321732,-0.81279 -0.237067,-0.3048 -0.626533,-0.72814 -1.388531,-0.72814 -0.389466,0 -0.897465,0.11854 -1.523997,0.44027 -0.287866,0.0847 -0.643465,0.3556 -0.728132,0.44027 z m 2.692395,0.67733 c 0,0.4572 -0.169333,0.7112 -0.711199,0.99906 -0.08467,0.0339 -0.186266,0.0508 -0.270933,0.0508 -0.101599,0 -0.186266,-0.0169 -0.237066,-0.0677 -0.01693,-0.0847 -0.03387,-0.22013 -0.03387,-0.38947 0,-0.4064 0.0508,-0.93133 0.118533,-1.06679 0.101599,-0.27094 0.355599,-0.4064 0.592665,-0.4064 0.169333,0 0.338666,0.0677 0.457199,0.22013 0.08467,0.0847 0.08467,0.37253 0.08467,0.6604 z"
         style="font-style:normal;font-weight:normal;font-family:Ludicrous;-inkscape-font-specification:'Ludicrous, Normal';baseline-shift:baseline;stroke-width:0.352778"
         id="path3995" /></g></g></svg>
