<?xml version="1.0" encoding="UTF-8" standalone="no"?>
<!-- Created with Inkscape (http://www.inkscape.org/) -->

<svg
   width="101.98206mm"
   height="36.459972mm"
   viewBox="0 0 101.98206 36.459972"
   version="1.1"
   id="svg992"
   xmlns="http://www.w3.org/2000/svg"
   xmlns:svg="http://www.w3.org/2000/svg">
  <defs
     id="defs989" />
  <g
     id="layer1"
     transform="translate(-50.60492,-96.463689)">
    <path
       d="m 87.888591,105.77632 h 2.274006 v 4.83623 h 5.973586 v -4.83623 h 2.274005 v 12.03717 h -2.274005 v -5.17952 h -5.973586 v 5.17952 h -2.274006 v -12.03717"
       style="fill:#ffffff;fill-opacity:1;fill-rule:nonzero;stroke:none;stroke-width:0.0352778"
       id="path150" />
    <path
       d="m 105.71904,112.6883 c 0,-0.21661 -0.0423,-0.43357 -0.1263,-0.64947 -0.0843,-0.2166 -0.20743,-0.41239 -0.37006,-0.58702 -0.16228,-0.17427 -0.37006,-0.3182 -0.62265,-0.43286 -0.25259,-0.1143 -0.54116,-0.1718 -0.86607,-0.1718 -0.34925,0 -0.65899,0.0575 -0.92957,0.1718 -0.27058,0.11466 -0.49636,0.25859 -0.67663,0.43286 -0.18062,0.17463 -0.31891,0.37042 -0.41522,0.58702 -0.0963,0.2159 -0.14429,0.43286 -0.14429,0.64947 z m 2.07539,3.89819 c -0.036,0.0359 -0.13511,0.13547 -0.29774,0.29778 -0.16228,0.16221 -0.39688,0.33362 -0.7038,0.51428 -0.30691,0.18066 -0.69779,0.34287 -1.17298,0.48715 -0.47555,0.14471 -1.04387,0.21664 -1.70568,0.21664 -0.67381,0 -1.28729,-0.11426 -1.8408,-0.34286 -0.55351,-0.22864 -1.02588,-0.54391 -1.41675,-0.94756 -0.39088,-0.40291 -0.6918,-0.88689 -0.902408,-1.45285 -0.210256,-0.56529 -0.315736,-1.19119 -0.315736,-1.87688 0,-0.62562 0.10548,-1.20594 0.315736,-1.74145 0.210608,-0.53517 0.505528,-1.00154 0.884418,-1.39841 0.37888,-0.39758 0.83008,-0.70979 1.3536,-0.93875 0.52353,-0.2286 1.10385,-0.3429 1.74167,-0.3429 0.76976,0 1.42275,0.14182 1.95791,0.42404 0.53517,0.28293 0.96556,0.653 1.29047,1.1102 0.3249,0.4572 0.5595,0.97437 0.70379,1.55222 0.14464,0.57714 0.2166,1.16677 0.2166,1.7683 v 0.30674 h -6.31648 c 0,0.31295 0.0691,0.59559 0.20743,0.84818 0.13829,0.25273 0.31856,0.46937 0.54151,0.64975 0.22261,0.18051 0.4752,0.31887 0.75812,0.41507 0.28258,0.0964 0.56198,0.14443 0.83891,0.14443 0.40887,0 0.76729,-0.0392 1.07385,-0.1173 0.30692,-0.0781 0.56868,-0.16852 0.78529,-0.27061 0.2166,-0.10227 0.3937,-0.21058 0.53234,-0.32495 0.13829,-0.11412 0.24377,-0.20768 0.31574,-0.27975 l 1.15499,1.29949"
       style="fill:#ffffff;fill-opacity:1;fill-rule:nonzero;stroke:none;stroke-width:0.0352778"
       id="path152" />
    <path
       d="m 109.00375,109.34961 h 2.03906 l 0.0543,1.06468 c 0.0963,-0.11994 0.21942,-0.25294 0.36971,-0.39722 0.15063,-0.14429 0.32808,-0.27658 0.53269,-0.39688 0.20426,-0.1203 0.44203,-0.2226 0.71296,-0.30692 0.27059,-0.084 0.58032,-0.12629 0.92922,-0.12629 0.20461,0 0.38806,0.0123 0.55033,0.0363 0.16264,0.024 0.32774,0.066 0.49636,0.12629 l -0.43321,2.00307 c -0.14428,-0.06 -0.29175,-0.10195 -0.44203,-0.12629 -0.15063,-0.024 -0.32773,-0.036 -0.53234,-0.036 -0.28857,0 -0.56586,0.048 -0.83009,0.14429 -0.26493,0.0963 -0.49353,0.2346 -0.6858,0.41487 -0.19261,0.18097 -0.34607,0.39758 -0.46037,0.64981 -0.1143,0.25259 -0.17145,0.53552 -0.17145,0.84826 v 4.56586 h -2.12937 v -8.46388"
       style="fill:#ffffff;fill-opacity:1;fill-rule:nonzero;stroke:none;stroke-width:0.0352778"
       id="path154" />
    <path
       d="m 115.7351,109.34961 h 2.12937 v 8.46388 h -2.12937 z m -0.0723,-3.57329 h 2.274 v 2.23767 h -2.274 v -2.23767"
       style="fill:#ffffff;fill-opacity:1;fill-rule:nonzero;stroke:none;stroke-width:0.0352778"
       id="path156" />
    <path
       d="m 120.42705,111.0821 h -1.44357 v -1.73249 h 1.44357 v -2.74355 h 2.12972 v 2.74355 h 2.274 v 1.73249 h -2.274 v 3.69958 c 0,0.48119 0.0811,0.85133 0.24377,1.11002 0.16228,0.25876 0.42404,0.38791 0.78493,0.38791 0.33655,0 0.60466,-0.048 0.80292,-0.14443 0.19861,-0.0962 0.38806,-0.21015 0.56868,-0.34286 l 0.9024,1.3177 c -0.42121,0.34889 -0.83643,0.59859 -1.2453,0.74894 -0.40922,0.15036 -0.86642,0.22546 -1.3716,0.22546 -0.51753,0 -0.95638,-0.0751 -1.31763,-0.22546 -0.36089,-0.15035 -0.65264,-0.36364 -0.87524,-0.64107 -0.2226,-0.27657 -0.38206,-0.6102 -0.47801,-1.00139 -0.0967,-0.39084 -0.14464,-0.8212 -0.14464,-1.29043 v -3.84397"
       style="fill:#ffffff;fill-opacity:1;fill-rule:nonzero;stroke:none;stroke-width:0.0352778"
       id="path158" />
    <path
       d="m 131.92302,113.98751 c -0.21661,-0.0118 -0.42722,-0.024 -0.63147,-0.0358 -0.16863,-0.0119 -0.34608,-0.0211 -0.5327,-0.0273 -0.18662,-0.006 -0.34572,-0.009 -0.47801,-0.009 -0.6858,0 -1.16699,0.13532 -1.44392,0.40597 -0.27693,0.27079 -0.41522,0.58071 -0.41522,0.92961 0,0.36092 0.12947,0.64382 0.38805,0.84818 0.25894,0.20437 0.641,0.30664 1.14618,0.30664 0.25259,0 0.49636,-0.0419 0.73095,-0.12623 0.2346,-0.0839 0.44204,-0.19858 0.62266,-0.34272 0.18027,-0.14457 0.32773,-0.31281 0.44203,-0.50546 0.1143,-0.19227 0.17145,-0.39702 0.17145,-0.61366 z m 0,3.03223 c -0.2286,0.27658 -0.5775,0.5231 -1.04669,0.73974 -0.4692,0.2166 -0.99272,0.32494 -1.57022,0.32494 -0.34889,0 -0.69462,-0.054 -1.03752,-0.16235 -0.3429,-0.10858 -0.65616,-0.27368 -0.93839,-0.49664 -0.28292,-0.22228 -0.51152,-0.50807 -0.68615,-0.857 -0.17427,-0.34879 -0.26141,-0.75819 -0.26141,-1.22728 0,-0.48108 0.0903,-0.91143 0.27058,-1.29039 0.18063,-0.37881 0.43321,-0.69769 0.75812,-0.95677 0.32491,-0.25823 0.71544,-0.45367 1.17299,-0.58631 0.4572,-0.1323 0.96238,-0.19862 1.51589,-0.19862 0.16827,0 0.35489,0.003 0.5595,0.01 0.20461,0.006 0.40323,0.0148 0.59549,0.0268 0.21661,0.012 0.43921,0.0243 0.66781,0.036 v -0.19861 c 0,-0.42122 -0.16863,-0.75177 -0.50518,-0.99237 -0.33726,-0.24059 -0.77611,-0.36124 -1.31762,-0.36124 -0.60184,0 -1.08268,0.0787 -1.44357,0.2346 -0.36089,0.15663 -0.68016,0.32491 -0.95673,0.50553 l -0.97438,-1.44357 c 0.16828,-0.1203 0.36089,-0.24377 0.5775,-0.37042 0.21661,-0.12629 0.46919,-0.24059 0.75777,-0.3429 0.28892,-0.10195 0.623,-0.18626 1.00189,-0.25223 0.37888,-0.066 0.82091,-0.0995 1.32644,-0.0995 0.54116,0 1.03152,0.0755 1.47073,0.22578 0.43886,0.15064 0.81492,0.36089 1.12783,0.63147 0.31292,0.27059 0.55351,0.59585 0.72214,0.97438 0.16827,0.37923 0.25259,0.79163 0.25259,1.23648 v 5.6847 h -1.98544 l -0.054,-0.79375"
       style="fill:#ffffff;fill-opacity:1;fill-rule:nonzero;stroke:none;stroke-width:0.0352778"
       id="path160" />
    <path
       d="m 141.109,111.1904 c -0.16863,-0.0603 -0.3429,-0.10548 -0.52317,-0.13546 -0.18062,-0.0296 -0.46355,-0.0452 -0.84843,-0.0452 -0.43286,0 -0.8121,0.0723 -1.137,0.21661 -0.32491,0.14464 -0.60184,0.3369 -0.83009,0.57749 -0.2286,0.24095 -0.40005,0.5207 -0.51435,0.83891 -0.11465,0.31926 -0.17145,0.6532 -0.17145,1.00185 0,0.64989 0.16263,1.19754 0.48719,1.64236 0.3249,0.44538 0.84843,0.66781 1.57021,0.66781 0.64982,0 1.13982,-0.13822 1.47073,-0.41508 0.33091,-0.27686 0.49636,-0.71589 0.49636,-1.31755 z m -4.42137,7.99465 c 0.33655,0.2286 0.70062,0.39413 1.0915,0.49636 0.39088,0.10227 0.85125,0.15353 1.38077,0.15353 0.55351,0 1.01671,-0.16841 1.38959,-0.50518 0.37289,-0.33736 0.55951,-0.80659 0.55951,-1.40769 v -0.92039 c -0.28893,0.24063 -0.60466,0.43603 -0.94756,0.58635 -0.3429,0.15064 -0.79728,0.22546 -1.36243,0.22546 -0.61348,0 -1.15817,-0.10199 -1.63336,-0.3066 -0.47555,-0.20422 -0.88159,-0.49033 -1.21814,-0.85729 -0.33691,-0.36724 -0.59267,-0.79995 -0.76694,-1.29949 -0.17463,-0.499 -0.26176,-1.04951 -0.26176,-1.65131 0,-0.62562 0.11112,-1.21511 0.33408,-1.76827 0.22225,-0.55351 0.54116,-1.03505 0.95638,-1.44392 0.41522,-0.40922 0.91722,-0.73131 1.50671,-0.9659 0.58949,-0.23425 1.2513,-0.35172 1.98544,-0.35172 0.73377,0 1.4104,0.0603 2.03023,0.18062 0.61948,0.1203 1.12183,0.24659 1.50707,0.37888 v 8.22957 c 0,0.58952 -0.10266,1.11276 -0.30692,1.56986 -0.20496,0.45723 -0.48718,0.84211 -0.84808,1.15535 -0.36124,0.31252 -0.78845,0.55036 -1.28129,0.713 -0.49353,0.16192 -1.02905,0.24334 -1.60619,0.24334 -0.44556,0 -0.83926,-0.0211 -1.18216,-0.0631 -0.3429,-0.0423 -0.64982,-0.0991 -0.92075,-0.17142 -0.27058,-0.0724 -0.51717,-0.16234 -0.73978,-0.27051 -0.2226,-0.10833 -0.43038,-0.2347 -0.62265,-0.37923 l 0.95673,-1.57029"
       style="fill:#ffffff;fill-opacity:1;fill-rule:nonzero;stroke:none;stroke-width:0.0352778"
       id="path162" />
    <path
       d="m 150.40363,112.6883 c 0,-0.21661 -0.0423,-0.43357 -0.12629,-0.64947 -0.0847,-0.2166 -0.20779,-0.41239 -0.37042,-0.58702 -0.16227,-0.17427 -0.37006,-0.3182 -0.6223,-0.43286 -0.25294,-0.1143 -0.54151,-0.1718 -0.86642,-0.1718 -0.34925,0 -0.65899,0.0575 -0.92957,0.1718 -0.27058,0.11466 -0.49636,0.25859 -0.67698,0.43286 -0.18027,0.17463 -0.31856,0.37042 -0.41487,0.58702 -0.0963,0.2159 -0.14428,0.43286 -0.14428,0.64947 z m 2.07504,3.89819 c -0.036,0.0359 -0.13511,0.13547 -0.29809,0.29778 -0.16193,0.16221 -0.39653,0.33362 -0.70344,0.51428 -0.30727,0.18066 -0.69815,0.34287 -1.17299,0.48715 -0.47554,0.14471 -1.04387,0.21664 -1.70568,0.21664 -0.6738,0 -1.28729,-0.11426 -1.84079,-0.34286 -0.55351,-0.22864 -1.02588,-0.54391 -1.41676,-0.94756 -0.39088,-0.40291 -0.6918,-0.88689 -0.9024,-1.45285 -0.21026,-0.56529 -0.31574,-1.19119 -0.31574,-1.87688 0,-0.62562 0.10548,-1.20594 0.31574,-1.74145 0.2106,-0.53517 0.50553,-1.00154 0.88441,-1.39841 0.37888,-0.39758 0.83009,-0.70979 1.35361,-0.93875 0.52352,-0.2286 1.10349,-0.3429 1.74166,-0.3429 0.76941,0 1.42275,0.14182 1.95757,0.42404 0.53586,0.28293 0.9659,0.653 1.29081,1.1102 0.32491,0.4572 0.5595,0.97437 0.70379,1.55222 0.14429,0.57714 0.21661,1.16677 0.21661,1.7683 v 0.30674 h -6.31649 c 0,0.31295 0.0691,0.59559 0.20743,0.84818 0.13829,0.25273 0.31856,0.46937 0.54152,0.64975 0.22225,0.18051 0.47519,0.31887 0.75812,0.41507 0.28222,0.0964 0.56197,0.14443 0.8389,0.14443 0.40922,0 0.76729,-0.0392 1.07386,-0.1173 0.30691,-0.0781 0.56832,-0.16852 0.78493,-0.27061 0.2166,-0.10227 0.39405,-0.21058 0.53269,-0.32495 0.13829,-0.11412 0.24342,-0.20768 0.31574,-0.27975 l 1.15499,1.29949"
       style="fill:#ffffff;fill-opacity:1;fill-rule:nonzero;stroke:none;stroke-width:0.0352778"
       id="path164" />
    <path
       d="m 87.888591,120.54215 h 7.561792 v 1.55194 h -5.8293 v 3.68156 h 4.439708 v 1.53419 h -4.439708 v 5.26987 h -1.732492 v -12.03756"
       style="fill:#ffffff;fill-opacity:1;fill-rule:nonzero;stroke:none;stroke-width:0.0352778"
       id="path166" />
    <path
       d="m 95.874422,124.18748 h 1.624189 v 4.92717 c 0,0.79414 0.162277,1.36854 0.487186,1.72336 0.324908,0.35486 0.794102,0.53262 1.407936,0.53262 0.468841,0 0.856897,-0.0966 1.163817,-0.28924 0.30691,-0.19223 0.55633,-0.44168 0.74894,-0.74898 0.19227,-0.30646 0.32773,-0.65539 0.40605,-1.04634 0.078,-0.39081 0.11748,-0.79128 0.11748,-1.2004 v -3.89819 h 1.62418 v 7.5438 c 0,0.0484 0,0.15984 0,0.33401 0,0.17462 0.006,0.34618 0.018,0.51442 h -1.55223 l -0.054,-1.24531 c -0.1083,0.14425 -0.24095,0.30082 -0.39723,0.4692 -0.15628,0.16827 -0.3489,0.32205 -0.57714,0.45998 -0.22896,0.13822 -0.49354,0.25605 -0.79411,0.35211 -0.300915,0.0963 -0.644168,0.14429 -1.028696,0.14429 -1.095022,0 -1.901472,-0.3157 -2.418644,-0.94756 -0.517172,-0.63155 -0.775758,-1.49448 -0.775758,-2.58974 v -5.0352"
       style="fill:#ffffff;fill-opacity:1;fill-rule:nonzero;stroke:none;stroke-width:0.0352778"
       id="path168" />
    <path
       d="m 104.73549,132.57971 v -7.52588 c 0,-0.1083 0,-0.21936 0,-0.33376 0,-0.11423 -0.006,-0.29172 -0.018,-0.53259 h 1.55187 l 0.0543,1.26365 c 0.1083,-0.14468 0.24024,-0.30371 0.39687,-0.47844 0.15628,-0.1742 0.3489,-0.33404 0.5775,-0.47833 0.2286,-0.14429 0.49636,-0.26458 0.80328,-0.36089 0.30691,-0.0964 0.65264,-0.14429 1.03752,-0.14429 1.09467,0 1.90676,0.31888 2.43663,0.95635 0.52917,0.63789 0.79375,1.50428 0.79375,2.59898 v 5.0352 h -1.62419 v -4.90897 c 0,-0.78176 -0.16862,-1.3564 -0.50517,-1.72364 -0.33691,-0.36657 -0.8121,-0.55041 -1.42593,-0.55041 -0.46884,0 -0.86007,0.0967 -1.17299,0.289 -0.31291,0.19262 -0.56233,0.44207 -0.74895,0.74852 -0.18662,0.30703 -0.32208,0.65624 -0.40604,1.04719 -0.0843,0.39081 -0.1263,0.79128 -0.1263,1.20011 v 3.8982 h -1.62419"
       style="fill:#ffffff;fill-opacity:1;fill-rule:nonzero;stroke:none;stroke-width:0.0352778"
       id="path170" />
    <path
       d="m 119.80475,126.04616 c -0.21661,-0.18024 -0.49354,-0.33045 -0.83009,-0.45075 -0.33725,-0.12029 -0.74612,-0.18065 -1.22731,-0.18065 -0.39688,0 -0.76094,0.0724 -1.09185,0.2166 -0.3309,0.14429 -0.61983,0.34893 -0.86607,0.6138 -0.24694,0.26458 -0.43956,0.58953 -0.57785,0.97441 -0.13829,0.3853 -0.20743,0.81841 -0.20743,1.29921 0,0.3973 0.048,0.77336 0.14429,1.12822 0.0963,0.35496 0.24376,0.66459 0.44238,0.92918 0.19861,0.265 0.4512,0.4724 0.75812,0.62304 0.30656,0.15032 0.67028,0.22542 1.09149,0.22542 0.42122,0 0.78211,-0.0783 1.08303,-0.23495 0.30057,-0.15585 0.54398,-0.35168 0.73096,-0.58621 0.18626,-0.23467 0.3249,-0.49322 0.41486,-0.77625 0.0903,-0.2825 0.13547,-0.54391 0.13547,-0.78479 z m 0,5.46848 c -0.0603,0.0723 -0.15946,0.18383 -0.29775,0.33404 -0.13864,0.1506 -0.32208,0.29778 -0.55033,0.44207 -0.2286,0.14428 -0.49636,0.27093 -0.80327,0.37923 -0.30657,0.10831 -0.66499,0.16193 -1.07386,0.16193 -0.52952,0 -1.0227,-0.10199 -1.4799,-0.30664 -0.4572,-0.20422 -0.85443,-0.49318 -1.19098,-0.86592 -0.3369,-0.37292 -0.59866,-0.82699 -0.78493,-1.3625 -0.18662,-0.53548 -0.27975,-1.13425 -0.27975,-1.79599 0,-0.79414 0.13793,-1.4767 0.41486,-2.04858 0.27658,-0.57119 0.62865,-1.04028 1.05587,-1.40752 0.42686,-0.36657 0.89006,-0.63433 1.38959,-0.80299 0.49918,-0.16827 0.97155,-0.25259 1.41675,-0.25259 0.4572,0 0.8509,0.0479 1.18216,0.14429 0.33056,0.0963 0.66464,0.2286 1.00154,0.39687 v -3.98819 h 1.62419 v 11.18913 c 0,0.0484 0,0.15984 0,0.33401 0,0.17462 0.006,0.34618 0.018,0.51442 h -1.58821 l -0.054,-1.06507"
       style="fill:#ffffff;fill-opacity:1;fill-rule:nonzero;stroke:none;stroke-width:0.0352778"
       id="path172" />
    <path
       d="m 62.732608,124.50745 1.350645,-0.63292 c 1.327433,3.9165 5.151367,4.98972 8.690152,3.14716 l 0.548745,1.34056 c -4.642732,2.63589 -8.95932,0.95317 -10.589542,-3.8548 z m 15.869497,-3.42759 c -0.710248,1.40889 -1.647437,2.2291 -3.077034,2.2291 -1.616957,0 -2.450147,-1.08162 -2.65945,-2.33536 -0.886496,1.04458 -2.034011,1.39665 -3.232044,1.0287 -1.304044,-0.41589 -2.189868,-1.6535 -2.189868,-3.6347 0,-2.7135 1.511441,-6.15308 3.231373,-7.61429 l -0.807931,-1.78752 c -0.09853,0.23883 -0.829593,1.66687 -1.182794,2.25989 l -1.078159,-0.46637 c 0,0 0.750464,-1.65206 0.917081,-2.00201 1.647296,-3.48862 3.532858,-6.69114 3.532858,-8.829679 0,-0.88653 -0.614998,-1.4986 -1.130653,-1.512358 -1.617557,-0.04551 -4.055039,3.473097 -6.452129,8.635297 -1.907469,4.07987 -2.995718,7.0013 -3.161347,9.13726 l -1.114002,0.41522 c -1.458807,-2.11861 -3.607012,-3.71295 -6.203939,-3.71295 -2.189565,0 -3.389147,1.04203 -3.389147,1.77542 0,0.67811 0.677718,0.93804 1.043174,1.0426 3.179153,0.83496 4.431231,3.44029 5.420773,7.35186 1.460183,5.68578 5.21522,9.49176 10.687544,9.49176 5.681627,0 11.104491,-4.90181 10.845694,-11.47187"
       style="fill:#ffffff;fill-opacity:1;fill-rule:nonzero;stroke:none;stroke-width:0.0352778"
       id="path174" />
    <path
       d="m 66.713776,99.905043 c -1.043728,-2.293408 -1.928989,-3.441347 -2.657828,-3.441347 -1.044398,0 -1.513099,1.304925 -1.513099,2.398536 0,1.304218 0.468701,3.129848 1.408642,5.580948 0.937083,-1.87855 1.876601,-3.3902 2.762285,-4.538137"
       style="fill:#ffffff;fill-opacity:1;fill-rule:nonzero;stroke:none;stroke-width:0.0352778"
       id="path176" />
    <path
       d="m 70.847061,119.52792 c -0.668478,0 -1.211156,-0.54074 -1.211156,-1.21172 0,-0.66682 0.542678,-1.21007 1.211156,-1.21007 0.669326,0 1.210346,0.54325 1.210346,1.21007 0,0.67098 -0.54102,1.21172 -1.210346,1.21172 z m -2.047486,-1.16032 c 0,1.77355 0.781332,2.4427 1.719086,2.43663 1.188014,-0.008 2.4638,-1.60154 3.350718,-4.21139 1.094846,-2.70993 1.010356,-4.97628 -0.07814,-5.47969 -2.250475,-1.03858 -4.991664,3.91685 -4.991664,7.25445"
       style="fill:#ffffff;fill-opacity:1;fill-rule:nonzero;stroke:none;stroke-width:0.0352778"
       id="path178" />
    <path
       d="m 76.068172,118.69226 c 0.602051,0 1.089766,0.48853 1.089766,1.09005 0,0.60177 -0.487715,1.08934 -1.089766,1.08934 -0.601098,0 -1.089624,-0.48757 -1.089624,-1.08934 0,-0.60152 0.488526,-1.09005 1.089624,-1.09005 z m -0.543101,3.31004 c 1.639182,0 2.970107,-2.43526 3.335831,-4.62703 0.31295,-1.87618 -0.155716,-3.28401 -1.198068,-3.28401 -1.146669,0 -2.672433,2.34597 -3.246367,4.58749 -0.363255,1.25236 -0.455859,3.32355 1.108604,3.32355"
       style="fill:#ffffff;fill-opacity:1;fill-rule:nonzero;stroke:none;stroke-width:0.0352778"
       id="path180" />
    <path
       d="m 78.072374,131.48638 c -0.03387,0.0233 -0.08929,0.0339 -0.166159,0.0339 h -0.126929 v -0.32357 h 0.178717 c 0.05002,0 0.08943,0.0128 0.121567,0.0378 0.03045,0.0251 0.04477,0.066 0.04477,0.12499 0,0.0609 -0.01612,0.10361 -0.05196,0.12689 z m 0.11631,0.23608 c 0.06975,-0.0303 0.125131,-0.0787 0.169792,-0.14471 0.04463,-0.0645 0.06615,-0.14496 0.06615,-0.2413 0,-0.11987 -0.03926,-0.21484 -0.121532,-0.28607 -0.0805,-0.0716 -0.184114,-0.10721 -0.311044,-0.10721 h -0.525568 v 1.26365 h 0.312808 v -0.43779 h 0.09123 l 0.276966,0.43779 h 0.352249 l -0.311045,-0.48436"
       style="fill:#ffffff;fill-opacity:1;fill-rule:nonzero;stroke:none;stroke-width:0.0352778"
       id="path182" />
    <path
       d="m 78.766111,132.0033 c -0.04646,0.11244 -0.110807,0.21082 -0.191276,0.29309 -0.0805,0.0839 -0.177095,0.14637 -0.287867,0.19114 -0.112606,0.0449 -0.232339,0.066 -0.364631,0.066 -0.134091,0 -0.255658,-0.0211 -0.366571,-0.066 -0.109009,-0.0448 -0.203659,-0.10721 -0.284163,-0.19114 -0.08227,-0.0823 -0.144815,-0.18065 -0.187677,-0.29309 -0.0448,-0.11465 -0.06615,-0.23964 -0.06615,-0.37923 0,-0.13769 0.02134,-0.26458 0.06615,-0.38075 0.04286,-0.11427 0.10541,-0.21266 0.187677,-0.29313 0.0805,-0.0821 0.175154,-0.14471 0.284163,-0.18768 0.110913,-0.0448 0.23248,-0.0681 0.366571,-0.0681 0.132292,0 0.252025,0.0233 0.364631,0.0681 0.110772,0.043 0.207363,0.10556 0.287867,0.18768 0.08047,0.0805 0.144815,0.17886 0.191276,0.29313 0.04463,0.11617 0.06791,0.24306 0.06791,0.38075 0,0.13959 -0.02328,0.26458 -0.06791,0.37923 z m 0.373556,-0.912 c -0.06435,-0.16083 -0.155433,-0.29668 -0.273543,-0.41091 -0.117934,-0.11261 -0.257387,-0.20218 -0.418219,-0.26459 -0.160937,-0.0646 -0.336091,-0.095 -0.525568,-0.095 -0.187713,0 -0.362973,0.0303 -0.523804,0.095 -0.162737,0.0624 -0.30219,0.15198 -0.420159,0.26459 -0.116169,0.11423 -0.207257,0.25008 -0.273402,0.41091 -0.06449,0.15918 -0.09839,0.33624 -0.09839,0.53277 0,0.19318 0.0339,0.36819 0.09839,0.52917 0.06615,0.15899 0.157233,0.29516 0.273402,0.40954 0.117969,0.11243 0.257422,0.20175 0.420159,0.26458 0.160831,0.0642 0.336091,0.0963 0.523804,0.0963 0.189477,0 0.364631,-0.0321 0.525568,-0.0963 0.160832,-0.0628 0.300285,-0.15215 0.418219,-0.26458 0.11811,-0.11438 0.209197,-0.25055 0.273543,-0.40954 0.06615,-0.16098 0.09839,-0.33599 0.09839,-0.52917 0,-0.19653 -0.03224,-0.37359 -0.09839,-0.53277"
       style="fill:#ffffff;fill-opacity:1;fill-rule:nonzero;stroke:none;stroke-width:0.0352778"
       id="path184" />
    <path
       d="m 88.059336,96.463696 h 0.506589 l 1.117952,1.910645 1.1176,-1.910645 h 0.495653 l 0.170745,3.672774 H 90.95035 l -0.121356,-2.819404 -1.03505,1.734608 h -0.264583 l -1.01847,-1.712383 -0.126647,2.797179 h -0.495653 l 0.170745,-3.672774"
       style="fill:#ffffff;fill-opacity:1;fill-rule:nonzero;stroke:none;stroke-width:0.0352778"
       id="path186" />
    <path
       d="m 93.57678,98.925027 c -0.01482,-0.0035 -0.04339,-0.0081 -0.08537,-0.01376 -0.04233,-0.0053 -0.09102,-0.0099 -0.14605,-0.01376 -0.05503,-0.0035 -0.113594,-0.0074 -0.176036,-0.01094 -0.06244,-0.0035 -0.12312,-0.0056 -0.181681,-0.0056 -0.1397,0 -0.252589,0.01658 -0.338666,0.04974 -0.08643,0.03316 -0.154164,0.07444 -0.203906,0.123825 -0.04939,0.04974 -0.08361,0.104775 -0.101953,0.1651 -0.01834,0.06068 -0.02752,0.118533 -0.02752,0.173567 0,0.1397 0.04762,0.24518 0.143227,0.316794 0.0956,0.07126 0.227542,0.107245 0.396523,0.107245 0.0956,0 0.186266,-0.01658 0.272697,-0.04974 0.08608,-0.03281 0.162278,-0.07691 0.228247,-0.131939 0.06632,-0.05503 0.119592,-0.119239 0.159808,-0.192969 0.04022,-0.07303 0.06068,-0.14852 0.06068,-0.225425 z m 0.0053,0.903111 c -0.09525,0.128764 -0.221192,0.224012 -0.37712,0.286452 -0.155927,0.0621 -0.316441,0.0935 -0.481894,0.0935 -0.106186,0 -0.212019,-0.0138 -0.316442,-0.0413 -0.104775,-0.0275 -0.200025,-0.0734 -0.286455,-0.13758 -0.08608,-0.0642 -0.155928,-0.146754 -0.209197,-0.248002 -0.05327,-0.100894 -0.07973,-0.224719 -0.07973,-0.371475 0,-0.275519 0.09631,-0.495652 0.288925,-0.660752 0.192969,-0.1651 0.470958,-0.248003 0.834319,-0.248003 0.05856,0 0.121003,0.0021 0.187325,0.0056 0.06597,0.0039 0.128411,0.0074 0.186972,0.01094 0.05891,0.0039 0.11042,0.0074 0.154164,0.01094 0.0441,0.0039 0.0755,0.0078 0.09384,0.01129 v -0.09384 c 0,-0.190852 -0.05786,-0.327377 -0.173566,-0.409927 -0.115712,-0.0829 -0.272698,-0.124178 -0.470606,-0.124178 -0.194733,0 -0.348897,0.02681 -0.462492,0.08008 -0.113947,0.05327 -0.20955,0.107245 -0.286455,0.162278 l -0.231422,-0.335844 c 0.0441,-0.03669 0.09737,-0.07338 0.159808,-0.110067 0.06244,-0.03669 0.135819,-0.07091 0.220133,-0.101953 0.08467,-0.03104 0.179917,-0.0568 0.286456,-0.07726 0.106186,-0.02011 0.229305,-0.03034 0.369005,-0.03034 0.3302,0 0.589845,0.08008 0.778934,0.239889 0.189088,0.159456 0.283633,0.386292 0.283633,0.679803 v 1.49225 c 0,0.02963 0,0.06174 0,0.09631 0,0.0349 0.0018,0.0783 0.0056,0.12947 h -0.462491 l -0.01129,-0.308335"
       style="fill:#ffffff;fill-opacity:1;fill-rule:nonzero;stroke:none;stroke-width:0.0352778"
       id="path188" />
    <path
       d="m 96.407116,98.143271 c -0.06632,-0.05503 -0.150636,-0.100894 -0.253294,-0.137583 -0.103011,-0.03669 -0.227895,-0.05539 -0.37465,-0.05539 -0.121003,0 -0.232128,0.02223 -0.333022,0.06632 -0.101248,0.0441 -0.189089,0.106539 -0.264584,0.186972 -0.07514,0.08079 -0.133703,0.18027 -0.176036,0.297392 -0.04233,0.117828 -0.06315,0.249766 -0.06315,0.396522 0,0.121356 0.01446,0.236008 0.04374,0.344311 0.02963,0.108303 0.07444,0.202847 0.135114,0.283281 0.06033,0.08079 0.137584,0.144286 0.23107,0.190147 0.09384,0.04586 0.204611,0.06879 0.333375,0.06879 0.128411,0 0.238477,-0.02364 0.3302,-0.07161 0.09172,-0.04763 0.166158,-0.107245 0.222955,-0.178859 0.05715,-0.07161 0.09913,-0.150636 0.126647,-0.236714 0.02752,-0.08608 0.04163,-0.166158 0.04163,-0.239536 z m 0,1.668286 c -0.0187,0.02223 -0.04904,0.05609 -0.09102,0.101953 -0.04233,0.04586 -0.09843,0.09102 -0.167923,0.13476 -0.06985,0.0441 -0.151341,0.0829 -0.24518,0.11571 -0.09349,0.0332 -0.202847,0.0497 -0.327378,0.0497 -0.161925,0 -0.312208,-0.0314 -0.451556,-0.0938 -0.1397,-0.0624 -0.260702,-0.150278 -0.363713,-0.264226 -0.102659,-0.113594 -0.182387,-0.252236 -0.239184,-0.415572 -0.05715,-0.163336 -0.08537,-0.346075 -0.08537,-0.547864 0,-0.242358 0.04198,-0.45085 0.126294,-0.625122 0.08467,-0.174272 0.191912,-0.3175 0.322439,-0.429683 0.130175,-0.111831 0.271639,-0.193322 0.424039,-0.244828 0.152047,-0.05151 0.296334,-0.07726 0.432153,-0.07726 0.139347,0 0.259644,0.01482 0.360539,0.0441 0.100894,0.02963 0.202847,0.06985 0.305858,0.121355 v -1.217083 h 0.4953 v 3.414183 c 0,0.01446 0,0.04868 0,0.1016 0,0.05362 0.0018,0.10583 0.0056,0.15699 h -0.484717 l -0.01623,-0.324912"
       style="fill:#ffffff;fill-opacity:1;fill-rule:nonzero;stroke:none;stroke-width:0.0352778"
       id="path190" />
    <path
       d="m 99.314358,98.633279 c -0.01482,-0.198261 -0.08467,-0.367241 -0.209197,-0.506588 -0.124884,-0.1397 -0.301273,-0.209198 -0.528814,-0.209198 -0.117475,0 -0.222956,0.02011 -0.316442,0.06068 -0.09349,0.04022 -0.173567,0.09349 -0.239536,0.159456 -0.06597,0.06597 -0.117475,0.142522 -0.154164,0.2286 -0.03669,0.08608 -0.05715,0.17533 -0.06068,0.267052 z m 0.445911,1.128889 c -0.02928,0.03316 -0.07338,0.07514 -0.131939,0.126648 -0.05891,0.0515 -0.135114,0.100894 -0.2286,0.148514 -0.09349,0.048 -0.203906,0.0893 -0.330553,0.12418 -0.126647,0.0346 -0.27058,0.0522 -0.432153,0.0522 -0.198261,0 -0.379941,-0.0332 -0.545041,-0.0991 -0.165453,-0.0663 -0.306564,-0.159805 -0.424039,-0.280808 -0.117475,-0.121355 -0.208492,-0.266347 -0.272697,-0.435328 -0.06421,-0.168627 -0.09631,-0.3556 -0.09631,-0.561622 0,-0.186972 0.03104,-0.362303 0.09384,-0.525639 0.06209,-0.163336 0.150284,-0.3048 0.264231,-0.424039 0.113594,-0.119238 0.248708,-0.213783 0.404636,-0.283633 0.155928,-0.0695 0.327731,-0.104775 0.514703,-0.104775 0.220486,0 0.409222,0.04233 0.567266,0.127 0.157692,0.08431 0.287161,0.196145 0.388056,0.335845 0.101247,0.139347 0.17533,0.299155 0.223308,0.479072 0.04762,0.179916 0.07126,0.366889 0.07126,0.561622 h -2.020711 c 0.0035,0.113594 0.02858,0.218369 0.07444,0.313972 0.04586,0.09525 0.107245,0.1778 0.184503,0.24765 0.07691,0.06985 0.1651,0.124884 0.264231,0.1651 0.09913,0.04057 0.203905,0.06068 0.313972,0.06068 0.216253,0 0.394405,-0.03669 0.534105,-0.110067 0.139348,-0.07373 0.240242,-0.144991 0.302684,-0.214841 l 0.280811,0.297391"
       style="fill:#ffffff;fill-opacity:1;fill-rule:nonzero;stroke:none;stroke-width:0.0352778"
       id="path192" />
    <path
       d="m 101.53333,99.580488 c 0.0589,0.04762 0.14323,0.09349 0.25329,0.137583 0.11007,0.0441 0.24801,0.06597 0.41275,0.06597 0.12524,0 0.23989,-0.02293 0.34432,-0.06879 0.10477,-0.04586 0.19473,-0.110067 0.26987,-0.192617 0.0755,-0.08255 0.13335,-0.179211 0.17357,-0.289278 0.0406,-0.110066 0.0603,-0.231069 0.0603,-0.363361 0,-0.12453 -0.0134,-0.242358 -0.0409,-0.352425 -0.0279,-0.110066 -0.0716,-0.207433 -0.13229,-0.291747 -0.0607,-0.08431 -0.13864,-0.151342 -0.23425,-0.201083 -0.0952,-0.04939 -0.21272,-0.07444 -0.35207,-0.07444 -0.17639,0 -0.32702,0.04904 -0.45155,0.14605 -0.12489,0.09737 -0.21308,0.239536 -0.26459,0.426861 -0.0183,0.05856 -0.0293,0.122061 -0.0328,0.189794 -0.004,0.06809 -0.006,0.138642 -0.006,0.21202 z m -0.49001,1.657352 v -3.397605 c 0,-0.03281 0,-0.06703 0,-0.1016 0,-0.03493 -0.002,-0.08925 -0.006,-0.162631 h 0.47378 l 0.0162,0.363362 c 0.0257,-0.03316 0.0624,-0.07338 0.11041,-0.121003 0.0476,-0.04763 0.10725,-0.09349 0.17886,-0.137584 0.0716,-0.0441 0.15487,-0.08184 0.25048,-0.112888 0.0956,-0.0314 0.20566,-0.04692 0.33055,-0.04692 0.19826,0 0.36936,0.03669 0.51505,0.110067 0.145,0.07373 0.26459,0.172508 0.36019,0.297391 0.0956,0.124884 0.16616,0.268112 0.21202,0.429331 0.0459,0.161925 0.0688,0.332317 0.0688,0.512233 0,0.231423 -0.0392,0.431448 -0.11818,0.600428 -0.0787,0.168628 -0.18168,0.308328 -0.30833,0.418395 -0.12664,0.110066 -0.26811,0.191914 -0.42404,0.244824 -0.15628,0.0533 -0.30903,0.0801 -0.45967,0.0801 -0.1725,0 -0.31115,-0.0176 -0.41592,-0.0522 -0.10442,-0.0349 -0.20285,-0.0727 -0.29457,-0.11324 v 1.18957 h -0.49001"
       style="fill:#ffffff;fill-opacity:1;fill-rule:nonzero;stroke:none;stroke-width:0.0352778"
       id="path194" />
    <path
       d="m 105.18423,99.784041 c 0.13229,0 0.25153,-0.02646 0.35771,-0.07973 0.10654,-0.05327 0.1965,-0.12312 0.26988,-0.209197 0.0737,-0.08643 0.12947,-0.185209 0.16792,-0.297392 0.0388,-0.111831 0.0579,-0.226836 0.0579,-0.343958 0,-0.113948 -0.019,-0.226837 -0.0579,-0.33902 -0.0385,-0.11183 -0.0953,-0.212019 -0.17074,-0.299861 -0.0751,-0.08819 -0.1651,-0.15875 -0.26953,-0.212019 -0.10477,-0.05327 -0.22295,-0.08008 -0.35524,-0.08008 -0.13229,0 -0.25153,0.02681 -0.35807,0.08008 -0.10654,0.05327 -0.19615,0.122766 -0.26988,0.209197 -0.073,0.08643 -0.12911,0.185561 -0.16792,0.297391 -0.0385,0.111831 -0.0575,0.226837 -0.0575,0.344312 0,0.117122 0.019,0.231069 0.0575,0.341136 0.0388,0.110066 0.0956,0.209197 0.17074,0.297391 0.0755,0.08819 0.16546,0.15875 0.26988,0.21202 0.10477,0.05327 0.22296,0.07973 0.35525,0.07973 z m 0,0.429679 c -0.19826,0 -0.37994,-0.036 -0.54504,-0.10759 -0.1651,-0.0716 -0.30763,-0.169689 -0.42687,-0.294573 -0.11923,-0.12453 -0.21307,-0.268816 -0.28081,-0.432153 -0.0681,-0.163336 -0.10195,-0.338666 -0.10195,-0.525638 0,-0.187325 0.0339,-0.362656 0.10195,-0.525992 0.0677,-0.163336 0.16158,-0.307622 0.28081,-0.432153 0.11924,-0.124883 0.26177,-0.223308 0.42687,-0.294922 0.1651,-0.07161 0.34678,-0.107245 0.54504,-0.107245 0.19438,0 0.37429,0.03563 0.53975,0.107245 0.1651,0.07161 0.30832,0.170039 0.42933,0.294922 0.12135,0.124531 0.21554,0.268817 0.28363,0.432153 0.0677,0.163336 0.10195,0.338667 0.10195,0.525992 0,0.186972 -0.0342,0.362302 -0.10195,0.525638 -0.0681,0.163337 -0.16228,0.307623 -0.28363,0.432153 -0.12101,0.124884 -0.26423,0.222953 -0.42933,0.294573 -0.16546,0.0716 -0.34537,0.10759 -0.53975,0.10759"
       style="fill:#ffffff;fill-opacity:1;fill-rule:nonzero;stroke:none;stroke-width:0.0352778"
       id="path196" />
    <path
       d="m 107.05642,99.492293 c 0.0914,0.09172 0.20143,0.1651 0.3302,0.220134 0.12841,0.05503 0.27693,0.0829 0.44591,0.0829 0.1651,0 0.30304,-0.02681 0.4131,-0.08008 0.11007,-0.05327 0.1651,-0.136525 0.1651,-0.250472 0,-0.05856 -0.012,-0.109361 -0.036,-0.151342 -0.0236,-0.04233 -0.0639,-0.08008 -0.121,-0.112889 -0.0568,-0.03316 -0.13194,-0.0635 -0.22578,-0.09102 -0.0935,-0.02752 -0.21026,-0.05785 -0.3496,-0.09066 -0.0991,-0.02223 -0.19721,-0.05151 -0.29457,-0.08819 -0.0974,-0.03669 -0.18451,-0.08537 -0.26176,-0.14605 -0.0769,-0.06033 -0.13935,-0.133703 -0.18698,-0.220133 -0.0476,-0.08608 -0.0716,-0.190147 -0.0716,-0.31115 0,-0.124884 0.0282,-0.233892 0.0854,-0.327731 0.0568,-0.09349 0.133,-0.172508 0.2286,-0.236714 0.0953,-0.0642 0.20285,-0.112889 0.32209,-0.145697 0.11924,-0.03316 0.24306,-0.04974 0.37183,-0.04974 0.21625,0 0.40251,0.02858 0.5588,0.08537 0.15592,0.0568 0.29245,0.136877 0.41028,0.239536 l -0.26988,0.341489 c -0.0773,-0.06985 -0.17357,-0.128411 -0.28928,-0.176389 -0.11536,-0.04762 -0.25047,-0.07161 -0.40463,-0.07161 -0.15805,0 -0.28434,0.02575 -0.37994,0.07726 -0.0956,0.05115 -0.14323,0.13582 -0.14323,0.253295 0,0.110066 0.0635,0.191911 0.18979,0.244827 0.127,0.05327 0.29281,0.103717 0.49883,0.151695 0.121,0.02928 0.23389,0.06315 0.33831,0.1016 0.10478,0.03881 0.1965,0.08819 0.27552,0.148872 0.079,0.06068 0.14111,0.134761 0.18698,0.222956 0.0462,0.08819 0.0691,0.194733 0.0691,0.319264 0,0.128763 -0.0296,0.241652 -0.0882,0.338666 -0.0589,0.09737 -0.13794,0.178859 -0.23672,0.24518 -0.0991,0.066 -0.21308,0.11571 -0.34149,0.14852 -0.12876,0.0332 -0.26246,0.0497 -0.40216,0.0497 -0.48437,0 -0.84808,-0.13017 -1.09009,-0.391229 l 0.30304,-0.3302"
       style="fill:#ffffff;fill-opacity:1;fill-rule:nonzero;stroke:none;stroke-width:0.0352778"
       id="path198" />
    <path
       d="m 109.46801,99.492293 c 0.0917,0.09172 0.20179,0.1651 0.3302,0.220134 0.12841,0.05503 0.27728,0.0829 0.44626,0.0829 0.1651,0 0.30304,-0.02681 0.4131,-0.08008 0.11007,-0.05327 0.1651,-0.136525 0.1651,-0.250472 0,-0.05856 -0.012,-0.109361 -0.036,-0.151342 -0.024,-0.04233 -0.0642,-0.08008 -0.121,-0.112889 -0.0568,-0.03316 -0.13194,-0.0635 -0.22578,-0.09102 -0.0938,-0.02752 -0.21026,-0.05785 -0.3496,-0.09066 -0.0991,-0.02223 -0.19721,-0.05151 -0.29457,-0.08819 -0.0974,-0.03669 -0.1845,-0.08537 -0.26176,-0.14605 -0.0769,-0.06033 -0.13935,-0.133703 -0.18698,-0.220133 -0.0476,-0.08608 -0.0716,-0.190147 -0.0716,-0.31115 0,-0.124884 0.0282,-0.233892 0.085,-0.327731 0.0571,-0.09349 0.13335,-0.172508 0.22895,-0.236714 0.0953,-0.0642 0.2025,-0.112889 0.32174,-0.145697 0.11959,-0.03316 0.24341,-0.04974 0.37182,-0.04974 0.21661,0 0.40288,0.02858 0.55916,0.08537 0.15592,0.0568 0.29245,0.136877 0.41028,0.239536 l -0.26988,0.341489 c -0.0773,-0.06985 -0.17356,-0.128411 -0.28928,-0.176389 -0.11571,-0.04762 -0.25047,-0.07161 -0.40463,-0.07161 -0.15805,0 -0.28434,0.02575 -0.37994,0.07726 -0.0956,0.05115 -0.14323,0.13582 -0.14323,0.253295 0,0.110066 0.0635,0.191911 0.18979,0.244827 0.12665,0.05327 0.29281,0.103717 0.49848,0.151695 0.12135,0.02928 0.23424,0.06315 0.33867,0.1016 0.10442,0.03881 0.19649,0.08819 0.27516,0.148872 0.079,0.06068 0.14147,0.134761 0.18733,0.222956 0.0459,0.08819 0.0688,0.194733 0.0688,0.319264 0,0.128763 -0.0293,0.241652 -0.0878,0.338666 -0.0589,0.09737 -0.13794,0.178859 -0.23707,0.24518 -0.0991,0.066 -0.21272,0.11571 -0.34114,0.14852 -0.12876,0.0332 -0.26246,0.0497 -0.40216,0.0497 -0.48472,0 -0.84808,-0.13017 -1.09009,-0.391229 l 0.30269,-0.3302"
       style="fill:#ffffff;fill-opacity:1;fill-rule:nonzero;stroke:none;stroke-width:0.0352778"
       id="path200" />
    <path
       d="m 111.75859,97.576004 h 0.49566 v 2.560466 h -0.49566 z m -0.0328,-1.013177 h 0.55597 v 0.55633 h -0.55597 v -0.55633"
       style="fill:#ffffff;fill-opacity:1;fill-rule:nonzero;stroke:none;stroke-width:0.0352778"
       id="path202" />
    <path
       d="m 113.284,99.712427 c 0.0512,0.01482 0.11466,0.03034 0.1898,0.04692 0.0751,0.01658 0.18627,0.0247 0.33302,0.0247 0.14323,0 0.27164,-0.02293 0.38559,-0.06879 0.11359,-0.04586 0.21202,-0.110067 0.29457,-0.192617 0.0825,-0.08255 0.14605,-0.18168 0.19014,-0.297391 0.0438,-0.115712 0.066,-0.2413 0.066,-0.37712 0,-0.117475 -0.0138,-0.230364 -0.0413,-0.338667 -0.0275,-0.108302 -0.0716,-0.203905 -0.13229,-0.286455 -0.0603,-0.08255 -0.13653,-0.14852 -0.2286,-0.198261 -0.0917,-0.04939 -0.20356,-0.07444 -0.33585,-0.07444 -0.121,0 -0.22683,0.02152 -0.31644,0.0635 -0.09,0.04233 -0.1651,0.09737 -0.22578,0.1651 -0.0607,0.06809 -0.10583,0.146755 -0.13511,0.237066 -0.0293,0.08996 -0.0437,0.182386 -0.0437,0.277636 z m -0.49036,-3.248731 h 0.49566 v 1.39312 c 0.0258,-0.03316 0.0614,-0.0695 0.10759,-0.110067 0.0459,-0.04022 0.1016,-0.07796 0.16793,-0.112889 0.066,-0.03493 0.14217,-0.0635 0.22824,-0.08537 0.0864,-0.02187 0.18274,-0.03316 0.28928,-0.03316 0.19085,0 0.35878,0.03422 0.50377,0.101952 0.14499,0.06809 0.26705,0.161573 0.36618,0.280812 0.0991,0.119591 0.17357,0.259997 0.22296,0.421216 0.0497,0.161572 0.0744,0.334081 0.0744,0.517525 0,0.202142 -0.0349,0.387703 -0.10477,0.556331 -0.0695,0.16898 -0.16792,0.313972 -0.29457,0.434975 -0.12665,0.121003 -0.27799,0.215539 -0.45403,0.283629 -0.17639,0.0681 -0.37112,0.10195 -0.58384,0.10195 -0.2092,0 -0.40393,-0.0166 -0.58385,-0.0497 -0.17992,-0.0328 -0.32491,-0.0716 -0.43498,-0.11571 v -3.584571"
       style="fill:#ffffff;fill-opacity:1;fill-rule:nonzero;stroke:none;stroke-width:0.0352778"
       id="path204" />
    <path
       d="m 115.6074,96.463696 h 0.49565 v 3.672774 h -0.49565 v -3.672774"
       style="fill:#ffffff;fill-opacity:1;fill-rule:nonzero;stroke:none;stroke-width:0.0352778"
       id="path206" />
    <path
       d="m 118.5037,98.633279 c -0.0145,-0.198261 -0.0843,-0.367241 -0.20919,-0.506588 -0.12489,-0.1397 -0.30092,-0.209198 -0.52846,-0.209198 -0.11783,0 -0.22296,0.02011 -0.3168,0.06068 -0.0935,0.04022 -0.17321,0.09349 -0.23953,0.159456 -0.066,0.06597 -0.11748,0.142522 -0.15417,0.2286 -0.0367,0.08608 -0.0568,0.17533 -0.0603,0.267052 z m 0.44627,1.128889 c -0.0296,0.03316 -0.0737,0.07514 -0.13229,0.126648 -0.0589,0.0515 -0.13476,0.100894 -0.2286,0.148514 -0.0935,0.048 -0.20356,0.0893 -0.3302,0.12418 -0.12665,0.0346 -0.27094,0.0522 -0.43216,0.0522 -0.19861,0 -0.38029,-0.0332 -0.54539,-0.0991 -0.1651,-0.0663 -0.30656,-0.159805 -0.42404,-0.280808 -0.11747,-0.121355 -0.20849,-0.266347 -0.27234,-0.435328 -0.0646,-0.168627 -0.0967,-0.3556 -0.0967,-0.561622 0,-0.186972 0.0314,-0.362303 0.0938,-0.525639 0.0621,-0.163336 0.15029,-0.3048 0.26423,-0.424039 0.1136,-0.119238 0.24871,-0.213783 0.40499,-0.283633 0.15593,-0.0695 0.32738,-0.104775 0.51471,-0.104775 0.22013,0 0.40922,0.04233 0.56691,0.127 0.15804,0.08431 0.28716,0.196145 0.38841,0.335845 0.10089,0.139347 0.17533,0.299155 0.22295,0.479072 0.0476,0.179916 0.0716,0.366889 0.0716,0.561622 h -2.02071 c 0.004,0.113594 0.0282,0.218369 0.0741,0.313972 0.0459,0.09525 0.10724,0.1778 0.1845,0.24765 0.0769,0.06985 0.1651,0.124884 0.26423,0.1651 0.0991,0.04057 0.20391,0.06068 0.31398,0.06068 0.2166,0 0.39475,-0.03669 0.5341,-0.110067 0.1397,-0.07373 0.24024,-0.144991 0.30304,-0.214841 l 0.28081,0.297391"
       style="fill:#ffffff;fill-opacity:1;fill-rule:nonzero;stroke:none;stroke-width:0.0352778"
       id="path208" />
    <path
       d="m 119.95186,97.576004 h 0.54504 l 0.57291,1.954742 0.61666,-1.954742 h 0.42403 l 0.61666,1.971323 0.56162,-1.971323 h 0.51188 l -0.84772,2.560466 h -0.49001 l -0.59478,-1.789646 -0.5895,1.789646 h -0.46213 l -0.86466,-2.560466"
       style="fill:#ffffff;fill-opacity:1;fill-rule:nonzero;stroke:none;stroke-width:0.0352778"
       id="path210" />
    <path
       d="m 124.08712,97.576004 h 0.49565 v 2.560466 h -0.49565 z m -0.0328,-1.013177 h 0.55598 v 0.55633 h -0.55598 v -0.55633"
       style="fill:#ffffff;fill-opacity:1;fill-rule:nonzero;stroke:none;stroke-width:0.0352778"
       id="path212" />
    <path
       d="m 125.37546,97.989107 h -0.46249 v -0.413103 h 0.46249 v -0.837141 h 0.49566 v 0.837141 h 0.74894 v 0.413103 h -0.74894 v 1.260828 c 0,0.205669 0.0321,0.347133 0.0963,0.424039 0.0646,0.0769 0.15523,0.115711 0.2727,0.115711 0.0956,0 0.17427,-0.01482 0.23671,-0.0441 0.0624,-0.02963 0.12489,-0.07338 0.18733,-0.132292 l 0.22578,0.303036 c -0.10654,0.102661 -0.2159,0.177101 -0.32773,0.222961 -0.11183,0.0459 -0.24483,0.0688 -0.39899,0.0688 -0.27164,0 -0.47096,-0.0734 -0.59761,-0.220137 -0.12665,-0.146755 -0.19015,-0.376414 -0.19015,-0.688269 v -1.31057"
       style="fill:#ffffff;fill-opacity:1;fill-rule:nonzero;stroke:none;stroke-width:0.0352778"
       id="path214" />
    <path
       d="m 127.0882,96.463696 h 0.49001 v 1.49225 c 0.0328,-0.0441 0.0734,-0.09172 0.121,-0.143228 0.0476,-0.05151 0.10654,-0.09913 0.17639,-0.143227 0.0695,-0.04374 0.15028,-0.08043 0.24236,-0.110067 0.0914,-0.02928 0.19614,-0.0441 0.31362,-0.0441 0.33408,0 0.58173,0.09737 0.7433,0.2921 0.16157,0.19438 0.24236,0.458611 0.24236,0.792691 v 1.536355 h -0.49566 v -1.497549 c 0,-0.238831 -0.0512,-0.413808 -0.15416,-0.525992 -0.10266,-0.11183 -0.24765,-0.167922 -0.43497,-0.167922 -0.14323,0 -0.26247,0.02928 -0.35772,0.08819 -0.0956,0.05856 -0.1718,0.134762 -0.2286,0.228248 -0.0571,0.09384 -0.0984,0.200377 -0.12383,0.319616 -0.0258,0.119239 -0.0384,0.2413 -0.0384,0.366184 v 1.189215 h -0.49565 v -3.672771"
       style="fill:#ffffff;fill-opacity:1;fill-rule:nonzero;stroke:none;stroke-width:0.0352778"
       id="path216" />
  </g>
</svg>
