<?xml version="1.0" encoding="UTF-8" standalone="no"?>
<!-- Created with Inkscape (http://www.inkscape.org/) -->

<svg
   width="105.26958mm"
   height="43.43259mm"
   viewBox="0 0 105.26958 43.43259"
   version="1.1"
   id="svg1616"
   xmlns="http://www.w3.org/2000/svg"
   xmlns:svg="http://www.w3.org/2000/svg">
  <defs
     id="defs1613">
    <clipPath
       clipPathUnits="userSpaceOnUse"
       id="clipPath94">
      <path
         d="M 7058.48,1572.39 H 10042.5 V 341.23 H 7058.48 Z"
         id="path92" />
    </clipPath>
  </defs>
  <g
     id="layer1"
     transform="translate(-68.784295,-103.64063)">
    <g
       id="g88"
       transform="matrix(0.03527778,0,0,-0.03527778,-180.22321,159.11106)">
      <g
         id="g90"
         clip-path="url(#clipPath94)">
        <path
           d="m 7673.82,1572.39 c 164.43,0 319.02,-64.03 435.28,-180.3 116.27,-116.27 180.3,-270.85 180.3,-435.281 0,-164.43 -64.03,-319.008 -180.3,-435.278 C 7992.84,405.262 7838.25,341.23 7673.82,341.23 h -615.57 v 615.579 c 0,164.431 64.03,319.011 180.29,435.281 116.27,116.27 270.86,180.3 435.28,180.3"
           style="fill:#ffffff;fill-opacity:1;fill-rule:nonzero;stroke:none"
           id="path96" />
      </g>
    </g>
    <path
       d="m 111.19381,125.35697 c 0,11.43345 -9.26818,20.70131 -20.701712,20.70131 h -20.70135 v -13.2432 h 0.002 c 0.89041,-0.57577 1.80022,-1.13112 2.74214,-1.61936 1.89265,-0.98076 4.07635,-1.33738 6.05331,-0.38985 1.72367,0.82627 3.23744,2.06279 4.48063,3.50738 0.62442,0.72637 1.18357,1.50926 1.66794,2.33578 0.5027,0.85757 0.83396,1.75507 1.24142,2.65878 0.33126,0.73452 0.71226,1.54838 1.29787,2.116 1.02941,0.99702 2.60103,1.59949 4.49227,1.53595 0.88265,-0.0296 1.60973,-0.18506 2.20698,-0.40915 -0.42827,0.0385 -0.85831,0.0434 -1.30281,0.0434 h -0.48683 c -0.75636,0 -1.47144,-0.0131 -2.20733,-0.18274 -0.71685,-0.1651 -1.04987,-0.57146 -1.35749,-1.17298 -0.3496,-0.68517 -0.49389,-1.47532 -0.32385,-2.22042 0.10407,-0.45752 0.37923,-1.04031 0.75283,-1.36384 0.37324,-0.32318 0.9659,-0.47198 1.46367,-0.53167 0.61419,-0.073 1.26083,0.0222 1.89124,0.0366 h 0.0494 c 0.63042,-0.0145 1.27706,-0.10968 1.89124,-0.0366 0.49707,0.0597 1.08973,0.20849 1.46297,0.53167 0.37359,0.32353 0.64876,0.90632 0.75283,1.36384 0.0875,0.38213 0.0914,0.77583 0.0286,1.16056 0.0303,-0.0649 0.043,-0.0889 0.043,-0.0557 1.20227,-1.73221 1.6951,-3.76273 2.44687,-5.77219 0.54504,-1.45658 1.267532,-2.87404 1.731432,-4.35296 0.46885,-1.49324 0.79199,-3.04366 1.43475,-4.47777 0.59373,-1.32708 1.4672,-2.54879 1.78294,-3.96766 0.0603,-0.27058 0.0892,-0.57432 0.0162,-0.83361 -0.0385,-0.13582 -0.10478,-0.25894 -0.20955,-0.35913 -0.22331,-0.21237 -0.56304,-0.25365 -0.86784,-0.21026 -0.78528,0.11042 -1.43086,0.68298 -1.90499,1.31904 -0.91652,1.22414 -1.375132,2.75431 -1.449572,4.28159 -0.0406,0.85027 0.0314,1.70396 -0.0392,2.55214 -0.0695,0.84832 -0.29951,1.7169 -0.85901,2.35864 -0.39088,0.44799 -0.92463,0.7644 -1.26894,1.24946 -0.51823,0.72775 -0.52952,1.20262 -0.36266,2.04682 0.072,0.36061 0.2152,0.69261 0.31997,1.04288 0.12453,0.4166 0.19685,0.85013 0.21061,1.28517 0.01,0.31461 0.0917,0.92742 -0.29492,1.04909 -0.14676,0.0466 -0.30939,0.0149 -0.44803,-0.0525 -0.36865,-0.18136 -0.65123,-0.45477 -0.99342,-0.67815 -0.33161,-0.21621 -0.68192,-0.40484 -0.99519,-0.64904 -0.57291,-0.44732 -0.62089,-1.08094 -0.68509,-1.76498 -0.01,-0.0973 -0.0176,-0.19403 -0.0258,-0.29132 -0.21237,-2.74038 0.28399,-5.01371 0.69956,-7.71123 0.13794,-0.89891 0.32809,-1.81405 0.38876,-2.72115 0.0441,-0.65899 0.0318,-1.31904 0.003,-1.97767 -0.0441,-0.98496 -0.12524,-1.96991 -0.11042,-2.95663 0.0141,-0.91264 0.21166,-1.86832 0.0684,-2.77495 -0.20356,-1.28376 -1.19663,-2.546 -2.2666,-3.23321 -0.45191,-0.28999 -0.92005,-0.55598 -1.4097,-0.77506 -0.96203,-0.43109 -2.03588,-0.6865 -3.08575,-0.47625 -0.44027,0.0882 -0.67839,0.44521 -0.67592,0.89359 0.004,0.4184 0.18662,0.79622 0.32491,1.18251 0.13723,0.38347 0.26176,0.77294 0.3563,1.17052 0.19086,0.80257 0.27799,1.62701 0.32138,2.44933 0.0864,1.58151 -0.0198,3.14431 -0.0568,4.72617 0,0.77999 -0.001,1.54693 0.0755,2.32417 0.0787,0.7881 0.23707,1.57744 0.36019,2.36142 0.43003,2.73925 0.88265,5.4701 0.61947,8.25363 -0.0561,0.58977 -0.0709,1.47598 -0.70343,1.75052 -0.24554,0.10678 -0.48719,0.20422 -0.72179,0.33362 -0.36583,0.20076 -0.71508,0.43367 -1.03752,0.69783 -0.24765,0.20355 -0.58032,0.47985 -0.93486,0.36724 -0.38629,-0.12305 -0.31856,-0.56649 -0.2921,-0.88484 0.0261,-0.31281 0.0716,-0.62396 0.1203,-0.93444 0.14993,-0.96657 0.34678,-1.99954 0.1203,-2.97106 -0.14747,-0.62974 -0.58244,-0.90275 -1.04987,-1.29261 -0.50306,-0.41878 -0.98355,-0.88194 -1.33632,-1.43729 -0.61243,-0.9598 -0.65158,-2.10562 -0.89288,-3.18861 -0.26741,-1.19864 -1.08374,-2.08266 -1.84186,-3.01474 -0.89993,-1.10648 -1.62701,-2.25372 -2.74708,-3.17694 -0.64805,-0.53445 -1.33385,-1.02764 -2.16464,-1.22308 -0.71014,-0.16721 -1.44674,-0.1658 -2.1717,-0.1598 -1.09714,0.01 -2.1971,0.17885 -3.21592,0.59866 -0.15487,0.0642 -0.3422,0.13794 -0.50306,0.21519 0.59196,-2.35937 1.59138,-4.57059 2.91535,-6.53062 3.72004,-5.50615 10.0203,-9.12706 17.16581,-9.12706 7.14587,0 13.445782,3.62091 17.166172,9.12706 2.23203,3.30412 3.53554,7.28733 3.53554,11.57468 v 0"
       style="fill:#100f0d;fill-opacity:1;fill-rule:nonzero;stroke:none;stroke-width:0.0352778"
       id="path98" />
    <path
       d="m 104.02854,121.55222 c -0.31574,1.41887 -1.18921,2.64058 -1.78294,3.96766 -0.64276,1.43411 -0.9659,2.98453 -1.43475,4.47777 -0.4639,1.47892 -1.186392,2.89638 -1.731432,4.35296 -0.75177,2.00946 -1.2446,4.03998 -2.44687,5.77219 0,-0.0332 -0.0127,-0.009 -0.043,0.0557 0.0628,-0.38473 0.0589,-0.77843 -0.0286,-1.16056 -0.10407,-0.45752 -0.37924,-1.04031 -0.75283,-1.36384 -0.37324,-0.32318 -0.9659,-0.47198 -1.46297,-0.53167 -0.61418,-0.073 -1.26082,0.0222 -1.89124,0.0366 h -0.0494 c -0.63041,-0.0145 -1.27705,-0.10968 -1.89124,-0.0366 -0.49777,0.0597 -1.09043,0.20849 -1.46367,0.53167 -0.3736,0.32353 -0.64876,0.90632 -0.75283,1.36384 -0.17004,0.7451 -0.0257,1.53525 0.32385,2.22042 0.30762,0.60152 0.64064,1.00788 1.35749,1.17298 0.73589,0.16965 1.45097,0.18274 2.20733,0.18274 h 0.48683 c 0.4445,0 0.87454,-0.005 1.30281,-0.0434 -0.59725,0.22409 -1.32433,0.37952 -2.20698,0.40915 -1.89124,0.0635 -3.46286,-0.53893 -4.49227,-1.53595 -0.58561,-0.56762 -0.96661,-1.38148 -1.29787,-2.116 -0.40746,-0.90371 -0.73872,-1.80121 -1.24142,-2.65878 -0.48437,-0.82652 -1.04352,-1.60941 -1.66794,-2.33578 -1.24319,-1.44459 -2.75696,-2.68111 -4.48063,-3.50738 -1.97696,-0.94753 -4.16066,-0.59091 -6.05331,0.38985 -0.94192,0.48824 -1.85173,1.04359 -2.74214,1.61936 h -0.002 l 0.002,-7.45878 c 0,-1.73962 0.21449,-3.42872 0.61842,-5.04339 0.16086,-0.0772 0.34819,-0.15099 0.50306,-0.21519 1.01882,-0.41981 2.11878,-0.58914 3.21592,-0.59866 0.72496,-0.006 1.46156,-0.007 2.1717,0.1598 0.83079,0.19544 1.51659,0.68863 2.16464,1.22308 1.12007,0.92322 1.84715,2.07046 2.74708,3.17694 0.75812,0.93208 1.57445,1.8161 1.84186,3.01474 0.2413,1.08299 0.28045,2.22881 0.89288,3.18861 0.35277,0.55535 0.83326,1.01851 1.33632,1.43729 0.46743,0.38986 0.9024,0.66287 1.04987,1.29261 0.22648,0.97152 0.0296,2.00449 -0.1203,2.97106 -0.0487,0.31048 -0.0942,0.62163 -0.1203,0.93444 -0.0265,0.31835 -0.0942,0.76179 0.2921,0.88484 0.35454,0.11261 0.68721,-0.16369 0.93486,-0.36724 0.32244,-0.26416 0.67169,-0.49707 1.03752,-0.69783 0.2346,-0.1294 0.47625,-0.22684 0.72179,-0.33362 0.63253,-0.27454 0.64734,-1.16075 0.70343,-1.75052 0.26318,-2.78353 -0.18944,-5.51438 -0.61947,-8.25363 -0.12312,-0.78398 -0.28152,-1.57332 -0.36019,-2.36142 -0.0769,-0.77724 -0.0755,-1.54418 -0.0755,-2.32417 0.037,-1.58186 0.14322,-3.14466 0.0568,-4.72617 -0.0434,-0.82232 -0.13052,-1.64676 -0.32138,-2.44933 -0.0945,-0.39758 -0.21907,-0.78705 -0.3563,-1.17052 -0.13829,-0.38629 -0.32138,-0.76411 -0.32491,-1.18251 -0.002,-0.44838 0.23565,-0.80539 0.67592,-0.89359 1.04987,-0.21025 2.12372,0.0452 3.08575,0.47625 0.48965,0.21908 0.95779,0.48507 1.4097,0.77506 1.06997,0.68721 2.06304,1.94945 2.2666,3.23321 0.14322,0.90663 -0.0543,1.86231 -0.0684,2.77495 -0.0148,0.98672 0.0663,1.97167 0.11042,2.95663 0.0289,0.65863 0.0413,1.31868 -0.003,1.97767 -0.0607,0.9071 -0.25082,1.82224 -0.38876,2.72115 -0.41557,2.69752 -0.91193,4.97085 -0.69956,7.71123 0.008,0.0973 0.0162,0.19403 0.0258,0.29132 0.0642,0.68404 0.11218,1.31766 0.68509,1.76498 0.31327,0.2442 0.66358,0.43283 0.99519,0.64904 0.34219,0.22338 0.62477,0.49679 0.99342,0.67815 0.13864,0.0674 0.30127,0.0991 0.44803,0.0525 0.38664,-0.12167 0.3048,-0.73448 0.29492,-1.04909 -0.0138,-0.43504 -0.0861,-0.86857 -0.21061,-1.28517 -0.10477,-0.35027 -0.248,-0.68227 -0.31997,-1.04288 -0.16686,-0.8442 -0.15557,-1.31907 0.36266,-2.04682 0.34431,-0.48506 0.87806,-0.80147 1.26894,-1.24946 0.5595,-0.64174 0.78952,-1.51032 0.85901,-2.35864 0.0706,-0.84818 -10e-4,-1.70187 0.0392,-2.55214 0.0744,-1.52728 0.533052,-3.05745 1.449572,-4.28159 0.47413,-0.63606 1.11971,-1.20862 1.90499,-1.31904 0.3048,-0.0434 0.64453,-0.002 0.86784,0.21026 0.10477,0.10019 0.1711,0.22331 0.20955,0.35913 0.073,0.25929 0.0441,0.56303 -0.0162,0.83361 v 0"
       style="fill:#ffffff;fill-opacity:1;fill-rule:nonzero;stroke:none;stroke-width:0.0352778"
       id="path100" />
    <path
       d="m 83.017098,113.61084 c -0.0995,0.11501 -0.27623,0.13406 -0.42122,0.0896 -0.14534,-0.0445 -0.26846,-0.14006 -0.39229,-0.22754 -1.35325,-0.95744 -4.01955,-1.29858 -5.33047,-0.0169 -0.0201,0.0194 -0.0392,0.0395 -0.0572,0.06 -0.87877,0.98672 0.4452,2.87338 1.00259,3.72781 -2.47826,-2.37914 -2.16147,-4.22804 -2.06869,-4.55295 0.13724,-0.48013 0.62477,-0.76518 1.08903,-0.95003 2.04682,-0.81668 4.62915,-0.66499 6.05896,1.19909 0.15028,0.19579 0.28046,0.48436 0.11924,0.67098 v 0"
       style="fill:#ffffff;fill-opacity:1;fill-rule:nonzero;stroke:none;stroke-width:0.0352778"
       id="path102" />
    <path
       d="m 87.931288,129.78119 c -0.28187,0.10788 -0.54716,0.1827 -0.83573,0.22073 -0.28363,0.0375 -0.57997,0.0353 -0.86042,-0.0398 -0.2787,-0.0735 -0.55175,-0.21481 -0.73449,-0.44482 -0.16192,-0.20958 -0.24377,-0.47212 -0.23318,-0.72788 7e-4,-0.0249 -0.002,-0.05 7e-4,-0.0747 0.11183,0.2551 0.28963,0.48081 0.51612,0.62714 0.22366,0.15423 0.49318,0.21911 0.76058,0.2293 0.26953,0.004 0.54117,-0.0335 0.80716,-0.098 0.13335,-0.0321 0.26599,-0.0678 0.39758,-0.10901 0.0356,-0.0145 0.11113,-0.0219 0.16122,0.001 0.0543,0.0204 0.10019,0.0629 0.12453,0.11646 0.0526,0.10611 0.004,0.24765 -0.10407,0.29919 v 0"
       style="fill:#ffffff;fill-opacity:1;fill-rule:nonzero;stroke:none;stroke-width:0.0352778"
       id="path104" />
    <path
       d="m 88.085098,128.44088 0.0311,0.0812 -0.15734,0.0733 -0.0466,-0.0867 c -0.1143,-0.21318 -0.49636,-0.83576 -1.13065,-1.05942 -0.0367,0.20806 -0.20461,0.38625 -0.42192,0.42223 -0.0272,0.005 -0.0547,0.007 -0.0815,0.007 -0.1016,0 -0.19826,-0.0321 -0.27834,-0.0938 -0.0988,-0.0762 -0.16016,-0.18838 -0.17251,-0.3157 -0.002,-0.0219 -3.5e-4,-0.0438 7.1e-4,-0.0653 -0.35454,0.10336 -0.53693,0.35567 -0.67945,0.55989 -0.0497,0.0717 -0.0928,0.13258 -0.13864,0.18165 -0.007,0.007 -0.0134,0.0163 -0.0198,0.0255 -0.0226,0.0303 -0.0529,0.0713 -0.10371,0.0934 -0.054,0.0233 -0.11183,0.0134 -0.15382,-0.026 -0.0589,-0.0554 -0.0727,-0.15462 -0.0512,-0.21484 h 3.5e-4 c 0.13089,-0.36629 0.3549,-0.67814 0.66499,-0.92826 0.19156,-0.14386 0.37641,-0.23538 0.56797,-0.28113 0.20603,-0.0536 0.44133,-0.0515 0.66146,0.006 0.19368,0.0504 0.38206,0.14457 0.55915,0.27866 0.14323,0.10583 0.2787,0.23742 0.41275,0.40181 0.22367,0.28046 0.40393,0.59658 0.53693,0.94079 v 0"
       style="fill:#ffffff;fill-opacity:1;fill-rule:nonzero;stroke:none;stroke-width:0.0352778"
       id="path106" />
    <path
       d="m 91.142268,138.30282 c -0.008,-4.3e-4 -0.0169,-0.001 -0.0254,-0.003 l -10e-4,-3.9e-4 c -0.16862,-0.0335 -0.33055,-0.0666 -0.48895,-0.0819 -0.15698,-0.0158 -0.3182,-0.012 -0.47519,0.012 -0.15346,0.0251 -0.30445,0.0766 -0.43815,0.1567 -0.1337,0.08 -0.24906,0.19015 -0.3235,0.3277 l -3.5e-4,6.7e-4 c -0.0201,0.0375 -0.0667,0.0515 -0.10407,0.0314 -0.0349,-0.0186 -0.0494,-0.0602 -0.0349,-0.0959 0.0688,-0.17501 0.19332,-0.32561 0.34149,-0.43917 0.14816,-0.11437 0.31891,-0.19625 0.49918,-0.24765 0.17709,-0.0502 0.35948,-0.0791 0.54469,-0.0847 0.1845,-0.006 0.3623,0.007 0.53304,0.0187 0.11219,0.007 0.19721,0.10404 0.1898,0.21622 -0.007,0.11218 -0.10443,0.19692 -0.21626,0.18948 v 0"
       style="fill:#ffffff;fill-opacity:1;fill-rule:nonzero;stroke:none;stroke-width:0.0352778"
       id="path108" />
    <path
       d="m 98.425368,128.87801 c 0.0106,0.25618 -0.0713,0.51925 -0.23318,0.72912 -0.1831,0.22973 -0.45579,0.37151 -0.73484,0.44495 -0.28046,0.0747 -0.57644,0.0776 -0.86043,0.0401 -0.28822,-0.0385 -0.5535,-0.11356 -0.83573,-0.22144 -0.10759,-0.0512 -0.15663,-0.19265 -0.10407,-0.29919 0.0243,-0.0533 0.0706,-0.0959 0.12453,-0.11646 0.0505,-0.0229 0.12559,-0.0158 0.16158,-0.001 0.13123,0.0413 0.26387,0.0766 0.39722,0.10873 0.26635,0.0649 0.53764,0.10266 0.80716,0.0984 0.26741,-0.0102 0.53693,-0.0751 0.76059,-0.22959 0.22648,-0.14605 0.40393,-0.37109 0.51611,-0.6259 0,-2.8e-4 3.6e-4,-6.7e-4 3.6e-4,-9.5e-4 0,0 0,0 0,2.8e-4 0,-2.8e-4 0,-2.8e-4 0,-2.8e-4 3.5e-4,0.002 0,0.005 3.5e-4,0.007 0.002,0.0218 -3.5e-4,0.0441 3.5e-4,0.0663 v 0"
       style="fill:#ffffff;fill-opacity:1;fill-rule:nonzero;stroke:none;stroke-width:0.0352778"
       id="path110" />
    <path
       d="m 98.960178,128.3276 c -0.0423,0.04 -0.10054,0.0491 -0.15416,0.0258 -0.0508,-0.0222 -0.0811,-0.0631 -0.10337,-0.0935 -0.006,-0.009 -0.0131,-0.018 -0.0205,-0.0253 -0.0455,-0.0488 -0.0885,-0.11053 -0.13829,-0.18179 -0.14216,-0.20351 -0.32561,-0.45543 -0.67945,-0.55904 0.001,0.0215 0.002,0.043 3.6e-4,0.0649 -0.0116,0.12731 -0.073,0.2395 -0.17216,0.3157 -0.0797,0.0617 -0.17674,0.0938 -0.27834,0.0938 -0.0272,0 -0.054,-0.002 -0.0815,-0.007 -0.21731,-0.0364 -0.38523,-0.21417 -0.42157,-0.42224 -0.63465,0.22324 -1.01635,0.84624 -1.13065,1.05928 l -0.0469,0.0865 -0.15734,-0.0735 0.0318,-0.0807 c 0.13264,-0.34438 0.31291,-0.66075 0.53622,-0.94121 0.13406,-0.16411 0.26952,-0.29556 0.4124,-0.40139 0.17744,-0.13451 0.36548,-0.22793 0.55986,-0.27908 0.21978,-0.0573 0.45543,-0.0591 0.66145,-0.006 0.19086,0.0458 0.37607,0.13727 0.56762,0.28113 0.31045,0.25012 0.53446,0.56236 0.66534,0.92784 0.0219,0.0604 0.008,0.15971 -0.0508,0.21509 v 0"
       style="fill:#ffffff;fill-opacity:1;fill-rule:nonzero;stroke:none;stroke-width:0.0352778"
       id="path112" />
    <path
       d="m 103.04429,117.24339 c 0.55704,-0.85513 1.88136,-2.74178 1.00259,-3.7285 -0.018,-0.0201 -0.037,-0.0402 -0.0572,-0.0596 -1.31092,-1.282 -3.97756,-0.94086 -5.330472,0.0169 -0.12417,0.0875 -0.24694,0.18309 -0.39229,0.22754 -0.14499,0.0444 -0.32173,0.0254 -0.42121,-0.0896 -0.16157,-0.18662 -0.031,-0.47555 0.11924,-0.67099 1.42945,-1.86372 4.012142,-2.01577 6.058952,-1.19909 0.46391,0.18486 0.9518,0.46955 1.08903,0.95003 0.0924,0.32491 0.40957,2.17347 -2.06869,4.5533 v 0"
       style="fill:#ffffff;fill-opacity:1;fill-rule:nonzero;stroke:none;stroke-width:0.0352778"
       id="path114" />
    <path
       d="m 117.34132,140.69497 v -0.67374 l 1.06715,-0.0721 c 0.14499,-0.0105 0.1658,-0.0518 0.1658,-0.2074 V 134.086 h -1.38853 c -0.11359,0 -0.14499,0.0106 -0.16581,0.11395 l -0.16545,0.90095 h -0.8703 v -1.90567 h 6.39127 v 1.90567 h -0.85972 l -0.1658,-0.90095 c -0.0208,-0.10333 -0.0515,-0.11395 -0.16581,-0.11395 h -1.39841 v 5.65573 c 0,0.14499 0.0106,0.1863 0.16616,0.19692 l 1.13912,0.0825 v 0.67374 h -3.74967 v 0"
       style="fill:#ffffff;fill-opacity:1;fill-rule:nonzero;stroke:none;stroke-width:0.0352778"
       id="path116" />
    <path
       d="m 122.55502,140.69497 v -0.67374 l 0.49741,-0.0617 c 0.145,-0.0208 0.16581,-0.052 0.16581,-0.20712 v -3.33558 c 0,-0.11395 -0.0314,-0.17639 -0.13511,-0.21759 l -0.56974,-0.19692 0.10372,-0.66284 h 1.54375 l 0.1136,0.75601 0.0314,0.0106 c 0.34149,-0.44524 0.82868,-0.86998 1.52224,-0.86998 0.23848,0 0.62159,0.0412 0.80821,0.0932 v 1.69859 l -0.93203,-0.0412 -0.12454,-0.64244 c -0.0106,-0.0932 -0.031,-0.11356 -0.12417,-0.11356 -0.3937,0 -0.83891,0.34149 -1.04634,0.53827 v 2.97282 c 0,0.16577 0.0205,0.19692 0.17603,0.2074 l 0.97402,0.0827 v 0.66312 h -3.00425 v 0"
       style="fill:#ffffff;fill-opacity:1;fill-rule:nonzero;stroke:none;stroke-width:0.0352778"
       id="path118" />
    <path
       d="m 131.41397,140.69497 -0.0931,-0.63183 -0.0314,-0.0105 c -0.45543,0.36255 -1.03575,0.76645 -1.93675,0.76645 -1.11901,0 -1.49189,-0.56967 -1.49189,-1.761 v -2.6931 c 0,-0.16577 -0.01,-0.19692 -0.16546,-0.22818 l -0.52846,-0.12389 0.0935,-0.67346 h 1.79176 v 3.45969 c 0,0.69427 0.11394,1.06716 0.69391,1.06716 0.60078,0 1.11866,-0.3937 1.44004,-0.72496 v -2.77636 c 0,-0.16577 -0.0106,-0.19692 -0.16545,-0.22818 l -0.49742,-0.12389 0.0931,-0.67346 h 1.76072 v 4.4129 c 0,0.13437 0.0208,0.1863 0.13511,0.20712 l 0.53834,0.0724 v 0.66312 h -1.63654 v 0"
       style="fill:#ffffff;fill-opacity:1;fill-rule:nonzero;stroke:none;stroke-width:0.0352778"
       id="path120" />
    <path
       d="m 136.83476,136.88289 -0.11395,-0.6011 c -0.0106,-0.0724 -0.031,-0.1137 -0.1136,-0.14496 -0.1344,-0.0413 -0.42474,-0.1035 -0.74612,-0.1035 -0.66287,0 -0.9839,0.23854 -0.9839,0.65263 0,0.54903 0.57997,0.67346 1.23261,0.82875 0.81809,0.19678 1.74025,0.44552 1.74025,1.62666 0,1.22202 -1.01529,1.67774 -2.19604,1.67774 -0.89076,0 -1.76071,-0.23813 -1.94769,-0.36255 v -1.40864 l 0.86008,0.0514 0.10371,0.63225 c 0.0208,0.0825 0.0307,0.11398 0.12383,0.14499 0.13511,0.0416 0.46672,0.14467 0.93239,0.14467 0.64241,0 1.03575,-0.1863 1.03575,-0.71437 0,-0.58001 -0.66287,-0.67346 -1.35643,-0.82875 -0.7874,-0.17596 -1.61607,-0.42428 -1.61607,-1.52259 0,-1.25335 1.04634,-1.7194 2.16464,-1.7194 0.76659,0 1.4919,0.19653 1.74061,0.30014 v 1.39845 l -0.86007,-0.0518 v 0"
       style="fill:#ffffff;fill-opacity:1;fill-rule:nonzero;stroke:none;stroke-width:0.0352778"
       id="path122" />
    <path
       d="m 142.31692,140.45656 c -0.42404,0.19678 -0.98425,0.36255 -1.53282,0.36255 -1.08761,0 -1.5434,-0.47653 -1.5434,-1.50206 v -3.02464 c 0,-0.0617 0,-0.10379 -0.0832,-0.10379 h -0.74542 v -0.73558 c 0.80821,-0.10294 1.12888,-0.65221 1.26365,-1.56379 h 0.756 v 1.34687 c 0,0.0724 0,0.10336 0.0833,0.10336 h 1.50248 v 0.84914 h -1.58573 v 2.81771 c 0,0.6423 0.16651,0.88042 0.74612,0.88042 0.31045,0 0.63183,-0.0825 0.901,-0.17572 l 0.23812,0.74553 v 0"
       style="fill:#ffffff;fill-opacity:1;fill-rule:nonzero;stroke:none;stroke-width:0.0352778"
       id="path124" />
    <path
       d="m 145.93431,136.88289 -0.1136,-0.6011 c -0.0102,-0.0724 -0.0317,-0.1137 -0.1143,-0.14496 -0.13476,-0.0413 -0.42474,-0.1035 -0.74612,-0.1035 -0.66287,0 -0.98355,0.23854 -0.98355,0.65263 0,0.54903 0.57962,0.67346 1.23261,0.82875 0.81844,0.19678 1.74025,0.44552 1.74025,1.62666 0,1.22202 -1.01529,1.67774 -2.19639,1.67774 -0.89077,0 -1.76072,-0.23813 -1.94734,-0.36255 v -1.40864 l 0.85972,0.0514 0.10442,0.63225 c 0.0201,0.0825 0.0303,0.11398 0.12348,0.14499 0.13476,0.0416 0.46672,0.14467 0.93239,0.14467 0.64241,0 1.03611,-0.1863 1.03611,-0.71437 0,-0.58001 -0.66287,-0.67346 -1.35679,-0.82875 -0.7874,-0.17596 -1.61607,-0.42428 -1.61607,-1.52259 0,-1.25335 1.04634,-1.7194 2.16464,-1.7194 0.76694,0 1.49155,0.19653 1.74026,0.30014 v 1.39845 l -0.85972,-0.0518 v 0"
       style="fill:#ffffff;fill-opacity:1;fill-rule:nonzero;stroke:none;stroke-width:0.0352778"
       id="path126" />
    <path
       d="m 124.84948,131.04441 -1.14441,-4.5194 h -0.11571 l -0.98495,4.5194 H 119.041 l -2.05705,-8.73477 c -0.0579,-0.17392 -0.17392,-0.2025 -0.34748,-0.24624 l -0.65229,-0.15946 0.14534,-1.3469 h 4.89585 v 1.3469 l -1.15887,0.13018 1.18815,6.4608 h 0.15911 l 1.47743,-6.09815 h 2.65077 l 1.46297,6.09815 h 0.15946 l 1.1878,-6.4608 -1.15887,-0.13018 0.14499,-1.3469 h 4.24427 v 1.3469 l -0.65194,0.15946 c -0.17392,0.0437 -0.28963,0.0723 -0.34748,0.24624 l -1.88348,8.73477 h -3.6502 v 0"
       style="fill:#ffffff;fill-opacity:1;fill-rule:nonzero;stroke:none;stroke-width:0.0352778"
       id="path128" />
    <path
       d="m 131.83096,131.04441 v -1.37625 l 0.60854,-0.0867 c 0.20285,-0.0294 0.23177,-0.0723 0.23177,-0.28967 v -3.86771 c 0,-0.1596 -0.0434,-0.26102 -0.18838,-0.30399 l -0.75353,-0.27548 0.18873,-1.40505 h 3.46181 v 5.85223 c 0,0.23181 0.0145,0.26032 0.23178,0.28967 l 0.623,0.10089 v 1.36204 z m 2.01365,-8.48818 c -0.97049,0 -1.53564,-0.5648 -1.53564,-1.53564 0,-0.97085 0.56515,-1.50637 1.53564,-1.50637 0.98496,0 1.54975,0.53552 1.54975,1.50637 0,0.97084 -0.56479,1.53564 -1.54975,1.53564 v 0"
       style="fill:#ffffff;fill-opacity:1;fill-rule:nonzero;stroke:none;stroke-width:0.0352778"
       id="path130" />
    <path
       d="m 136.72716,131.04441 v -1.37625 l 0.60784,-0.0867 c 0.2032,-0.0294 0.23212,-0.0723 0.23212,-0.28967 v -7.19913 c 0,-0.15946 -0.0434,-0.24659 -0.18873,-0.30445 l -0.75283,-0.27481 0.18803,-1.40582 h 3.46181 v 9.18421 c 0,0.23181 0.0148,0.26032 0.23213,0.28967 l 0.623,0.10089 v 1.36204 h -4.40337 v 0"
       style="fill:#ffffff;fill-opacity:1;fill-rule:nonzero;stroke:none;stroke-width:0.0352778"
       id="path132" />
    <path
       d="m 147.09847,131.04441 -0.15945,-0.81096 -0.11571,-0.0289 c -0.56551,0.60812 -1.26083,1.01381 -2.27436,1.01381 -1.73814,0 -2.85362,-1.10105 -2.85362,-3.92574 0,-2.95494 1.56457,-4.01246 3.08504,-4.01246 0.82585,0 1.40547,0.28998 1.94134,0.69536 v -1.88281 c 0,-0.15946 -0.0434,-0.24659 -0.18874,-0.30445 l -0.75283,-0.27481 0.18803,-1.40582 h 3.33199 v 9.19871 c 0,0.21731 0.0141,0.24582 0.23213,0.27517 l 0.66534,0.10089 v 1.36204 z m -0.49318,-5.4901 c -0.31785,-0.15942 -0.59302,-0.21689 -0.81104,-0.21689 -0.89746,0 -1.2453,0.88346 -1.2453,1.91146 0,1.0432 0.33302,1.89798 1.1871,1.89798 0.27622,0 0.59478,-0.0583 0.86924,-0.20257 v -3.38998 0"
       style="fill:#ffffff;fill-opacity:1;fill-rule:nonzero;stroke:none;stroke-width:0.0352778"
       id="path134" />
    <path
       d="m 150.6901,131.04441 v -1.37625 l 0.60819,-0.0867 c 0.20285,-0.0294 0.23213,-0.0723 0.23213,-0.28967 v -7.19913 c 0,-0.15946 -0.0434,-0.24659 -0.18874,-0.30445 l -0.75282,-0.27481 0.18803,-1.40582 h 3.4618 v 9.18421 c 0,0.23181 0.0148,0.26032 0.23213,0.28967 l 0.62301,0.10089 v 1.36204 h -4.40373 v 0"
       style="fill:#ffffff;fill-opacity:1;fill-rule:nonzero;stroke:none;stroke-width:0.0352778"
       id="path136" />
    <path
       d="m 155.58595,131.04441 v -1.37625 l 0.60819,-0.0867 c 0.20285,-0.0294 0.23213,-0.0723 0.23213,-0.28967 v -3.86771 c 0,-0.1596 -0.0434,-0.26102 -0.18874,-0.30399 l -0.75282,-0.27548 0.18803,-1.40505 h 3.4618 v 5.85223 c 0,0.23181 0.0148,0.26032 0.23213,0.28967 l 0.62301,0.10089 v 1.36204 z m 2.01401,-8.48818 c -0.97084,0 -1.53635,-0.5648 -1.53635,-1.53564 0,-0.97085 0.56551,-1.50637 1.53635,-1.50637 0.9846,0 1.5494,0.53552 1.5494,1.50637 0,0.97084 -0.5648,1.53564 -1.5494,1.53564 v 0"
       style="fill:#ffffff;fill-opacity:1;fill-rule:nonzero;stroke:none;stroke-width:0.0352778"
       id="path138" />
    <path
       d="m 160.52519,131.04441 v -1.37625 l 0.75354,-0.0867 c 0.20214,-0.0294 0.23142,-0.0872 0.23142,-0.30413 v -3.96914 c 0,-0.0867 0,-0.14513 -0.11571,-0.14513 h -0.92675 v -1.7235 h 1.04246 v -0.60854 c 0,-2.11455 1.24601,-2.89701 3.36091,-2.89701 1.44851,0 2.83916,0.34749 2.85327,2.28882 l -2.50543,0.28999 c 0.0141,-0.7105 -0.1016,-0.91264 -0.47836,-0.91264 -0.5073,0 -0.52141,0.3616 -0.52141,0.82515 v 0.86924 c 0,0.1016 0,0.14499 0.11571,0.14499 h 2.23062 v 1.7235 h -2.34633 v 4.05571 c 0,0.23206 0.0434,0.27548 0.26035,0.29037 l 1.81081,0.17321 v 1.36204 h -5.7651 v 0"
       style="fill:#ffffff;fill-opacity:1;fill-rule:nonzero;stroke:none;stroke-width:0.0352778"
       id="path140" />
    <path
       d="m 174.05387,130.42141 c -1.01247,0.46358 -2.07081,0.79692 -3.18629,0.79692 -2.89701,0 -3.89678,-1.73852 -3.89678,-4.02664 0,-2.65105 1.68028,-3.91156 3.76625,-3.91156 1.98332,0 3.30271,1.01437 3.30271,3.60676 0,0.15942 -0.0141,0.44909 -0.0423,0.78243 h -4.14373 c 0.0575,1.08631 0.47836,1.53543 1.37583,1.53543 0.42016,0 1.10102,-0.10171 2.21756,-0.46359 z m -2.66488,-4.05585 c 0,-1.04303 -0.31927,-1.2168 -0.73837,-1.2168 -0.40604,0 -0.73942,0.21745 -0.79692,1.2168 h 1.53529 v 0"
       style="fill:#ffffff;fill-opacity:1;fill-rule:nonzero;stroke:none;stroke-width:0.0352778"
       id="path142" />
    <path
       d="m 117.58967,117.77256 v -0.67839 l 1.07456,-0.0727 c 0.14605,-0.0106 0.16722,-0.0522 0.16722,-0.20885 v -5.69736 h -1.39877 c -0.11465,0 -0.14605,0.0106 -0.16686,0.11501 l -0.16686,0.90769 h -0.87666 v -1.91981 h 6.4382 v 1.91981 h -0.86607 l -0.16722,-0.90769 c -0.0205,-0.10443 -0.0515,-0.11501 -0.16686,-0.11501 h -1.40864 v 5.69736 c 0,0.14605 0.0106,0.18768 0.16757,0.19826 l 1.14723,0.0833 v 0.67839 h -3.77684 v 0"
       style="fill:#ffffff;fill-opacity:1;fill-rule:nonzero;stroke:none;stroke-width:0.0352778"
       id="path144" />
    <path
       d="m 126.66065,117.77256 v -0.65722 l 0.49071,-0.073 c 0.16686,-0.0208 0.17709,-0.0836 0.17709,-0.21907 v -2.42112 c 0,-0.49001 -0.0519,-1.14794 -0.74083,-1.14794 -0.51117,0 -1.04352,0.29246 -1.42945,0.56409 v 3.00497 c 0,0.16686 0.0106,0.18767 0.16686,0.20849 l 0.55315,0.073 v 0.66781 h -2.58762 v -0.65722 l 0.50094,-0.0836 c 0.14605,-0.0208 0.16687,-0.0522 0.16687,-0.20849 v -5.84342 c 0,-0.11465 -0.0314,-0.18767 -0.13582,-0.21907 l -0.59478,-0.19861 0.10442,-0.66746 h 1.81574 v 3.04694 c 0.52176,-0.35489 1.07457,-0.66781 1.80482,-0.66781 1.12712,0 1.57585,0.74084 1.57585,1.88842 v 2.66101 c 0,0.16686 0.0106,0.18767 0.16687,0.20849 l 0.57397,0.073 v 0.66781 h -2.60879 v 0"
       style="fill:#ffffff;fill-opacity:1;fill-rule:nonzero;stroke:none;stroke-width:0.0352778"
       id="path146" />
    <path
       d="m 134.42811,117.40744 c -0.57397,0.2921 -1.24178,0.49071 -2.00343,0.49071 -1.94098,0 -2.57739,-1.24178 -2.57739,-2.84903 0,-1.88878 1.09537,-2.77531 2.46203,-2.77531 1.31481,0 2.21263,0.69886 2.21263,2.5146 0,0.13547 -0.0109,0.40676 -0.0314,0.60537 h -3.37079 c 0.0522,0.97014 0.42792,1.54411 1.44039,1.54411 0.51153,0 0.9077,-0.10442 1.53388,-0.36513 z m -1.10631,-2.88008 c 0,-1.02235 -0.46955,-1.3462 -1.03329,-1.3462 -0.59478,0 -1.10561,0.39687 -1.15782,1.3462 h 2.19111 v 0"
       style="fill:#ffffff;fill-opacity:1;fill-rule:nonzero;stroke:none;stroke-width:0.0352778"
       id="path148" />
  </g>
</svg>
