<?xml version="1.0" encoding="utf-8"?>
<!-- Generator: Adobe Illustrator 26.0.1, SVG Export Plug-In . SVG Version: 6.00 Build 0)  -->
<svg version="1.1" id="Layer_1" xmlns="http://www.w3.org/2000/svg" xmlns:xlink="http://www.w3.org/1999/xlink" x="0px" y="0px"
	 viewBox="0 0 500 500" style="enable-background:new 0 0 500 500;" xml:space="preserve">
<style type="text/css">
	.st0{fill:#54257F;}
	.st1{fill:#FFFFFF;}
</style>
<g>
	<path class="st0" d="M250,0C111.9,0,0,111.9,0,250v250h250c138.1,0,250-111.9,250-250S388.1,0,250,0"/>
</g>
<g>
	<path class="st1" d="M398.7,339.2c0,9.6-3.8,18.8-10.6,25.5c-6.8,6.8-15.9,10.6-25.5,10.6h-18.1c-9.6,0-18.8-3.8-25.5-10.6
		c-6.8-6.8-10.6-15.9-10.6-25.5v-45.1c0-9.6,3.8-18.8,10.6-25.5c6.8-6.8,15.9-10.6,25.5-10.6h18.1v-9c0-28.7-11.4-56.3-31.7-76.6
		c-20.3-20.3-47.9-31.7-76.6-31.7c-28.7,0-56.2,11.4-76.6,31.7C157.4,192.8,146,220.3,146,249v9h18.1c9.6,0,18.8,3.8,25.5,10.6
		c6.8,6.8,10.6,16,10.6,25.5v45.1c0,9.6-3.8,18.8-10.6,25.5c-6.8,6.8-15.9,10.6-25.5,10.6H146c-9.6,0-18.7-3.8-25.5-10.6
		c-6.8-6.8-10.6-15.9-10.6-25.5V249c0-38.3,15.2-75,42.3-102.1s63.8-42.3,102.1-42.3s75,15.2,102.1,42.3
		c27.1,27.1,42.3,63.8,42.3,102.1V339.2z"/>
</g>
</svg>
